<svg width="106" height="99" viewBox="0 0 106 99" fill="none" xmlns="http://www.w3.org/2000/svg">
<path fill-rule="evenodd" clip-rule="evenodd" d="M2.41225 0.95786C-0.123019 2.50399 0.000984591 0.592478 0.000984591 38.0973C0.000984591 71.2225 0.0308465 72.5641 0.78815 73.6818C2.35958 76.0002 2.68182 76.0454 17.655 76.0454C30.5561 76.0454 31.3976 76.0906 31.2068 76.7712C31.0948 77.1706 30.2857 79.783 29.4085 82.5774L27.8134 87.6579H23.7851C20.0135 87.6579 19.7386 87.7156 19.4707 88.5596C18.8382 90.5524 18.951 90.5611 44.842 90.5611C66.246 90.5611 69.0691 90.4868 69.6468 89.9095C71.2286 88.3273 70.0006 87.6579 65.516 87.6579H61.7291L59.9968 82.1627C59.0441 79.1401 58.2661 76.5273 58.2677 76.3564C58.2694 76.1856 62.4234 76.047 67.4989 76.0487L76.7267 76.052L82.521 85.4569C89.1882 96.2798 89.6067 96.8327 92.0051 97.9939C98.3235 101.053 105.88 95.9692 105.482 88.927C105.327 86.1869 105.321 86.1748 98.1245 74.583C94.1634 68.2019 90.668 62.7739 90.3565 62.5209C89.8887 62.1398 89.7908 57.0697 89.7908 33.1578C89.7908 1.70604 89.8783 2.91582 87.4621 1.01509C85.7891 -0.300857 4.56596 -0.355602 2.41225 0.95786ZM86.4584 3.85436C86.7417 4.38356 86.8877 13.769 86.8877 31.4341V58.2118H84.2566C81.6255 58.2118 81.6255 58.2118 78.8651 53.695C76.1876 49.3137 75.7202 48.2582 76.458 48.2582C76.6525 48.2582 77.6852 47.1467 78.7527 45.7877C94.0551 26.3101 75.0881 -1.23899 51.7655 6.59036C34.2671 12.4642 29.0775 34.3783 42.089 47.4512C49.0698 54.4651 59.4618 56.8436 68.2773 53.4453C68.9214 53.1973 71.5425 56.6956 71.5425 57.8033C71.5425 58.0683 59.4419 58.2118 37.1196 58.2118H2.69675V31.2836C2.69675 7.35678 2.76933 4.28319 3.3483 3.70381C4.4743 2.57822 85.8542 2.72545 86.4584 3.85436ZM65.0905 8.85231C81.018 12.9258 87.0042 32.7078 75.9706 44.8056C63.8808 58.0617 42.2196 52.5366 38.1204 35.1514C34.3314 19.0796 49.0312 4.74521 65.0905 8.85231ZM73.2844 17.6509C72.5794 18.3559 72.5794 35.8577 73.2844 36.5627C73.987 37.2653 75.1404 37.1807 75.4381 36.4043C75.7666 35.5487 75.7666 18.6649 75.4381 17.8093C75.1404 17.0329 73.987 16.9483 73.2844 17.6509ZM17.4281 18.9312C12.207 21.8882 12.9121 29.0328 18.6698 31.5117C20.3229 32.2234 20.3229 32.2234 17.2124 32.6862C11.2025 33.5808 9.33996 36.0004 9.33498 42.9198C9.33166 47.2824 8.63325 47.0472 21.2034 46.9174L31.9355 46.8067L32.0537 42.5673C32.2536 35.3803 29.6773 32.5519 22.8905 32.5083C21.1051 32.4971 21.1433 31.8986 22.9523 31.537C24.6818 31.1911 26.5547 29.4472 27.361 27.4315C29.7648 21.4241 23.0987 15.7195 17.4281 18.9312ZM56.2803 19.3098C55.4451 20.1451 55.5902 35.9697 56.4396 36.6747C58.1666 38.108 58.471 36.9028 58.5912 28.1519C58.7152 19.1041 58.2536 17.3365 56.2803 19.3098ZM23.8801 22.0981C26.8131 25.0311 24.0958 29.786 19.9331 29.0051C16.8641 28.4294 15.6431 24.2273 17.8909 21.979C19.4926 20.3778 22.2137 20.4317 23.8801 22.0981ZM67.4939 21.3677C67.1256 21.736 66.9805 23.8947 66.9805 29.0055C66.9805 36.5171 67.1775 37.3229 68.9305 36.9854C70.1553 36.7494 70.069 21.1496 68.8418 20.9737C68.3831 20.9078 67.7763 21.0853 67.4939 21.3677ZM62.0435 23.1187C61.7179 23.5111 61.6035 25.7726 61.6818 30.2729C61.7963 36.8531 61.7963 36.8531 62.8331 36.8531C63.87 36.8531 63.87 36.8531 63.9844 30.0411C64.0711 24.8689 63.9712 23.1482 63.5697 22.8931C62.8319 22.4249 62.5897 22.461 62.0435 23.1187ZM44.7769 25.9601C44.6566 26.274 44.6106 28.8533 44.6753 31.6917C44.7922 36.8531 44.7922 36.8531 45.8291 36.8531C47.3851 36.8531 47.4851 25.7432 45.9311 25.5225C45.4156 25.4491 44.8976 25.6457 44.7769 25.9601ZM50.6358 29.7242C49.65 30.445 49.8428 36.1372 50.8747 36.7855C52.2276 37.6352 52.8795 36.4317 52.8795 33.0844C52.8795 29.7371 52.1376 28.626 50.6358 29.7242ZM26.4772 35.7909C28.6197 36.6055 29.2397 37.792 29.2397 41.0788V44.1109H20.7377H12.2356V41.6018C12.2356 38.5572 13.0643 36.7871 14.8547 36.0087C16.3937 35.3393 24.8713 35.1804 26.4772 35.7909ZM43.772 39.7363C43.497 40.0677 43.3369 40.674 43.4157 41.0842C43.5505 41.7842 44.5409 41.8365 59.6799 41.9385C77.2426 42.0567 78.4031 41.9062 76.2825 39.7856C75.3382 38.8417 44.5533 38.7948 43.772 39.7363ZM78.7602 58.2434C81.1772 62.1385 83.1551 65.4937 83.1551 65.699C83.1551 66.1133 81.1395 67.5421 80.9126 67.2883C80.3618 66.6732 71.9573 52.8174 71.9573 52.525C71.9573 51.9195 72.9033 51.1614 73.6589 51.1614C74.1247 51.1614 75.8603 53.5714 78.7602 58.2434ZM76.188 64.8069C77.54 66.9511 78.4819 68.8174 78.2811 68.9543C78.0804 69.0907 77.2285 69.6373 76.3883 70.1694C75.3154 70.8484 74.8604 71.4348 74.8604 72.1394C74.8604 73.564 3.88746 73.7627 3.126 72.3401C2.89002 71.8989 2.69675 69.0982 2.69675 66.1167V60.6957L38.2133 60.8014L73.7299 60.9076L76.188 64.8069ZM86.8877 62.5665C86.8877 64.4623 85.5493 64.5967 84.6174 62.7946C83.7635 61.1432 83.7772 61.115 85.4361 61.115C86.8184 61.115 86.8877 61.1842 86.8877 62.5665ZM43.0321 63.2007C42.5203 63.4064 41.7199 64.1877 41.2537 64.9367C39.0847 68.4205 42.9711 72.7682 46.5843 70.8998C51.537 68.3384 48.2067 61.1204 43.0321 63.2007ZM45.7615 66.0412C46.0667 66.2349 46.2533 66.8383 46.1762 67.3828C45.9979 68.6453 43.6517 68.8527 43.4157 67.6271C43.1416 66.2038 44.5338 65.2631 45.7615 66.0412ZM95.7651 75.6506C102.822 87.1661 103.241 88.0291 102.88 90.2886C102.143 94.8971 96.4154 97.5394 92.655 95.0049C91.247 94.0564 78.0592 73.4093 78.3164 72.5566C78.43 72.1801 88.9021 65.677 89.3948 65.677C89.537 65.677 92.4036 70.1653 95.7651 75.6506ZM57.0878 81.4369C57.955 84.2882 58.6692 86.8546 58.675 87.1395C58.6833 87.5443 55.6276 87.6579 44.7478 87.6579C32.3971 87.6579 30.8377 87.5854 31.0537 87.0221C31.1881 86.6725 31.9803 84.1999 32.8143 81.5269C33.6483 78.8544 34.4114 76.5244 34.5097 76.3494C34.6084 76.1744 39.3741 76.0811 45.1004 76.142L55.5118 76.2528L57.0878 81.4369Z" fill="#00FFFF"/>
</svg>
