<svg width="103" height="103" viewBox="0 0 103 103" fill="none" xmlns="http://www.w3.org/2000/svg">
<path fill-rule="evenodd" clip-rule="evenodd" d="M44.8833 0.961421C37.9548 3.32233 32.8663 9.37298 31.7295 16.6019C31.3002 19.3294 31.3002 19.3294 15.6489 38.3938C0.721998 56.5755 -0.78916 58.6645 0.599917 59.1978C1.67737 59.6111 2.03598 59.2123 16.8154 41.1579C24.8503 31.3424 31.5821 23.3115 31.7744 23.3115C31.9668 23.3115 32.1242 23.6328 32.1242 24.0256C32.1242 27.2302 37.9034 34.6057 42.0678 36.716C52.7616 42.135 66.6833 36.3497 69.5124 25.3114C69.7943 24.2115 70.163 23.3115 70.3316 23.3115C70.5003 23.3115 77.1718 31.6697 85.1573 41.8848C99.6139 60.3781 100.308 61.1616 101.417 60.2411C102.314 59.4962 102.91 60.3271 86.1914 39.0118C70.3827 18.8572 70.3827 18.8572 70.1646 16.4493C69.1406 5.15797 56.0682 -2.85081 44.8833 0.961421ZM53.7543 2.84966C63.62 4.45078 69.8072 14.0795 67.2583 23.8657C64.0172 36.3104 48.1185 40.5792 39.1073 31.4247C28.8356 20.9896 35.7505 3.5689 50.597 2.4794C50.9283 2.45531 52.3492 2.62197 53.7543 2.84966ZM48.7899 5.42422C44.9938 6.78639 42.9605 11.0363 44.3564 14.6916C45.0223 16.4348 47.4354 18.8941 48.4799 18.8941C48.761 18.8941 48.9907 19.0748 48.9907 19.2957C48.9907 19.519 47.9133 19.6973 46.5611 19.6973C43.7565 19.6973 42.12 20.3993 41.4389 21.8948C40.8028 23.2903 40.8044 29.8232 41.4409 30.4597C42.1252 31.144 60.6752 31.144 61.3595 30.4597C61.6659 30.1533 61.8414 28.6036 61.8414 26.2029C61.8414 20.9438 60.7334 19.6973 56.0586 19.6973C54.2916 19.6973 53.0065 19.5282 53.0065 19.2957C53.0065 19.0748 53.2772 18.8941 53.6077 18.8941C54.6093 18.8941 57.3481 16.1236 57.85 14.6032C59.672 9.08304 54.1591 3.49742 48.7899 5.42422ZM54.3053 8.82161C56.2309 10.542 56.2309 13.5924 54.3053 15.3128C50.7191 18.5174 45.1753 14.8245 46.9912 10.4404C48.2229 7.46747 51.8829 6.65708 54.3053 8.82161ZM58.5484 22.5887C58.8211 22.8614 59.0303 24.1681 59.0303 25.6006V28.1305H51.1994H43.3685V25.7495C43.3685 22.1196 43.3963 22.1068 51.3484 22.1068C56.0381 22.1068 58.2119 22.2522 58.5484 22.5887ZM20.8156 44.5501C16.7363 47.1371 16.1589 52.1894 19.5538 55.5848C20.3703 56.4012 21.4541 57.1734 21.9629 57.3012C23.8251 57.7686 22.8119 58.2493 19.9655 58.2493C15.3436 58.2493 14.053 59.7641 14.053 65.1874C14.053 69.782 13.3819 69.5262 25.0965 69.4005L35.1361 69.2928L35.2542 65.6786C35.463 59.2894 34.651 58.2493 29.4553 58.2493C25.7495 58.2493 25.3427 57.9686 27.647 57.0012C31.8186 55.2503 33.0603 49.4153 30.0022 45.9327C27.5237 43.1096 23.9379 42.5699 20.8156 44.5501ZM47.9791 43.9505C42.4092 46.3773 42.1136 54.2676 47.4852 57.1369C49.1915 58.0485 49.1915 58.0485 46.1796 58.2738C42.5638 58.5441 41.9108 58.8051 41.145 60.2861C40.2804 61.9575 40.3177 68.9141 41.1928 69.2499C42.4654 69.7382 60.8499 69.5213 61.3595 69.0117C62.0759 68.2953 61.9884 62.1081 61.2414 60.6632C60.231 58.7095 59.1797 58.2493 55.7281 58.2493C53.9137 58.2493 52.605 58.081 52.605 57.8477C52.605 57.6268 52.88 57.4461 53.2162 57.4461C54.4045 57.4461 57.2979 54.311 57.8155 52.4629C59.4154 46.7479 53.4354 41.5727 47.9791 43.9505ZM73.9375 44.2376C70.5517 45.96 68.9803 50.1148 70.4156 53.55C71.0192 54.9945 73.5925 57.4461 74.5053 57.4461C74.829 57.4461 75.0936 57.6268 75.0936 57.8477C75.0936 58.077 73.8909 58.2493 72.289 58.2493C67.6961 58.2493 66.8612 59.2789 66.8612 64.9421V69.2928L77.0734 69.4005C88.8462 69.5241 87.9294 69.8824 87.9383 65.1565C87.9483 59.66 86.6428 58.2678 81.4386 58.2256C79.0123 58.2063 78.6364 58.1196 79.2585 57.7236C79.6713 57.4606 80.5748 56.8823 81.2664 56.4389C88.3824 51.8725 81.4888 40.3957 73.9375 44.2376ZM27.4381 47.023C28.0124 47.4752 28.6585 48.4824 28.8738 49.2619C30.1408 53.8515 24.7945 57.0237 21.4421 53.6712C17.5267 49.7558 23.0818 43.5963 27.4381 47.023ZM52.9724 46.7865C57.0477 48.894 55.1602 55.3013 50.4999 55.1792C49.1301 55.143 48.6008 54.8792 47.5077 53.6865C44.0107 49.8707 48.3474 44.3947 52.9724 46.7865ZM80.1536 47.5672C83.2209 50.6345 81.0298 55.2952 76.5755 55.1784C74.2154 55.1165 72.6793 53.348 72.697 50.7132C72.7251 46.5082 77.2048 44.6183 80.1536 47.5672ZM32.0439 61.1407C32.3166 61.4134 32.5258 62.7201 32.5258 64.1526V66.6825H24.6949H16.864V64.0923C16.864 62.0491 17.0126 61.4154 17.5668 61.0925C18.6045 60.4881 31.4339 60.5307 32.0439 61.1407ZM58.3994 61.2897C58.8311 61.7218 59.0303 62.6727 59.0303 64.3016V66.6825H50.9986H42.967V64.3016C42.967 60.6684 42.9882 60.6588 50.9986 60.6588C56.6172 60.6588 57.8753 60.766 58.3994 61.2897ZM85.0505 64.1726L85.1686 67.0841H77.32H69.4715V64.3401C69.4715 62.8306 69.5959 61.4716 69.7477 61.3194C69.8995 61.1676 73.3785 61.0921 77.4782 61.1523L84.9324 61.2612L85.0505 64.1726ZM8.34686 75.5126C2.26167 77.347 1.48822 86.3951 7.19191 89.0262C9.48897 90.086 9.23356 90.376 6.00121 90.376C2.78493 90.376 1.18944 91.0104 0.477434 92.5734C-0.16028 93.9725 -0.158675 100.902 0.479441 101.54C0.827613 101.888 3.64753 102.022 10.6395 102.022C17.6315 102.022 20.4514 101.888 20.7996 101.54C21.1056 101.234 21.2815 99.6883 21.2815 97.3033C21.2815 91.4096 20.3498 90.376 15.038 90.376C11.6463 90.376 11.366 90.0965 13.6855 89.0262C17.4757 87.2777 18.8214 81.7122 16.2384 78.4662C14.122 75.8069 11.1106 74.6797 8.34686 75.5126ZM34.3337 76.127C28.4461 79.3091 28.9055 87.134 35.1361 89.7973C35.7148 90.0446 35.0979 90.2025 32.9274 90.3623C27.8421 90.7362 26.9036 91.8486 26.9036 97.5041C26.9036 99.7328 27.0831 101.238 27.3855 101.54C28.163 102.317 47.5261 102.216 48.1775 101.432C48.5112 101.03 48.6229 99.6228 48.5281 97.0214C48.3325 91.6739 47.4209 90.7048 42.2666 90.3659C39.8153 90.2045 38.9937 90.0314 39.5535 89.7945C45.1106 87.44 46.2033 80.4364 41.5658 76.8992C39.7041 75.4792 36.2212 75.1074 34.3337 76.127ZM61.1057 76.3792C55.4695 79.169 56.1007 88.3182 62.0321 89.8069C64.0388 90.3105 62.9843 90.7775 59.8399 90.7775C55.0827 90.7775 54.0663 91.7646 53.8687 96.5756C53.623 102.557 52.5668 102.022 64.6171 102.022C76.5642 102.022 75.4952 102.461 75.4952 97.5518C75.4952 92.0044 74.3154 90.7775 68.9803 90.7775C65.5629 90.7775 64.3975 90.327 66.4696 89.8069C67.0274 89.6668 68.192 88.9126 69.0574 88.1307C75.1691 82.6089 68.4828 72.7276 61.1057 76.3792ZM88.0836 76.3434C82.6229 79.0465 82.7221 86.7151 88.2515 89.372C90.6437 90.5213 90.3699 90.7775 86.746 90.7775C81.9888 90.7775 80.9724 91.7646 80.7748 96.5756C80.5291 102.553 79.4982 102.022 91.3513 102.022C103.13 102.022 102.403 102.291 102.399 97.9321C102.394 92.0831 101.212 90.7775 95.9217 90.7775C92.4248 90.7775 91.2365 90.2852 93.5215 89.7836C94.1596 89.6435 95.3282 88.8821 96.1185 88.0918C101.874 82.3359 95.325 72.7593 88.0836 76.3434ZM12.4599 78.5361C14.6288 79.6577 15.4392 82.4612 14.2562 84.7494C12.8663 87.4368 9.28858 88.0829 7.22484 86.0188C3.38169 82.176 7.66337 76.0559 12.4599 78.5361ZM40.2683 79.4621C42.5353 81.7258 41.9192 85.6224 39.082 86.9689C37.2488 87.8387 35.4015 87.4934 33.9868 86.0164C29.9163 81.768 36.1083 75.3073 40.2683 79.4621ZM67.0174 79.3565C69.1578 81.1576 69.1823 84.3016 67.0724 86.4115C64.9994 88.4845 61.3739 87.7211 60.0511 84.9333C57.9296 80.4625 63.2602 76.1952 67.0174 79.3565ZM93.1781 78.9377C95.8418 80.3151 96.3679 83.8996 94.2463 86.2147C90.2365 90.5904 83.9453 84.8 87.6258 80.1211C89.0454 78.3164 91.1212 77.8739 93.1781 78.9377ZM18.3901 93.6689C18.6627 93.9416 18.872 95.2484 18.872 96.6808V99.2108H10.6395H2.40704V96.9756C2.40704 93.0637 2.1412 93.187 10.5732 93.187C15.7428 93.187 18.0503 93.3292 18.3901 93.6689ZM45.2961 93.6689C45.5688 93.9416 45.778 95.2484 45.778 96.6808V99.2108H37.7464H29.7147V96.4668C29.7147 94.9572 29.8352 93.6019 29.9826 93.4549C30.4886 92.9489 44.7757 93.1485 45.2961 93.6689ZM72.2685 93.9637C72.497 94.391 72.6841 95.7463 72.6841 96.9756V99.2108H64.6525H56.6208V96.4668C56.6208 94.9572 56.7413 93.6019 56.8887 93.4549C57.0356 93.3075 60.4632 93.187 64.5043 93.187C71.3585 93.187 71.8806 93.2392 72.2685 93.9637ZM98.9593 93.8179C99.4019 94.2609 99.5902 95.2195 99.5902 97.0306V99.6124H91.5585H83.5269V96.8816C83.5269 95.2929 83.7285 93.9492 84.0088 93.6689C84.8067 92.871 98.1449 93.0039 98.9593 93.8179Z" fill="#00FFFF"/>
</svg>
