<svg width="104" height="103" viewBox="0 0 104 103" fill="none" xmlns="http://www.w3.org/2000/svg">
<path fill-rule="evenodd" clip-rule="evenodd" d="M21.4254 0.656675C19.6546 1.57745 18.5879 2.69264 17.7941 4.45214C17.092 6.00993 17.092 6.00993 11.3095 6.14817C5.6179 6.28398 5.49987 6.3054 3.77554 7.51639C-0.23657 10.3349 0.00271767 7.84905 0.00271767 46.7063C0.00271767 84.074 -0.0716564 82.8318 2.31152 85.2692C5.07101 88.0917 3.2133 87.9228 32.8555 88.0497L59.6448 88.1645L60.5866 90.2728C68.2935 107.527 93.7312 106.465 99.2308 88.6596C99.6669 87.2474 100.573 85.409 101.244 84.5744C103.272 82.0505 103.313 81.2243 103.189 45.4302C103.059 8.0067 103.297 10.3232 99.3015 7.51639C97.578 6.30581 97.4576 6.28398 91.7858 6.14858C86.0214 6.01074 86.0214 6.01074 85.1742 4.26742C82.2818 -1.68608 72.6662 -1.14203 71.1088 5.06329C70.707 6.66393 32.3745 6.68131 31.9727 5.08067C31.0063 1.23064 25.092 -1.25035 21.4254 0.656675ZM27.5471 3.4578C31.5014 6.04874 29.5616 12.1579 24.7912 12.138C21.5309 12.1243 20.0107 10.5576 20.0107 7.21082C20.0107 3.30703 24.1619 1.23994 27.5471 3.4578ZM80.399 3.00954C83.6189 4.35513 84.131 9.13805 81.3012 11.4307C79.8141 12.6352 76.3849 12.3992 74.9811 10.995C71.1274 7.1417 75.3598 0.904047 80.399 3.00954ZM18.0027 10.7589C20.8689 16.6793 30.0192 16.0637 31.9149 9.82277C32.1914 8.91332 32.1914 8.91332 51.5296 8.91332H70.8683L71.7616 10.7589C74.6278 16.6793 83.7781 16.0637 85.6738 9.82277C85.9422 8.94 86.1059 8.91332 91.2308 8.91332C99.4066 8.91332 100.447 9.98688 100.447 18.4202V23.0604H51.5385H2.63003V18.4202C2.63003 9.9885 3.65024 8.9307 11.7897 8.92019C17.1094 8.91332 17.1094 8.91332 18.0027 10.7589ZM100.447 51.5567C100.447 65.6735 100.308 77.2235 100.138 77.2235C99.9676 77.2235 99.4891 76.2684 99.0748 75.1015C96.2644 67.1868 88.1011 61.4596 79.6306 61.4596C68.0846 61.4596 58.1165 71.8194 58.9156 82.9879L59.1121 85.7344L32.9929 85.6221C3.4643 85.4951 5.08597 85.6795 3.42995 82.2583C2.65711 80.6621 2.63003 79.6823 2.63003 53.2479V25.8898H51.5385H100.447V51.5567ZM27.7791 31.8898C27.3915 32.1356 27.29 33.5341 27.3749 37.4411L27.4885 42.6642H32.7431H37.9977L38.1117 37.6687C38.1877 34.3304 38.0705 32.4864 37.7589 32.1109C37.2362 31.4808 28.7205 31.2924 27.7791 31.8898ZM45.9605 32.0337C45.6392 32.355 45.4755 34.0996 45.4755 37.2075C45.4755 40.3154 45.6392 42.0599 45.9605 42.3813C46.6295 43.0502 55.6392 43.0502 56.3081 42.3813C57.0915 41.5979 56.965 32.9909 56.1582 32.1837C55.351 31.3769 46.7439 31.2504 45.9605 32.0337ZM64.2996 32.1837C63.5482 32.9355 63.3768 40.7649 64.083 42.0846C64.5898 43.0312 73.5906 43.2879 74.4972 42.3813C75.1662 41.7123 75.1662 32.7027 74.4972 32.0337C73.7139 31.2504 65.1068 31.3769 64.2996 32.1837ZM82.743 32.0337C82.0101 32.7665 82.0776 41.8093 82.8206 42.4258C83.1949 42.7366 84.9879 42.8546 88.1763 42.7786L92.9693 42.6642L93.0829 37.4411C93.1678 33.5341 93.0663 32.1356 92.6787 31.8898C91.8335 31.3534 83.2996 31.4771 82.743 32.0337ZM35.7746 37.2075V40.0369H32.7431H29.7116V37.2075V34.3781H32.7431H35.7746V37.2075ZM53.9637 37.2075V40.0369H51.1343H48.3049V37.2075V34.3781H51.1343H53.9637V37.2075ZM72.1529 37.2075V40.0369H69.3234H66.494V37.2075V34.3781H69.3234H72.1529V37.2075ZM90.7462 37.2075V40.0369H87.9168H85.0873V37.2075V34.3781H87.9168H90.7462V37.2075ZM9.40042 48.5575C8.52209 49.0692 8.32888 58.1044 9.17811 58.9536C9.84707 59.6225 18.8567 59.6225 19.5257 58.9536C20.4323 58.047 20.1757 49.0462 19.229 48.5393C18.2238 48.0013 10.3301 48.0159 9.40042 48.5575ZM27.7791 48.4621C27.3915 48.7079 27.29 50.1064 27.3749 54.0134L27.4885 59.2365H32.7431H37.9977L38.1117 54.241C38.1877 50.9027 38.0705 49.0587 37.7589 48.6832C37.2362 48.0531 28.7205 47.8647 27.7791 48.4621ZM46.1828 48.5575C45.3045 49.0692 45.1113 58.1044 45.9605 58.9536C46.6295 59.6225 55.6392 59.6225 56.3081 58.9536C57.0915 58.1702 56.965 49.5632 56.1582 48.756C55.412 48.0102 47.3967 47.8506 46.1828 48.5575ZM64.161 48.9989C63.4201 49.7398 63.4767 58.3756 64.2269 58.9976C64.6024 59.3093 66.4463 59.4265 69.7846 59.3505L74.7802 59.2365V53.9819V48.7273L69.7188 48.6149C66.1254 48.5349 64.5134 48.6464 64.161 48.9989ZM72.1529 53.7798V56.6092H69.3234H66.494V53.7798V50.9504H69.3234H72.1529V53.7798ZM17.1813 54.184V57.0134H14.3519H11.5225V54.184V51.3546H14.3519H17.1813V54.184ZM35.7746 54.184V57.0134H32.7431H29.7116V54.184V51.3546H32.7431H35.7746V54.184ZM53.9637 54.184V57.0134H51.1343H48.3049V54.184V51.3546H51.1343H53.9637V54.184ZM85.6112 65.0692C103.143 71.1011 100.739 96.8621 82.361 99.8973C65.5235 102.678 54.8312 82.0174 66.6792 69.5962C71.5744 64.4637 78.8177 62.7317 85.6112 65.0692ZM9.17811 65.5825C8.39477 66.3659 8.52128 74.9729 9.32807 75.7801C10.0799 76.5315 17.9093 76.7029 19.229 75.9968C20.1757 75.4899 20.4323 66.4891 19.5257 65.5825C19.2044 65.2612 17.4598 65.0975 14.3519 65.0975C11.244 65.0975 9.49945 65.2612 9.17811 65.5825ZM27.5673 65.3553C27.06 65.8626 27.2439 75.4026 27.7714 75.9301C28.4513 76.61 36.5944 76.5893 37.5297 75.9058C38.136 75.462 38.2116 74.743 38.1121 70.3481L37.9977 65.2996L32.923 65.1872C30.132 65.125 27.7217 65.2009 27.5673 65.3553ZM17.1813 70.7563V73.5857H14.3519H11.5225V70.7563V67.9269H14.3519H17.1813V70.7563ZM35.7746 70.7563V73.5857H32.7431H29.7116V70.7563V67.9269H32.7431H35.7746V70.7563ZM82.5142 80.27C78.7648 84.1524 75.4908 87.3205 75.2385 87.3108C74.9867 87.3011 73.6282 85.6536 72.2204 83.65C69.648 79.9891 68.8788 79.4939 67.9803 80.9212C67.4682 81.734 73.8695 90.9664 74.9455 90.9664C76.0073 90.9664 91.6625 75.0522 91.4907 74.1476C91.0744 71.956 89.5206 73.0162 82.5142 80.27Z" fill="#00FFFF"/>
</svg>
