<svg width="97" height="97" viewBox="0 0 97 97" fill="none" xmlns="http://www.w3.org/2000/svg">
<path fill-rule="evenodd" clip-rule="evenodd" d="M2.59002 0.744402C-0.190421 2.43961 0.00288043 -1.11747 0.00288043 48.3243C0.00288043 97.7661 -0.190421 94.2091 2.59002 95.9043C3.77267 96.6257 4.74451 96.6474 36.2179 96.6486C68.6281 96.6501 68.6281 96.6501 69.8503 95.6215C72.1399 93.695 72.111 93.9918 72.111 72.3091C72.111 55.6729 72.1955 52.51 72.6391 52.51C74.9291 52.51 83.7872 55.8175 90.6449 59.2334C95.7621 61.7825 96.8443 61.9891 96.8454 60.4176C96.8462 59.3438 85.9021 11.8236 85.4717 11.0336C84.7133 9.64053 83.7031 10.2033 81.232 13.3951C78.5992 16.795 72.9751 22.8296 72.439 22.8296C72.2586 22.8296 72.111 18.7147 72.111 13.685C72.111 3.60095 71.9698 2.81061 69.8503 1.02713C68.6281 -0.00141237 68.6281 -0.00141139 36.2179 0.000110681C4.74451 0.00125223 3.77267 0.0229408 2.59002 0.744402ZM68.4504 3.07469C69.4588 3.86807 69.4588 3.86807 69.3579 14.9659L69.2571 26.0641L66.1003 28.4423C64.3644 29.7505 62.7803 30.8205 62.5805 30.8205C62.3606 30.8205 62.2175 27.3822 62.2175 22.0998C62.2175 17.3034 62.1136 13.1082 61.9865 12.7771C61.5889 11.741 10.6559 11.8726 10.0999 12.9111C9.48082 14.0682 9.55996 78.0412 10.1817 78.8871C10.6227 79.4872 12.5333 79.5272 36.3423 79.4355L62.0273 79.3365L62.127 65.3525L62.227 51.3685L63.8393 51.3719C64.7263 51.3734 66.3511 51.483 67.4496 51.6151L69.4474 51.8552V72.3224C69.4474 92.7897 69.4474 92.7897 68.4367 93.5846C66.9709 94.7376 4.50212 94.6539 3.34573 93.4971C2.55083 92.7022 2.06719 6.07051 2.84649 4.02104C3.48386 2.3441 3.74451 2.33078 36.1958 2.30567C67.3054 2.28169 67.4466 2.28512 68.4504 3.07469ZM27.0219 6.08345C26.8891 6.29844 26.8895 6.81823 27.0231 7.2387C27.45 8.58459 44.904 8.20293 44.904 6.84791C44.904 5.89661 44.904 5.89661 36.0836 5.79463C30.3488 5.72804 27.1791 5.82926 27.0219 6.08345ZM59.9344 23.7532V32.6679L57.7925 33.6813C55.3587 34.8327 51.6528 35.8152 41.9142 37.8921C37.7723 38.7752 35.0444 39.537 34.9268 39.8434C34.7152 40.3951 37.7506 54.1733 38.3351 55.3125C38.6152 55.8586 38.9835 55.9762 39.9306 55.8224C41.1623 55.6227 41.1623 55.6227 42.8104 62.8236C43.7168 66.784 44.692 70.2186 44.9782 70.456C45.6346 71.0005 53.6235 69.4088 54.2951 68.5995C54.6403 68.1839 54.3716 66.4591 53.0893 60.8563C52.1821 56.8917 51.5383 53.5496 51.6585 53.4294C51.9287 53.1592 58.3031 51.749 59.2544 51.749C59.9093 51.749 59.9394 52.3978 59.8442 64.4012L59.7442 77.0534L36.0569 77.1516L12.3697 77.2494V69.4575V61.666L17.0265 61.5591C21.2822 61.4613 21.6954 61.389 21.8244 60.7163C22.082 59.3719 20.8739 58.9788 16.4827 58.9788H12.3697V55.7539V52.5294L18.3218 52.4244C23.5877 52.3319 24.3229 52.2402 24.6954 51.6314C25.5592 50.2212 24.154 49.8464 18.0048 49.8464H12.3697V46.6196V43.3924L20.6049 43.2901C27.8058 43.2003 28.8903 43.1078 29.2396 42.5534C30.2578 40.9377 29.1958 40.714 20.5044 40.714H12.3697V37.2893V33.8647H22.0596C30.9036 33.8647 31.7792 33.8064 32.0919 33.1988C32.8929 31.6409 32.5311 31.5816 22.2316 31.5816H12.3697V23.2102V14.8388H36.1521H59.9344V23.7532ZM84.8226 19.1196C92.154 50.8297 93.7126 57.6615 93.6342 57.7448C93.5832 57.7985 91.5882 56.9141 89.2 55.7798C79.8427 51.335 71.232 49.0462 63.512 48.9514L58.9082 48.8951L57.6631 43.3837C56.9782 40.3525 56.3545 37.6984 56.2773 37.4857C56.2 37.273 57.1022 36.6813 58.2826 36.171C65.1525 33.1991 74.7887 25.303 81.2213 17.3749C82.353 15.98 83.4036 14.8388 83.5558 14.8388C83.708 14.8388 84.278 16.7653 84.8226 19.1196ZM54.99 43.577C55.756 46.902 56.1228 49.2277 55.9108 49.4149C55.2674 49.983 40.5177 53.0336 40.1776 52.6687C39.7822 52.2448 37.337 41.8753 37.576 41.6364C37.7765 41.4358 52.2411 38.1268 53.1155 38.0816C53.5824 38.0572 54.0002 39.2817 54.99 43.577ZM50.1985 59.7585C51.9957 67.3015 52.0718 66.7874 49.0725 67.3533C47.7027 67.612 46.5265 67.7597 46.4588 67.682C46.2841 67.4819 43.5634 55.8365 43.5684 55.3099C43.5703 55.0709 44.3853 54.706 45.3796 54.4986C49.0238 53.7391 48.673 53.3559 50.1985 59.7585ZM34.2183 82.9396C30.3693 84.4967 30.6502 90.2719 34.6425 91.6562C37.5155 92.6524 40.5231 90.3198 40.5265 87.0934C40.5295 84.0976 37.0387 81.7989 34.2183 82.9396ZM37.4078 85.6912C39.0269 87.3103 37.098 90.0603 35.0105 89.109C33.1555 88.2639 33.8994 85.2346 35.9618 85.2346C36.5059 85.2346 37.1566 85.44 37.4078 85.6912Z" fill="#00FFFF"/>
</svg>
