<svg width="93" height="93" viewBox="0 0 93 93" fill="none" xmlns="http://www.w3.org/2000/svg">
<path fill-rule="evenodd" clip-rule="evenodd" d="M6.31847 0.285213C5.91863 0.369907 5.22654 0.51676 4.78016 0.611632C3.70895 0.839906 1.53053 2.77733 0.75665 4.19023C0.187782 5.22873 0.131076 8.47873 0.0387489 45.2905C-0.0695723 88.5401 -0.0830218 88.2039 1.85913 90.4157C4.22293 93.1077 1.52617 92.9198 37.7607 92.9198C74.1006 92.9198 72.0927 93.0652 74.0239 90.2929C75.5597 88.0879 75.5641 87.9912 75.5641 57.0626V27.3114L74.201 25.7767C67.6519 18.4036 52.074 1.18777 51.4957 0.68324C50.8058 0.0816572 9.02178 -0.286563 6.31847 0.285213ZM49.3925 15.2412C49.3925 24.595 49.5063 28.0045 49.8287 28.327C50.1493 28.6476 53.2779 28.7631 61.6422 28.7631H73.0196V58.0426C73.0196 90.5168 73.1323 89.001 70.6445 90.0406C68.5584 90.9123 6.80519 90.7992 5.04624 89.9203C2.33167 88.5644 2.50287 91.4818 2.50287 46.5743C2.50287 9.06214 2.54504 6.3243 3.13863 5.13604C4.44393 2.52288 3.76565 2.59267 27.8555 2.59231L49.3925 2.59158V15.2412ZM61.9051 15.5701C67.0183 21.2087 71.2021 25.9115 71.2021 26.0206C71.2021 26.1296 66.8675 26.2187 61.5695 26.2187H51.937V15.6472C51.937 9.34494 52.0725 5.12441 52.2725 5.19674C52.4568 5.26326 56.7914 9.93125 61.9051 15.5701ZM20.4947 10.3849C14.629 12.5164 14.4182 20.4155 20.1498 23.3107L21.9487 24.2195L19.586 24.4285C16.1266 24.7349 14.0013 26.1187 12.5393 29.0176C11.8112 30.4614 11.696 37.4485 12.3888 38.1413C12.7069 38.4594 15.5392 38.5775 22.8574 38.5775C30.1757 38.5775 33.008 38.4594 33.3261 38.1413C33.86 37.6073 33.916 31.6925 33.4042 29.8536C32.5489 26.7792 29.8587 24.7676 26.1289 24.4132C23.7662 24.1889 23.7662 24.1889 25.2202 23.5488C33.4551 19.9237 28.9307 7.31919 20.4947 10.3849ZM24.0155 12.7821C28.9714 14.1587 28.0507 21.4933 22.9218 21.4933C17.9964 21.4933 16.4272 15.0983 20.8582 13.0831C22.5856 12.2976 22.3515 12.3198 24.0155 12.7821ZM82.5446 22.6099C80.8227 23.4849 79.5196 25.0163 78.8857 26.909C78.5938 27.7806 78.472 34.8738 78.472 50.9744V73.8044L81.5843 83.2934C85.7852 96.1008 85.4609 96.108 89.8167 83.1055L92.9827 73.6546L92.9812 51.4815C92.9805 39.2863 92.846 28.6148 92.6821 27.7675C91.7752 23.0799 86.7004 20.498 82.5446 22.6099ZM88.463 25.1893C89.9024 26.3216 90.4673 27.9915 90.4673 31.1142V33.8521H85.7419H81.0165V30.7442C81.0165 27.2488 81.5323 25.8268 83.1113 24.9701C84.6376 24.142 87.2686 24.2496 88.463 25.1893ZM28.9282 27.6581C30.6489 28.7068 31.2178 30.1066 31.2178 33.2886V36.033H22.6237H14.0296L14.2299 33.1124C14.5923 27.8224 15.8162 26.9482 22.8574 26.9482C27.0845 26.9482 27.926 27.0467 28.9282 27.6581ZM55.7536 40.5727C52.355 43.6555 49.4885 46.185 49.3838 46.1941C49.2787 46.2032 48.4212 44.6569 47.4776 42.7577C45.7325 39.2441 44.9739 38.604 43.9775 39.8046C43.4588 40.4295 47.7884 49.2395 48.696 49.4063C49.1904 49.4976 56.4065 43.3829 62.2242 37.9436C64.1002 36.1893 64.3154 35.1737 62.8385 35.0461C62.129 34.9847 60.5957 36.1806 55.7536 40.5727ZM90.4673 54.3895V72.3824H85.7419H81.0165V54.3895V36.3965H85.7419H90.4673V54.3895ZM11.6037 47.4656C11.3627 47.7561 11.2224 48.2875 11.2914 48.647C11.4866 49.6597 34.2283 49.6597 34.4235 48.647C34.7408 46.9996 34.3235 46.9378 22.8574 46.9378C13.8461 46.9378 11.9686 47.0258 11.6037 47.4656ZM11.8316 58.0851C11.3481 58.5682 11.6055 59.643 12.2921 60.0109C13.616 60.7193 62.3013 60.5122 63.0184 59.795C63.3441 59.4693 63.5193 58.9651 63.4081 58.6747C63.2965 58.3843 63.2053 58.0782 63.2053 57.9946C63.2053 57.7372 12.0893 57.827 11.8316 58.0851ZM12.3307 68.1848C12.0897 68.4752 11.9494 69.0066 12.0184 69.3661C12.2231 70.4286 62.9865 70.5628 63.5539 69.5021C63.8388 68.9696 63.792 68.6591 63.3605 68.2273C62.5284 67.3956 13.0198 67.3542 12.3307 68.1848ZM89.7403 75.1875C89.7403 75.8345 85.9131 86.9222 85.6896 86.9222C85.4242 86.9222 81.7435 76.1569 81.7435 75.3809C81.7435 75.0454 82.7871 74.9269 85.7419 74.9269C87.941 74.9269 89.7403 75.0443 89.7403 75.1875ZM11.5637 78.4106C11.2173 78.8283 11.1907 79.1525 11.4681 79.592C12.0559 80.524 62.375 80.524 62.9628 79.592C63.2402 79.1525 63.2136 78.8283 62.8672 78.4106C62.1381 77.532 12.2929 77.532 11.5637 78.4106Z" fill="#00FFFF"/>
</svg>
