<svg width="214" height="234" viewBox="0 0 214 234" fill="none" xmlns="http://www.w3.org/2000/svg">
<g filter="url(#filter0_f_1_142)">
<path fill-rule="evenodd" clip-rule="evenodd" d="M102.854 38.3006V46.8387L98.8413 46.9562C93.2877 47.1188 93.2758 47.1318 93.122 53.2026L93.0065 57.7403H90.9747C89.4964 57.7403 88.7179 57.9221 88.1174 58.4079C87.3347 59.0409 87.2858 59.3235 87.1774 63.8286L87.0627 68.5817H84.7027C82.6887 68.5817 82.2312 68.7002 81.5832 69.3902L80.8236 70.1984L80.7355 134.351L80.647 198.504H78.5487H76.4503L76.3618 144.673C76.2804 95.1914 76.2265 90.7901 75.6956 90.2033C75.3777 89.8521 74.6737 89.565 74.1306 89.565C73.0248 89.565 43.02 104.55 41.7404 105.741L40.9535 106.474V152.576V198.678H35.3579H29.7624V201.127V203.575H105.652H181.542V201.129V198.683L155.225 198.593L128.909 198.504L128.734 134.039C128.562 70.7346 128.547 69.5654 127.88 69.0779C127.451 68.7646 126.325 68.5817 124.82 68.5817H122.439V64.0825C122.439 60.0603 122.362 59.4854 121.714 58.6618C121.056 57.8245 120.767 57.7403 118.566 57.7403H116.144L116.139 53.1064C116.135 50.5577 116.018 48.2995 115.876 48.0879C115.284 47.2 113.917 46.8989 110.484 46.8996L106.876 46.8999L106.872 44.0143C106.869 42.427 106.83 38.5713 106.784 35.4454L106.701 29.7625H104.778H102.854V38.3006ZM111.597 54.9425V57.7403H104.953H98.308V54.9425V52.1447H104.953H111.597V54.9425ZM117.543 65.609V68.5817H104.778H92.013V65.609V62.6364H104.778H117.543V65.609ZM123.838 136.088V198.697L118.679 198.6L113.521 198.504L113.426 191.703C113.346 185.994 113.239 184.801 112.76 184.271C112.244 183.702 111.481 183.64 104.899 183.64C98.0747 183.64 97.5638 183.685 96.9091 184.34C96.2576 184.991 96.2097 185.505 96.2097 191.859V198.678H90.9638H85.718V136.078V73.4778H104.778H123.838V136.088ZM90.2644 81.1717V82.9203H104.778H119.291V81.1717V79.4231H104.778H90.2644V81.1717ZM90.2644 90.6142V92.3628H104.778H119.291V90.6142V88.8656H104.778H90.2644V90.6142ZM133.28 101.228V111.947H134.775C136.891 111.947 142.684 113.484 145.115 114.69C153.605 118.902 159.309 126.061 161.407 135.138C162.122 138.233 162.133 145.584 161.426 148.668C159.727 156.083 154.29 163.77 148.143 167.447C143.716 170.096 137.916 172.085 134.592 172.095L133.28 172.1V182.806V193.513L135.204 193.298C136.262 193.18 138.001 192.985 139.068 192.866C141.12 192.636 141.923 192.122 142.179 190.873C142.264 190.453 142.664 188.379 143.067 186.263C143.826 182.278 144.145 181.714 145.87 181.304C146.351 181.189 148.302 180.331 150.205 179.395C152.109 178.46 153.771 177.695 153.898 177.695C154.026 177.695 155.922 178.875 158.111 180.318C160.532 181.913 162.452 182.941 163.013 182.941C164.709 182.941 173.844 173.472 173.847 171.711C173.847 171.209 173.491 170.265 173.054 169.613C171.055 166.628 168.602 162.604 168.602 162.308C168.602 162.129 168.975 161.308 169.431 160.484C170.336 158.85 172.099 153.952 172.099 153.075C172.099 152.774 172.453 152.453 172.886 152.361C182.923 150.228 182.354 150.419 182.834 149.015C183.087 148.273 183.258 145.531 183.269 142.023C183.286 136.567 182.968 133.904 182.246 133.458C182.071 133.35 179.991 132.882 177.625 132.419C172.513 131.419 172.099 131.279 172.099 130.54C172.099 129.863 170.617 125.817 169.396 123.165C168.387 120.969 168.226 121.445 171.81 116.045C172.931 114.356 173.848 112.594 173.848 112.129C173.848 111.117 171.463 108.169 167.452 104.224C163.65 100.485 163.15 100.231 161.426 101.154C160.693 101.547 159.293 102.453 158.315 103.167C157.337 103.881 155.932 104.833 155.193 105.282L153.848 106.1L151.346 104.87C149.969 104.194 147.862 103.286 146.663 102.853C145.464 102.42 144.32 101.869 144.12 101.628C143.921 101.388 143.43 99.4017 143.031 97.2141C142.63 95.027 142.164 92.8797 141.993 92.4432C141.567 91.3539 140.364 90.9741 136.545 90.7233L133.28 90.5086V101.228ZM71.6427 147.357L71.5542 198.504L58.7019 198.595L45.8496 198.687V153.806V108.924L58.3522 102.584C65.2284 99.0978 71.052 96.237 71.293 96.2272C71.6427 96.2132 71.7133 106.545 71.6427 147.357ZM90.2644 98.3081V100.057H104.778H119.291V98.3081V96.5595H104.778H90.2644V98.3081ZM90.2644 106.352V108.1H104.778H119.291V106.352V104.603H104.778H90.2644V106.352ZM50.396 113.871V115.444H53.1938H55.9916V113.871V112.297H53.1938H50.396V113.871ZM61.2374 113.871V115.444H64.0352H66.833V113.871V112.297H64.0352H61.2374V113.871ZM90.2644 114.046V115.794H104.778H119.291V114.046V112.297H104.778H90.2644V114.046ZM133.28 121.35V124.108L134.918 124.354C140.615 125.208 146.024 129.218 148.414 134.361C153.176 144.606 147.085 156.935 136.087 159.311L133.28 159.918V162.686V165.455H134.394C136.313 165.455 139.987 164.381 142.915 162.965C147.191 160.896 151.404 156.665 153.359 152.473C155.262 148.394 155.466 147.387 155.477 142.023C155.489 136.512 155.198 135.139 153.146 131.03C151.024 126.778 146.888 122.711 142.668 120.726C140.332 119.628 136.499 118.592 134.768 118.592H133.28V121.35ZM50.396 121.565V123.138H53.1938H55.9916V121.565V119.991H53.1938H50.396V121.565ZM61.2374 121.565V123.138H64.0352H66.833V121.565V119.991H64.0352H61.2374V121.565ZM90.2647 121.827L90.2644 123.488H104.778H119.291V121.727V119.966L104.778 120.066L90.2651 120.166L90.2647 121.827ZM50.396 129.608V131.182H53.1938H55.9916V129.608V128.035H53.1938H50.396V129.608ZM61.2374 129.608V131.182H64.0352H66.833V129.608V128.035H64.0352H61.2374V129.608ZM90.2644 129.608V131.182H104.778H119.291V129.608V128.035H104.778H90.2644V129.608ZM61.2367 137.215L61.2374 138.876H64.0352H66.833V137.329V135.782L64.0345 135.668L61.2356 135.554L61.2367 137.215ZM50.396 137.302V138.876H53.1938H55.9916V137.302V135.728H53.1938H50.396V137.302ZM90.2644 137.477V139.226H104.778H119.291V137.477V135.728H104.778H90.2644V137.477ZM50.396 144.996V146.57H53.1938H55.9916V144.996V143.422H53.1938H50.396V144.996ZM61.2374 144.996V146.57H64.0352H66.833V144.996V143.422H64.0352H61.2374V144.996ZM90.2644 145.171V146.92H104.778H119.291V145.171V143.422H104.778H90.2644V145.171ZM50.3953 152.952L50.396 154.613H53.1938H55.9916V153.066V151.519L53.1931 151.405L50.3942 151.291L50.3953 152.952ZM61.2367 152.952L61.2374 154.613H64.0352H66.833V153.066V151.519L64.0345 151.405L61.2356 151.291L61.2367 152.952ZM90.2644 153.215V154.963H104.778H119.291V153.215V151.466H104.778H90.2644V153.215ZM50.396 160.646V162.307H53.1938H55.9916V160.646V158.985H53.1938H50.396V160.646ZM61.2374 160.646V162.307H64.0352H66.833V160.646V158.985H64.0352H61.2374V160.646ZM90.2644 160.908V162.657H104.778H119.291V160.908V159.16H104.778H90.2644V160.908ZM50.3953 168.515L50.3942 170.176L53.1931 170.062L55.9916 169.948V168.401V166.854H53.1938H50.396L50.3953 168.515ZM61.2367 168.515L61.2356 170.176L64.0345 170.062L66.833 169.948V168.401V166.854H64.0352H61.2374L61.2367 168.515ZM90.2644 168.602V170.351H104.778H119.291V168.602V166.854H104.778H90.2644V168.602ZM61.2374 176.384V178.045H64.0352H66.833V176.384V174.722H64.0352H61.2374V176.384ZM50.396 176.471V178.045H53.1938H55.9916V176.471V174.897H53.1938H50.396V176.471ZM90.2644 176.646V178.395H104.778H119.291V176.646V174.897H104.778H90.2644V176.646ZM50.396 183.99V185.739H53.1938H55.9916V183.99V182.242H53.1938H50.396V183.99ZM61.2374 184.039V185.739H64.0352H66.833V183.972V182.205L64.0352 182.273L61.2374 182.34V184.039ZM109.149 193.258V198.678H104.778H100.406V193.258V187.837H104.778H109.149V193.258Z" fill="#4AC4F3"/>
</g>
<path fill-rule="evenodd" clip-rule="evenodd" d="M102.854 38.3006V46.8387L98.8413 46.9562C93.2877 47.1188 93.2758 47.1318 93.122 53.2026L93.0065 57.7403H90.9747C89.4964 57.7403 88.7179 57.9221 88.1174 58.4079C87.3347 59.0409 87.2858 59.3235 87.1774 63.8286L87.0627 68.5817H84.7027C82.6887 68.5817 82.2312 68.7002 81.5832 69.3902L80.8236 70.1984L80.7355 134.351L80.647 198.504H78.5487H76.4503L76.3618 144.673C76.2804 95.1914 76.2265 90.7901 75.6956 90.2033C75.3777 89.8521 74.6737 89.565 74.1306 89.565C73.0248 89.565 43.02 104.55 41.7404 105.741L40.9535 106.474V152.576V198.678H35.3579H29.7624V201.127V203.575H105.652H181.542V201.129V198.683L155.225 198.593L128.909 198.504L128.734 134.039C128.562 70.7346 128.547 69.5654 127.88 69.0779C127.451 68.7646 126.325 68.5817 124.82 68.5817H122.439V64.0825C122.439 60.0603 122.362 59.4854 121.714 58.6618C121.056 57.8245 120.767 57.7403 118.566 57.7403H116.144L116.139 53.1064C116.135 50.5577 116.018 48.2995 115.876 48.0879C115.284 47.2 113.917 46.8989 110.484 46.8996L106.876 46.8999L106.872 44.0143C106.869 42.427 106.83 38.5713 106.784 35.4454L106.701 29.7625H104.778H102.854V38.3006ZM111.597 54.9425V57.7403H104.953H98.308V54.9425V52.1447H104.953H111.597V54.9425ZM117.543 65.609V68.5817H104.778H92.013V65.609V62.6364H104.778H117.543V65.609ZM123.838 136.088V198.697L118.679 198.6L113.521 198.504L113.426 191.703C113.346 185.994 113.239 184.801 112.76 184.271C112.244 183.702 111.481 183.64 104.899 183.64C98.0747 183.64 97.5638 183.685 96.9091 184.34C96.2576 184.991 96.2097 185.505 96.2097 191.859V198.678H90.9638H85.718V136.078V73.4778H104.778H123.838V136.088ZM90.2644 81.1717V82.9203H104.778H119.291V81.1717V79.4231H104.778H90.2644V81.1717ZM90.2644 90.6142V92.3628H104.778H119.291V90.6142V88.8656H104.778H90.2644V90.6142ZM133.28 101.228V111.947H134.775C136.891 111.947 142.684 113.484 145.115 114.69C153.605 118.902 159.309 126.061 161.407 135.138C162.122 138.233 162.133 145.584 161.426 148.668C159.727 156.083 154.29 163.77 148.143 167.447C143.716 170.096 137.916 172.085 134.592 172.095L133.28 172.1V182.806V193.513L135.204 193.298C136.262 193.18 138.001 192.985 139.068 192.866C141.12 192.636 141.923 192.122 142.179 190.873C142.264 190.453 142.664 188.379 143.067 186.263C143.826 182.278 144.145 181.714 145.87 181.304C146.351 181.189 148.302 180.331 150.205 179.395C152.109 178.46 153.771 177.695 153.898 177.695C154.026 177.695 155.922 178.875 158.111 180.318C160.532 181.913 162.452 182.941 163.013 182.941C164.709 182.941 173.844 173.472 173.847 171.711C173.847 171.209 173.491 170.265 173.054 169.613C171.055 166.628 168.602 162.604 168.602 162.308C168.602 162.129 168.975 161.308 169.431 160.484C170.336 158.85 172.099 153.952 172.099 153.075C172.099 152.774 172.453 152.453 172.886 152.361C182.923 150.228 182.354 150.419 182.834 149.015C183.087 148.273 183.258 145.531 183.269 142.023C183.286 136.567 182.968 133.904 182.246 133.458C182.071 133.35 179.991 132.882 177.625 132.419C172.513 131.419 172.099 131.279 172.099 130.54C172.099 129.863 170.617 125.817 169.396 123.165C168.387 120.969 168.226 121.445 171.81 116.045C172.931 114.356 173.848 112.594 173.848 112.129C173.848 111.117 171.463 108.169 167.452 104.224C163.65 100.485 163.15 100.231 161.426 101.154C160.693 101.547 159.293 102.453 158.315 103.167C157.337 103.881 155.932 104.833 155.193 105.282L153.848 106.1L151.346 104.87C149.969 104.194 147.862 103.286 146.663 102.853C145.464 102.42 144.32 101.869 144.12 101.628C143.921 101.388 143.43 99.4017 143.031 97.2141C142.63 95.027 142.164 92.8797 141.993 92.4432C141.567 91.3539 140.364 90.9741 136.545 90.7233L133.28 90.5086V101.228ZM71.6427 147.357L71.5542 198.504L58.7019 198.595L45.8496 198.687V153.806V108.924L58.3522 102.584C65.2284 99.0978 71.052 96.237 71.293 96.2272C71.6427 96.2132 71.7133 106.545 71.6427 147.357ZM90.2644 98.3081V100.057H104.778H119.291V98.3081V96.5595H104.778H90.2644V98.3081ZM90.2644 106.352V108.1H104.778H119.291V106.352V104.603H104.778H90.2644V106.352ZM50.396 113.871V115.444H53.1938H55.9916V113.871V112.297H53.1938H50.396V113.871ZM61.2374 113.871V115.444H64.0352H66.833V113.871V112.297H64.0352H61.2374V113.871ZM90.2644 114.046V115.794H104.778H119.291V114.046V112.297H104.778H90.2644V114.046ZM133.28 121.35V124.108L134.918 124.354C140.615 125.208 146.024 129.218 148.414 134.361C153.176 144.606 147.085 156.935 136.087 159.311L133.28 159.918V162.686V165.455H134.394C136.313 165.455 139.987 164.381 142.915 162.965C147.191 160.896 151.404 156.665 153.359 152.473C155.262 148.394 155.466 147.387 155.477 142.023C155.489 136.512 155.198 135.139 153.146 131.03C151.024 126.778 146.888 122.711 142.668 120.726C140.332 119.628 136.499 118.592 134.768 118.592H133.28V121.35ZM50.396 121.565V123.138H53.1938H55.9916V121.565V119.991H53.1938H50.396V121.565ZM61.2374 121.565V123.138H64.0352H66.833V121.565V119.991H64.0352H61.2374V121.565ZM90.2647 121.827L90.2644 123.488H104.778H119.291V121.727V119.966L104.778 120.066L90.2651 120.166L90.2647 121.827ZM50.396 129.608V131.182H53.1938H55.9916V129.608V128.035H53.1938H50.396V129.608ZM61.2374 129.608V131.182H64.0352H66.833V129.608V128.035H64.0352H61.2374V129.608ZM90.2644 129.608V131.182H104.778H119.291V129.608V128.035H104.778H90.2644V129.608ZM61.2367 137.215L61.2374 138.876H64.0352H66.833V137.329V135.782L64.0345 135.668L61.2356 135.554L61.2367 137.215ZM50.396 137.302V138.876H53.1938H55.9916V137.302V135.728H53.1938H50.396V137.302ZM90.2644 137.477V139.226H104.778H119.291V137.477V135.728H104.778H90.2644V137.477ZM50.396 144.996V146.57H53.1938H55.9916V144.996V143.422H53.1938H50.396V144.996ZM61.2374 144.996V146.57H64.0352H66.833V144.996V143.422H64.0352H61.2374V144.996ZM90.2644 145.171V146.92H104.778H119.291V145.171V143.422H104.778H90.2644V145.171ZM50.3953 152.952L50.396 154.613H53.1938H55.9916V153.066V151.519L53.1931 151.405L50.3942 151.291L50.3953 152.952ZM61.2367 152.952L61.2374 154.613H64.0352H66.833V153.066V151.519L64.0345 151.405L61.2356 151.291L61.2367 152.952ZM90.2644 153.215V154.963H104.778H119.291V153.215V151.466H104.778H90.2644V153.215ZM50.396 160.646V162.307H53.1938H55.9916V160.646V158.985H53.1938H50.396V160.646ZM61.2374 160.646V162.307H64.0352H66.833V160.646V158.985H64.0352H61.2374V160.646ZM90.2644 160.908V162.657H104.778H119.291V160.908V159.16H104.778H90.2644V160.908ZM50.3953 168.515L50.3942 170.176L53.1931 170.062L55.9916 169.948V168.401V166.854H53.1938H50.396L50.3953 168.515ZM61.2367 168.515L61.2356 170.176L64.0345 170.062L66.833 169.948V168.401V166.854H64.0352H61.2374L61.2367 168.515ZM90.2644 168.602V170.351H104.778H119.291V168.602V166.854H104.778H90.2644V168.602ZM61.2374 176.384V178.045H64.0352H66.833V176.384V174.722H64.0352H61.2374V176.384ZM50.396 176.471V178.045H53.1938H55.9916V176.471V174.897H53.1938H50.396V176.471ZM90.2644 176.646V178.395H104.778H119.291V176.646V174.897H104.778H90.2644V176.646ZM50.396 183.99V185.739H53.1938H55.9916V183.99V182.242H53.1938H50.396V183.99ZM61.2374 184.039V185.739H64.0352H66.833V183.972V182.205L64.0352 182.273L61.2374 182.34V184.039ZM109.149 193.258V198.678H104.778H100.406V193.258V187.837H104.778H109.149V193.258Z" fill="white"/>
<defs>
<filter id="filter0_f_1_142" x="3.8147e-06" y="9.53674e-05" width="213.032" height="233.337" filterUnits="userSpaceOnUse" color-interpolation-filters="sRGB">
<feFlood flood-opacity="0" result="BackgroundImageFix"/>
<feBlend mode="normal" in="SourceGraphic" in2="BackgroundImageFix" result="shape"/>
<feGaussianBlur stdDeviation="14.8812" result="effect1_foregroundBlur_1_142"/>
</filter>
</defs>
</svg>
