<svg width="19" height="34" viewBox="0 0 19 34" fill="none" xmlns="http://www.w3.org/2000/svg">
<path d="M9.84193 14.67C5.62661 13.5744 4.27103 12.4417 4.27103 10.6776C4.27103 8.65347 6.14656 7.24217 9.28484 7.24217C11.9217 7.24217 13.2402 8.24494 13.723 9.84193C13.9458 10.5847 14.5586 11.1418 15.3386 11.1418H15.8956C17.1212 11.1418 17.994 9.93478 17.5669 8.78346C16.787 6.59223 14.9672 4.77241 12.0703 4.06676V2.78545C12.0703 1.24417 10.8261 0 9.28484 0C7.74355 0 6.49939 1.24417 6.49939 2.78545V4.01105C2.89687 4.79098 0 7.13076 0 10.7147C0 15.0043 3.54681 17.1398 8.72775 18.384C13.3702 19.4982 14.2986 21.1323 14.2986 22.8593C14.2986 24.1406 13.3887 26.1832 9.28484 26.1832C6.22084 26.1832 4.64242 25.0876 4.02962 23.5278C3.75107 22.8036 3.11971 22.2836 2.35835 22.2836H1.8384C0.594229 22.2836 -0.278545 23.5463 0.185697 24.6977C1.24417 27.2789 3.71394 28.8016 6.49939 29.3958V30.64C6.49939 32.1812 7.74355 33.4254 9.28484 33.4254C10.8261 33.4254 12.0703 32.1812 12.0703 30.64V29.4329C15.6914 28.7459 18.5697 26.6475 18.5697 22.8407C18.5697 17.5669 14.0572 15.7657 9.84193 14.67Z" fill="#000624"/>
</svg>
