<svg width="35" height="35" viewBox="0 0 35 35" fill="none" xmlns="http://www.w3.org/2000/svg">
<path d="M33.6415 22.9932C34.9306 19.3023 34.9306 15.2835 33.6415 11.5927L33.5906 11.4569C32.3862 8.10251 30.1755 5.20179 27.2604 3.15115C24.3454 1.10051 20.8682 0 17.3042 0C13.7401 0 10.2629 1.10051 7.34788 3.15115C4.43283 5.20179 2.22207 8.10251 1.01772 11.4569L0.966822 11.5927C-0.322274 15.2835 -0.322274 19.3023 0.966822 22.9932L1.01772 23.1289C2.22033 26.4839 4.42957 29.3858 7.34356 31.438C10.2575 33.4901 13.7341 34.5925 17.2982 34.5943C20.8623 34.5962 24.34 33.4975 27.2561 31.4484C30.1722 29.3992 32.3845 26.4997 33.5906 23.1459L33.6415 22.9932ZM12.5031 23.7396H22.1053C21.1383 26.8442 19.4926 29.6265 17.3042 31.7641C15.1157 29.6265 13.4701 26.8442 12.5031 23.7396ZM11.9941 21.7038C11.3832 18.7949 11.3832 15.7909 11.9941 12.882H22.6142C23.2251 15.7909 23.2251 18.7949 22.6142 21.7038H11.9941ZM2.03562 17.2929C2.03208 15.7989 2.24932 14.3125 2.68029 12.882H9.9074C9.36439 15.7975 9.36439 18.7883 9.9074 21.7038H2.68029C2.24932 20.2733 2.03208 18.7869 2.03562 17.2929ZM22.1053 10.8462H12.5031C13.4701 7.7416 15.1157 4.95933 17.3042 2.82173C19.4926 4.95933 21.1383 7.7416 22.1053 10.8462ZM24.7179 12.882H31.928C32.7881 15.7597 32.7881 18.8261 31.928 21.7038H24.7179C25.2382 18.7862 25.2382 15.7996 24.7179 12.882ZM31.1476 10.8462H24.2429C23.373 7.62783 21.7507 4.66228 19.5096 2.19403C22.0142 2.55987 24.3887 3.54195 26.42 5.0521C28.4513 6.56225 30.0758 8.55319 31.1476 10.8462ZM15.0987 2.19403C12.8577 4.66228 11.2353 7.62783 10.3655 10.8462H3.46068C4.53253 8.55319 6.15702 6.56225 8.18832 5.0521C10.2196 3.54195 12.5941 2.55987 15.0987 2.19403ZM3.46068 23.7396H10.3655C11.2389 26.9616 12.8606 29.9319 15.0987 32.4088C12.5944 32.0354 10.2213 31.0485 8.1908 29.536C6.16027 28.0235 4.53532 26.0322 3.46068 23.7396ZM19.5096 32.4088C21.7477 29.9319 23.3694 26.9616 24.2429 23.7396H31.1476C30.073 26.0322 28.448 28.0235 26.4175 29.536C24.387 31.0485 22.0139 32.0354 19.5096 32.4088Z" fill="#000624"/>
</svg>
