<svg width="29" height="34" viewBox="0 0 29 34" fill="none" xmlns="http://www.w3.org/2000/svg">
<path d="M26.9781 0H5.13868C3.77712 0.00423505 2.47254 0.54699 1.50976 1.50976C0.54699 2.47254 0.00423505 3.77712 0 5.13868V32.1167C0 32.4575 0.135349 32.7842 0.376271 33.0251C0.617194 33.2661 0.943954 33.4014 1.28467 33.4014H24.4087C24.7494 33.4014 25.0762 33.2661 25.3171 33.0251C25.5581 32.7842 25.6934 32.4575 25.6934 32.1167C25.6934 31.776 25.5581 31.4493 25.3171 31.2083C25.0762 30.9674 24.7494 30.8321 24.4087 30.8321H2.56934C2.56934 30.1506 2.84004 29.4971 3.32188 29.0153C3.80373 28.5334 4.45725 28.2627 5.13868 28.2627H26.9781C27.3188 28.2627 27.6455 28.1274 27.8865 27.8865C28.1274 27.6455 28.2627 27.3188 28.2627 26.9781V1.28467C28.2627 0.943954 28.1274 0.617193 27.8865 0.376271C27.6455 0.135349 27.3188 0 26.9781 0ZM12.8467 2.56934H20.5547V14.1314L17.4715 11.819C17.2481 11.6546 16.978 11.566 16.7007 11.566C16.4234 11.566 16.1533 11.6546 15.9299 11.819L12.8467 14.1314V2.56934ZM25.6934 25.6934H5.13868C4.23667 25.6955 3.3509 25.9336 2.56934 26.3839V5.13868C2.56934 4.45725 2.84004 3.80373 3.32188 3.32188C3.80373 2.84004 4.45725 2.56934 5.13868 2.56934H10.2774V16.7007C10.2774 16.9393 10.3438 17.1732 10.4692 17.3761C10.5947 17.579 10.7741 17.7431 10.9875 17.8497C11.2009 17.9564 11.4398 18.0016 11.6774 17.9802C11.915 17.9588 12.142 17.8716 12.3328 17.7284L16.7007 14.4525L21.0686 17.7284C21.2892 17.8985 21.5608 17.989 21.8394 17.9854C22.0387 17.9811 22.2352 17.9375 22.4175 17.8569C22.629 17.7463 22.8064 17.5803 22.9309 17.3767C23.0554 17.173 23.1221 16.9394 23.1241 16.7007V2.56934H25.6934V25.6934Z" fill="#000624"/>
</svg>
