<svg width="37" height="37" viewBox="0 0 37 37" fill="none" xmlns="http://www.w3.org/2000/svg">
<path d="M10.4894 0C10.8327 0 11.1619 0.136364 11.4046 0.379093C11.6474 0.621822 11.7837 0.951034 11.7837 1.2943V3.71465H25.6827V1.31095C25.6827 0.967675 25.8191 0.638463 26.0618 0.395734C26.3045 0.153005 26.6337 0.0166411 26.977 0.0166411C27.3203 0.0166411 27.6495 0.153005 27.8922 0.395734C28.1349 0.638463 28.2713 0.967675 28.2713 1.31095V3.71465H33.2821C34.2626 3.71465 35.2029 4.10401 35.8964 4.79712C36.5898 5.49024 36.9796 6.43036 36.9801 7.41082V33.284C36.9796 34.2644 36.5898 35.2046 35.8964 35.8977C35.2029 36.5908 34.2626 36.9801 33.2821 36.9801H3.69801C2.71756 36.9801 1.77724 36.5908 1.08378 35.8977C0.390318 35.2046 0.000490227 34.2644 0 33.284L0 7.41082C0.000490227 6.43036 0.390318 5.49024 1.08378 4.79712C1.77724 4.10401 2.71756 3.71465 3.69801 3.71465H9.19511V1.29246C9.1956 0.949505 9.33218 0.620769 9.57486 0.378439C9.81753 0.13611 10.1465 -3.49949e-07 10.4894 0ZM2.58861 14.315V33.284C2.58861 33.4297 2.6173 33.5739 2.67306 33.7085C2.72881 33.8431 2.81053 33.9654 2.91355 34.0684C3.01656 34.1715 3.13886 34.2532 3.27346 34.3089C3.40806 34.3647 3.55232 34.3934 3.69801 34.3934H33.2821C33.4278 34.3934 33.5721 34.3647 33.7067 34.3089C33.8413 34.2532 33.9636 34.1715 34.0666 34.0684C34.1696 33.9654 34.2513 33.8431 34.3071 33.7085C34.3628 33.5739 34.3915 33.4297 34.3915 33.284V14.3409L2.58861 14.315ZM12.3273 27.0306V30.1111H9.24503V27.0306H12.3273ZM20.0303 27.0306V30.1111H16.9498V27.0306H20.0303ZM27.7351 27.0306V30.1111H24.6528V27.0306H27.7351ZM12.3273 19.6771V22.7576H9.24503V19.6771H12.3273ZM20.0303 19.6771V22.7576H16.9498V19.6771H20.0303ZM27.7351 19.6771V22.7576H24.6528V19.6771H27.7351ZM9.19511 6.30141H3.69801C3.55232 6.30141 3.40806 6.33011 3.27346 6.38586C3.13886 6.44162 3.01656 6.52333 2.91355 6.62635C2.81053 6.72937 2.72881 6.85167 2.67306 6.98627C2.6173 7.12087 2.58861 7.26513 2.58861 7.41082V11.7282L34.3915 11.7541V7.41082C34.3915 7.26513 34.3628 7.12087 34.3071 6.98627C34.2513 6.85167 34.1696 6.72937 34.0666 6.62635C33.9636 6.52333 33.8413 6.44162 33.7067 6.38586C33.5721 6.33011 33.4278 6.30141 33.2821 6.30141H28.2713V8.01914C28.2713 8.36241 28.1349 8.69162 27.8922 8.93435C27.6495 9.17708 27.3203 9.31345 26.977 9.31345C26.6337 9.31345 26.3045 9.17708 26.0618 8.93435C25.8191 8.69162 25.6827 8.36241 25.6827 8.01914V6.30141H11.7837V8.0025C11.7837 8.34577 11.6474 8.67498 11.4046 8.91771C11.1619 9.16044 10.8327 9.29681 10.4894 9.29681C10.1461 9.29681 9.81693 9.16044 9.5742 8.91771C9.33147 8.67498 9.19511 8.34577 9.19511 8.0025V6.30141Z" fill="#000624"/>
</svg>
