<svg width="56" height="35" viewBox="0 0 56 35" fill="none" xmlns="http://www.w3.org/2000/svg">
<path d="M11.0502 12.7488H4.5674V19H1.19973V3.34035H11.6605V6.26601H4.5674V9.84415H11.0502V12.7488ZM19.7961 15.6323V14.4957H17.2282C16.1197 14.4957 15.5654 14.9237 15.5654 15.7797C15.5654 16.1305 15.6637 16.4041 15.8601 16.6005C16.0706 16.797 16.3582 16.8952 16.7231 16.8952C17.2142 16.8952 17.7755 16.7268 18.4069 16.3901L19.7961 15.6323ZM22.7428 19H19.7961V17.8424L18.7226 18.4317C17.8526 18.9088 16.9265 19.1473 15.9443 19.1473C14.948 19.1473 14.1412 18.8527 13.5238 18.2633C12.9064 17.674 12.5977 16.9022 12.5977 15.9481C12.5977 14.8255 12.9836 13.9766 13.7553 13.4013C14.5411 12.8119 15.5514 12.5172 16.7862 12.5172H19.8171V11.9489C19.8171 10.7141 19.1576 10.0967 17.8386 10.0967C16.4494 10.0967 15.7549 10.658 15.7549 11.7806H12.8292V11.6332C12.8292 10.3844 13.2782 9.41618 14.1763 8.72861C15.0883 8.02702 16.3021 7.67622 17.8176 7.67622C19.3891 7.67622 20.6029 8.04105 21.4588 8.77071C22.3148 9.48634 22.7428 10.5177 22.7428 11.8648V19ZM31.616 19H29.9321C28.571 19 27.4976 18.6773 26.7118 18.0318C25.94 17.3723 25.5542 16.4111 25.5542 15.1482V10.3704H23.9545V7.86565H25.5542V4.87684H28.6271V7.86565H31.5739V10.3704H28.6271V14.9798C28.6271 15.5131 28.7534 15.8989 29.006 16.1375C29.2726 16.362 29.6795 16.4742 30.2268 16.4742H31.616V19ZM42.784 15.3166V15.4429C42.784 16.6076 42.328 17.5266 41.4159 18.2002C40.5179 18.8737 39.3111 19.2105 37.7957 19.2105C36.2942 19.2105 35.0805 18.8316 34.1544 18.0739C33.2423 17.3021 32.7863 16.2357 32.7863 14.8746V12.2647C32.7863 10.8615 33.2423 9.75295 34.1544 8.93909C35.0805 8.12524 36.2942 7.71831 37.7957 7.71831C39.3111 7.71831 40.5249 8.11822 41.4369 8.91804C42.349 9.71787 42.8051 10.8545 42.8051 12.3278V14.3274H35.6067V14.8115C35.6067 15.485 35.8031 15.9901 36.196 16.3269C36.6029 16.6637 37.1432 16.8321 37.8167 16.8321C39.2199 16.8321 39.9215 16.3269 39.9215 15.3166H42.784ZM39.9846 12.5172V12.2436C39.9846 11.542 39.7952 11.0088 39.4163 10.644C39.0375 10.2791 38.5043 10.0967 37.8167 10.0967C37.1151 10.0967 36.5679 10.2862 36.175 10.665C35.7961 11.0299 35.6067 11.5631 35.6067 12.2647V12.5172H39.9846ZM54.5163 14.6431V14.8325C54.5163 16.2497 54.0742 17.3372 53.1902 18.0949C52.3203 18.8386 51.1275 19.2105 49.6121 19.2105C48.1107 19.2105 46.918 18.8246 46.0339 18.0528C45.1499 17.2671 44.7079 16.1866 44.7079 14.8115V12.1173C44.7079 10.7422 45.1499 9.66875 46.0339 8.897C46.918 8.11121 48.1107 7.71831 49.6121 7.71831C51.1275 7.71831 52.3203 8.09718 53.1902 8.8549C54.0742 9.59859 54.5163 10.6791 54.5163 12.0963V12.2857H51.6537C51.6537 10.9246 50.9732 10.2441 49.6121 10.2441C48.265 10.2441 47.5915 10.9527 47.5915 12.3699V14.5378C47.5915 15.9551 48.265 16.6637 49.6121 16.6637C50.9732 16.6637 51.6537 15.9901 51.6537 14.6431H54.5163Z" fill="#273336"/>
<path d="M13.6652 32.4914L14.3816 32.4218C14.4247 32.6622 14.5118 32.8388 14.6428 32.9516C14.7755 33.0644 14.9538 33.1208 15.1776 33.1208C15.4148 33.1208 15.5931 33.071 15.7125 32.9715C15.8335 32.8704 15.8941 32.7526 15.8941 32.6183C15.8941 32.5321 15.8683 32.4591 15.8169 32.3994C15.7672 32.338 15.6793 32.285 15.5533 32.2402C15.467 32.2103 15.2705 32.1573 14.9637 32.081C14.569 31.9831 14.2921 31.8629 14.1329 31.7203C13.909 31.5196 13.7971 31.275 13.7971 30.9865C13.7971 30.8007 13.8493 30.6274 13.9538 30.4666C14.0599 30.304 14.2116 30.1805 14.409 30.0959C14.608 30.0113 14.8476 29.9691 15.1279 29.9691C15.5856 29.9691 15.9297 30.0694 16.1602 30.2701C16.3924 30.4707 16.5143 30.7385 16.5259 31.0735L15.7896 31.1059C15.7581 30.9185 15.6901 30.7841 15.5856 30.7029C15.4828 30.62 15.3277 30.5785 15.1204 30.5785C14.9065 30.5785 14.739 30.6225 14.6179 30.7103C14.54 30.7667 14.501 30.8422 14.501 30.9367C14.501 31.0229 14.5375 31.0967 14.6105 31.1581C14.7034 31.236 14.9289 31.3173 15.2871 31.4019C15.6453 31.4865 15.9098 31.5744 16.0806 31.6656C16.2531 31.7551 16.3874 31.8787 16.4836 32.0362C16.5814 32.1921 16.6304 32.3853 16.6304 32.6158C16.6304 32.8248 16.5723 33.0204 16.4562 33.2029C16.3401 33.3853 16.176 33.5213 15.9637 33.6108C15.7514 33.6987 15.4869 33.7427 15.1702 33.7427C14.7092 33.7427 14.3551 33.6365 14.108 33.4242C13.8609 33.2103 13.7133 32.8994 13.6652 32.4914ZM17.9413 30.0312V31.372C18.1668 31.1084 18.4363 30.9765 18.7497 30.9765C18.9106 30.9765 19.0557 31.0064 19.1851 31.0661C19.3144 31.1258 19.4114 31.202 19.4761 31.2949C19.5424 31.3878 19.5872 31.4906 19.6104 31.6034C19.6353 31.7161 19.6477 31.8911 19.6477 32.1282V33.678H18.9487V32.2825C18.9487 32.0055 18.9355 31.8297 18.9089 31.7551C18.8824 31.6805 18.8351 31.6216 18.7672 31.5785C18.7008 31.5337 18.6171 31.5113 18.5159 31.5113C18.3998 31.5113 18.2962 31.5395 18.205 31.5959C18.1138 31.6523 18.0466 31.7377 18.0035 31.8521C17.962 31.9649 17.9413 32.1324 17.9413 32.3546V33.678H17.2423V30.0312H17.9413ZM22.098 33.678V33.2825C22.0018 33.4234 21.8749 33.5345 21.7174 33.6158C21.5615 33.697 21.3965 33.7377 21.2224 33.7377C21.0449 33.7377 20.8857 33.6987 20.7447 33.6208C20.6038 33.5428 20.5018 33.4334 20.4388 33.2924C20.3758 33.1514 20.3443 32.9566 20.3443 32.7078V31.0362H21.0433V32.2501C21.0433 32.6216 21.0557 32.8496 21.0806 32.9342C21.1071 33.0171 21.1544 33.0835 21.2224 33.1332C21.2903 33.1813 21.3766 33.2053 21.4811 33.2053C21.6005 33.2053 21.7074 33.173 21.802 33.1083C21.8965 33.042 21.9612 32.9607 21.996 32.8646C22.0308 32.7667 22.0482 32.5287 22.0482 32.1506V31.0362H22.7472V33.678H22.098ZM25.8765 33.678H25.1775V32.3297C25.1775 32.0445 25.1626 31.8604 25.1328 31.7775C25.1029 31.6929 25.054 31.6274 24.986 31.581C24.9197 31.5346 24.8392 31.5113 24.7447 31.5113C24.6236 31.5113 24.515 31.5445 24.4188 31.6108C24.3227 31.6772 24.2563 31.7651 24.2198 31.8745C24.185 31.984 24.1676 32.1863 24.1676 32.4815V33.678H23.4686V31.0362H24.1178V31.4243C24.3484 31.1258 24.6386 30.9765 24.9885 30.9765C25.1427 30.9765 25.2837 31.0047 25.4114 31.0611C25.5391 31.1158 25.6352 31.1863 25.6999 31.2725C25.7663 31.3588 25.8119 31.4566 25.8367 31.5661C25.8633 31.6755 25.8765 31.8322 25.8765 32.0362V33.678ZM26.573 30.678V30.0312H27.272V30.678H26.573ZM27.272 31.0362V33.5959C27.272 33.9325 27.2497 34.1697 27.2049 34.3073C27.1618 34.4466 27.0772 34.5553 26.9512 34.6332C26.8268 34.7111 26.6676 34.7501 26.4735 34.7501C26.4039 34.7501 26.3284 34.7435 26.2472 34.7302C26.1676 34.7186 26.0813 34.7004 25.9885 34.6755L26.1104 34.0785C26.1435 34.0851 26.175 34.0901 26.2049 34.0934C26.2331 34.0984 26.2596 34.1009 26.2845 34.1009C26.3558 34.1009 26.4138 34.0851 26.4586 34.0536C26.5051 34.0237 26.5357 33.9873 26.5507 33.9441C26.5656 33.901 26.573 33.7717 26.573 33.5561V31.0362H27.272ZM28.0059 30.678V30.0312H28.7049V30.678H28.0059ZM28.0059 33.678V31.0362H28.7049V33.678H28.0059ZM30.8541 33.678V30.0312H31.5705L33.063 32.4665V30.0312H33.7471V33.678H33.0083L31.5382 31.2999V33.678H30.8541ZM34.5232 30.678V30.0312H35.2222V30.678H34.5232ZM34.5232 33.678V31.0362H35.2222V33.678H34.5232ZM35.6948 32.9243L36.3963 32.8173C36.4262 32.9533 36.4867 33.0569 36.5779 33.1282C36.6691 33.1979 36.7968 33.2327 36.961 33.2327C37.1418 33.2327 37.2777 33.1995 37.369 33.1332C37.4303 33.0868 37.461 33.0246 37.461 32.9466C37.461 32.8936 37.4444 32.8496 37.4112 32.8148C37.3764 32.7816 37.2985 32.751 37.1774 32.7228C36.6136 32.5984 36.2562 32.4848 36.1053 32.382C35.8963 32.2394 35.7919 32.0412 35.7919 31.7875C35.7919 31.5586 35.8822 31.3662 36.063 31.2103C36.2438 31.0545 36.524 30.9765 36.9038 30.9765C37.2653 30.9765 37.534 31.0354 37.7098 31.1531C37.8855 31.2709 38.0066 31.445 38.0729 31.6755L37.4137 31.7974C37.3855 31.6946 37.3316 31.6158 37.252 31.5611C37.1741 31.5064 37.0622 31.479 36.9162 31.479C36.7322 31.479 36.6003 31.5047 36.5207 31.5561C36.4676 31.5926 36.4411 31.6399 36.4411 31.6979C36.4411 31.7476 36.4643 31.7899 36.5108 31.8248C36.5738 31.8712 36.791 31.9367 37.1625 32.0213C37.5356 32.1059 37.796 32.2095 37.9436 32.3322C38.0895 32.4566 38.1625 32.6299 38.1625 32.8521C38.1625 33.0942 38.0613 33.3024 37.859 33.4765C37.6567 33.6506 37.3574 33.7377 36.961 33.7377C36.6011 33.7377 36.3159 33.6647 36.1053 33.5188C35.8963 33.3728 35.7595 33.1747 35.6948 32.9243ZM39.4734 30.0312V31.372C39.699 31.1084 39.9684 30.9765 40.2819 30.9765C40.4427 30.9765 40.5878 31.0064 40.7172 31.0661C40.8465 31.1258 40.9436 31.202 41.0082 31.2949C41.0746 31.3878 41.1193 31.4906 41.1426 31.6034C41.1674 31.7161 41.1799 31.8911 41.1799 32.1282V33.678H40.4809V32.2825C40.4809 32.0055 40.4676 31.8297 40.4411 31.7551C40.4145 31.6805 40.3673 31.6216 40.2993 31.5785C40.233 31.5337 40.1492 31.5113 40.048 31.5113C39.932 31.5113 39.8283 31.5395 39.7371 31.5959C39.6459 31.6523 39.5787 31.7377 39.5356 31.8521C39.4942 31.9649 39.4734 32.1324 39.4734 32.3546V33.678H38.7744V30.0312H39.4734ZM41.8913 30.678V30.0312H42.5903V30.678H41.8913ZM41.8913 33.678V31.0362H42.5903V33.678H41.8913ZM43.257 31.0362H43.9012V31.3969C44.1317 31.1166 44.4062 30.9765 44.7246 30.9765C44.8938 30.9765 45.0405 31.0113 45.1649 31.081C45.2893 31.1506 45.3913 31.2559 45.4709 31.3969C45.587 31.2559 45.7122 31.1506 45.8465 31.081C45.9808 31.0113 46.1243 30.9765 46.2768 30.9765C46.4709 30.9765 46.635 31.0163 46.7694 31.0959C46.9037 31.1739 47.004 31.2891 47.0704 31.4417C47.1184 31.5545 47.1425 31.7369 47.1425 31.9889V33.678H46.4435V32.168C46.4435 31.906 46.4194 31.7369 46.3714 31.6606C46.3067 31.5611 46.2072 31.5113 46.0729 31.5113C45.975 31.5113 45.883 31.5412 45.7967 31.6009C45.7105 31.6606 45.6483 31.7485 45.6102 31.8646C45.572 31.979 45.553 32.1606 45.553 32.4093V33.678H44.854V32.2302C44.854 31.9732 44.8415 31.8074 44.8166 31.7327C44.7918 31.6581 44.7528 31.6025 44.6997 31.5661C44.6483 31.5296 44.5778 31.5113 44.4883 31.5113C44.3805 31.5113 44.2835 31.5404 44.1972 31.5984C44.111 31.6564 44.0488 31.7402 44.0107 31.8496C43.9742 31.9591 43.956 32.1407 43.956 32.3944V33.678H43.257V31.0362ZM49.5803 33.678V33.2825C49.4841 33.4234 49.3572 33.5345 49.1997 33.6158C49.0438 33.697 48.8788 33.7377 48.7047 33.7377C48.5272 33.7377 48.368 33.6987 48.2271 33.6208C48.0861 33.5428 47.9841 33.4334 47.9211 33.2924C47.8581 33.1514 47.8266 32.9566 47.8266 32.7078V31.0362H48.5256V32.2501C48.5256 32.6216 48.538 32.8496 48.5629 32.9342C48.5894 33.0171 48.6367 33.0835 48.7047 33.1332C48.7727 33.1813 48.8589 33.2053 48.9634 33.2053C49.0828 33.2053 49.1897 33.173 49.2843 33.1083C49.3788 33.042 49.4435 32.9607 49.4783 32.8646C49.5131 32.7667 49.5305 32.5287 49.5305 32.1506V31.0362H50.2295V33.678H49.5803ZM51.625 33.678H50.926V31.0362H51.5753V31.4118C51.6864 31.2344 51.7859 31.1175 51.8738 31.0611C51.9633 31.0047 52.0645 30.9765 52.1773 30.9765C52.3365 30.9765 52.4899 31.0205 52.6375 31.1084L52.421 31.7178C52.3033 31.6415 52.1939 31.6034 52.0927 31.6034C51.9949 31.6034 51.9119 31.6307 51.8439 31.6855C51.7759 31.7385 51.7221 31.8355 51.6823 31.9765C51.6441 32.1175 51.625 32.4127 51.625 32.8621V33.678ZM53.4633 31.8422L52.829 31.7277C52.9003 31.4724 53.023 31.2833 53.1972 31.1606C53.3713 31.0379 53.63 30.9765 53.9733 30.9765C54.285 30.9765 54.5172 31.0138 54.6698 31.0885C54.8224 31.1614 54.9293 31.2551 54.9907 31.3695C55.0537 31.4823 55.0852 31.6904 55.0852 31.9939L55.0777 32.8098C55.0777 33.042 55.0885 33.2136 55.1101 33.3247C55.1333 33.4342 55.1756 33.5519 55.2369 33.678H54.5454C54.5272 33.6315 54.5048 33.5627 54.4782 33.4715C54.4666 33.4301 54.4583 33.4027 54.4534 33.3894C54.334 33.5055 54.2063 33.5926 54.0703 33.6506C53.9343 33.7087 53.7892 33.7377 53.635 33.7377C53.363 33.7377 53.1482 33.6639 52.9907 33.5163C52.8348 33.3687 52.7569 33.1821 52.7569 32.9566C52.7569 32.8073 52.7925 32.6747 52.8638 32.5586C52.9351 32.4408 53.0346 32.3513 53.1623 32.2899C53.2917 32.2269 53.4774 32.1722 53.7195 32.1258C54.0462 32.0644 54.2726 32.0072 54.3986 31.9541V31.8845C54.3986 31.7501 54.3655 31.6548 54.2991 31.5984C54.2328 31.5404 54.1076 31.5113 53.9235 31.5113C53.7991 31.5113 53.7021 31.5362 53.6325 31.586C53.5628 31.6341 53.5064 31.7195 53.4633 31.8422ZM54.3986 32.4093C54.3091 32.4392 54.1673 32.4748 53.9733 32.5163C53.7792 32.5578 53.6524 32.5984 53.5927 32.6382C53.5015 32.7029 53.4559 32.785 53.4559 32.8845C53.4559 32.9823 53.4924 33.0669 53.5653 33.1382C53.6383 33.2095 53.7312 33.2451 53.8439 33.2451C53.97 33.2451 54.0902 33.2037 54.2046 33.1208C54.2892 33.0578 54.3447 32.9806 54.3713 32.8894C54.3895 32.8297 54.3986 32.7161 54.3986 32.5486V32.4093Z" fill="#273336"/>
<path d="M26.4697 26.1467V21.0884H28.1087C28.7298 21.0884 29.1347 21.1137 29.3233 21.1643C29.6131 21.2402 29.8558 21.4058 30.0513 21.6611C30.2469 21.9142 30.3446 22.242 30.3446 22.6445C30.3446 22.9551 30.2883 23.2161 30.1755 23.4278C30.0628 23.6394 29.9191 23.8062 29.7442 23.9281C29.5717 24.0477 29.3957 24.1271 29.2163 24.1662C28.9725 24.2145 28.6194 24.2386 28.157 24.2386H27.4911V26.1467H26.4697ZM27.4911 21.9441V23.3795H28.0501C28.4526 23.3795 28.7217 23.353 28.8575 23.3001C28.9932 23.2472 29.099 23.1644 29.1749 23.0517C29.2531 22.9389 29.2922 22.8078 29.2922 22.6583C29.2922 22.4743 29.2382 22.3225 29.1301 22.2029C29.0219 22.0832 28.8851 22.0085 28.7194 21.9786C28.5975 21.9556 28.3525 21.9441 27.9845 21.9441H27.4911ZM30.9519 24.2628C30.9519 23.9407 31.0313 23.629 31.19 23.3277C31.3487 23.0264 31.573 22.7963 31.8628 22.6376C32.155 22.4789 32.4805 22.3995 32.8393 22.3995C33.3937 22.3995 33.848 22.5801 34.2022 22.9412C34.5565 23.3001 34.7336 23.7544 34.7336 24.3042C34.7336 24.8586 34.5542 25.3186 34.1953 25.6844C33.8388 26.0478 33.3891 26.2295 32.8462 26.2295C32.5104 26.2295 32.1895 26.1536 31.8835 26.0018C31.5799 25.85 31.3487 25.628 31.19 25.3359C31.0313 25.0414 30.9519 24.6837 30.9519 24.2628ZM31.9456 24.3145C31.9456 24.678 32.0319 24.9563 32.2044 25.1495C32.3769 25.3428 32.5897 25.4394 32.8428 25.4394C33.0958 25.4394 33.3074 25.3428 33.4776 25.1495C33.6502 24.9563 33.7364 24.6757 33.7364 24.3076C33.7364 23.9488 33.6502 23.6727 33.4776 23.4795C33.3074 23.2863 33.0958 23.1897 32.8428 23.1897C32.5897 23.1897 32.3769 23.2863 32.2044 23.4795C32.0319 23.6727 31.9456 23.9511 31.9456 24.3145ZM35.4237 22.4823H36.3174V22.9827C36.6371 22.5939 37.0178 22.3995 37.4595 22.3995C37.6941 22.3995 37.8977 22.4478 38.0702 22.5444C38.2427 22.6411 38.3842 22.7871 38.4946 22.9827C38.6556 22.7871 38.8293 22.6411 39.0156 22.5444C39.202 22.4478 39.4009 22.3995 39.6126 22.3995C39.8817 22.3995 40.1094 22.4547 40.2957 22.5651C40.4821 22.6733 40.6212 22.8331 40.7133 23.0448C40.78 23.2012 40.8133 23.4542 40.8133 23.8039V26.1467H39.8437V24.0523C39.8437 23.6888 39.8104 23.4542 39.7437 23.3484C39.654 23.2104 39.5159 23.1414 39.3296 23.1414C39.1939 23.1414 39.0662 23.1828 38.9466 23.2656C38.827 23.3484 38.7407 23.4703 38.6878 23.6313C38.6349 23.7901 38.6085 24.0419 38.6085 24.387V26.1467H37.6389V24.1386C37.6389 23.782 37.6216 23.552 37.5871 23.4485C37.5526 23.345 37.4986 23.2679 37.425 23.2173C37.3537 23.1667 37.2559 23.1414 37.1317 23.1414C36.9822 23.1414 36.8476 23.1816 36.728 23.2621C36.6084 23.3427 36.5221 23.4588 36.4692 23.6106C36.4186 23.7625 36.3933 24.0143 36.3933 24.3663V26.1467H35.4237V22.4823ZM41.7553 22.4823H42.6593V23.0206C42.7766 22.8366 42.9354 22.6871 43.1355 22.572C43.3356 22.457 43.5576 22.3995 43.8014 22.3995C44.227 22.3995 44.5881 22.5663 44.8849 22.8998C45.1816 23.2334 45.33 23.6981 45.33 24.2938C45.33 24.9057 45.1805 25.3819 44.8814 25.7223C44.5824 26.0605 44.2201 26.2295 43.7945 26.2295C43.5921 26.2295 43.4081 26.1893 43.2424 26.1088C43.0791 26.0283 42.9066 25.8902 42.7249 25.6947V27.5407H41.7553V22.4823ZM42.7145 24.2524C42.7145 24.6642 42.7962 24.969 42.9595 25.1668C43.1228 25.3623 43.3218 25.4601 43.5564 25.4601C43.7819 25.4601 43.9693 25.3704 44.1189 25.191C44.2684 25.0092 44.3431 24.7125 44.3431 24.3007C44.3431 23.9166 44.2661 23.6313 44.112 23.445C43.9578 23.2587 43.7669 23.1655 43.5392 23.1655C43.3023 23.1655 43.1056 23.2575 42.9492 23.4416C42.7927 23.6233 42.7145 23.8936 42.7145 24.2524ZM48.2249 24.9805L49.191 25.1426C49.0668 25.4969 48.8701 25.7672 48.601 25.9535C48.3342 26.1375 47.9995 26.2295 47.5969 26.2295C46.9597 26.2295 46.4882 26.0214 46.1822 25.605C45.9407 25.2715 45.8199 24.8505 45.8199 24.3421C45.8199 23.7349 45.9787 23.2598 46.2961 22.9171C46.6135 22.572 47.0149 22.3995 47.5003 22.3995C48.0455 22.3995 48.4756 22.5801 48.7908 22.9412C49.1059 23.3001 49.2566 23.851 49.2428 24.594H46.8137C46.8206 24.8816 46.8988 25.1058 47.0483 25.2669C47.1978 25.4256 47.3841 25.5049 47.6073 25.5049C47.7591 25.5049 47.8868 25.4635 47.9903 25.3807C48.0938 25.2979 48.172 25.1645 48.2249 24.9805ZM48.2801 24.0005C48.2732 23.7199 48.2008 23.5071 48.0627 23.3622C47.9247 23.215 47.7568 23.1414 47.559 23.1414C47.3473 23.1414 47.1725 23.2184 47.0345 23.3726C46.8965 23.5267 46.8286 23.736 46.8309 24.0005H48.2801ZM50.0364 21.9855V21.0884H51.006V21.9855H50.0364ZM50.0364 26.1467V22.4823H51.006V26.1467H50.0364ZM52.7278 23.6003L51.8479 23.4416C51.9468 23.0873 52.117 22.8251 52.3586 22.6549C52.6001 22.4846 52.9589 22.3995 53.4351 22.3995C53.8676 22.3995 54.1896 22.4513 54.4012 22.5548C54.6129 22.656 54.7612 22.786 54.8464 22.9447C54.9338 23.1011 54.9775 23.3898 54.9775 23.8108L54.9671 24.9425C54.9671 25.2646 54.9821 25.5026 55.012 25.6568C55.0442 25.8086 55.1028 25.9719 55.1879 26.1467H54.2287C54.2034 26.0823 54.1724 25.9869 54.1356 25.8603C54.1195 25.8028 54.108 25.7649 54.1011 25.7465C53.9354 25.9075 53.7583 26.0283 53.5697 26.1088C53.3811 26.1893 53.1798 26.2295 52.9658 26.2295C52.5886 26.2295 52.2907 26.1272 52.0722 25.9224C51.856 25.7177 51.7478 25.4589 51.7478 25.1461C51.7478 24.9391 51.7973 24.755 51.8962 24.594C51.9951 24.4307 52.1331 24.3065 52.3103 24.2214C52.4897 24.134 52.7473 24.058 53.0832 23.9936C53.5363 23.9085 53.8503 23.8292 54.0251 23.7556V23.6589C54.0251 23.4726 53.9791 23.3404 53.8871 23.2621C53.7951 23.1816 53.6214 23.1414 53.3661 23.1414C53.1936 23.1414 53.059 23.1759 52.9624 23.2449C52.8658 23.3116 52.7876 23.4301 52.7278 23.6003ZM54.0251 24.387C53.9009 24.4284 53.7042 24.4779 53.4351 24.5354C53.166 24.5929 52.99 24.6492 52.9072 24.7044C52.7807 24.7941 52.7174 24.908 52.7174 25.046C52.7174 25.1817 52.768 25.2991 52.8692 25.398C52.9705 25.4969 53.0993 25.5463 53.2557 25.5463C53.4305 25.5463 53.5973 25.4888 53.756 25.3738C53.8733 25.2864 53.9504 25.1794 53.9872 25.0529C54.0125 24.9701 54.0251 24.8125 54.0251 24.5802V24.387Z" fill="#B20000"/>
</svg>
