<svg width="83" height="26" viewBox="0 0 83 26" fill="none" xmlns="http://www.w3.org/2000/svg">
<path fill-rule="evenodd" clip-rule="evenodd" d="M30.5693 3.69489C28.9952 3.91356 27.7474 4.67995 26.7858 6.0186C26.4494 6.48693 24.9894 9.48746 24.3587 11.0066C23.984 11.9091 23.8997 12.7875 24.1407 13.2759C24.3375 13.6744 24.8986 13.9603 25.7191 14.0802C26.1946 14.1497 31.7682 14.1486 32.6202 14.0789C33.6816 13.992 34.7363 13.7694 35.1839 13.5379C35.3322 13.4612 35.3641 13.4122 35.3641 13.2609C35.3641 13.0573 35.1996 11.5131 35.1752 11.4888C35.1668 11.4804 34.9252 11.4989 34.6384 11.5298C33.978 11.6011 29.249 11.7106 28.7678 11.6657C27.876 11.5826 27.7241 11.3635 28.0271 10.597C28.161 10.2582 28.9772 8.47302 29.4887 7.39977C29.9154 6.50456 30.3654 6.19143 31.3176 6.12708C31.8395 6.09177 36.2974 6.18522 36.9514 6.2452L37.2916 6.27635L38.0541 5.20637C38.4735 4.61792 38.8275 4.0951 38.8407 4.0446C38.8667 3.94527 38.7346 3.87592 38.3019 3.7619C38.1241 3.71501 37.0025 3.69267 34.394 3.68397C32.3819 3.67726 30.6608 3.68219 30.5693 3.69489ZM40.9248 3.97742C40.8464 4.15275 40.6955 4.48322 40.5893 4.71188C40.483 4.94053 40.1893 5.5766 39.9364 6.12536C39.6836 6.67412 39.3648 7.36008 39.2281 7.64971C39.0913 7.93933 38.8492 8.46315 38.69 8.81375C38.5308 9.16435 38.1444 9.99997 37.8312 10.6707C36.9715 12.5119 36.251 14.0795 36.251 14.1089C36.251 14.1233 37.018 14.1342 37.9555 14.1331L39.66 14.131L39.9619 13.454C40.128 13.0817 40.4053 12.4777 40.5781 12.1119C40.7508 11.746 41.0299 11.1474 41.1982 10.7815C41.3666 10.4157 41.6601 9.77963 41.8505 9.36806C42.0409 8.95649 42.3522 8.283 42.5424 7.87143C43.288 6.25712 43.9025 4.93443 44.1722 4.36316C44.3276 4.03412 44.4547 3.74106 44.4547 3.71185C44.4547 3.67909 43.8045 3.65869 42.761 3.65869H41.0673L40.9248 3.97742ZM45.8193 4.81708C45.5261 5.45426 45.2862 6.00269 45.2862 6.03589C45.2862 6.07813 45.9096 6.10069 47.3599 6.11084L49.4336 6.12536L48.881 7.31712C48.577 7.97259 48.1827 8.82068 48.0046 9.20177C47.8265 9.58285 47.5435 10.194 47.3757 10.5598C46.8298 11.75 46.7431 11.9366 46.4225 12.6108C46.2486 12.9766 46.0223 13.4696 45.9197 13.7063L45.7332 14.1367L47.4598 14.122L49.1866 14.1074L49.5051 13.4145C49.6803 13.0334 49.999 12.3475 50.2133 11.8902C50.5624 11.1453 51.3893 9.35925 52.5037 6.94296L52.8936 6.09764L55.0348 6.09576L57.1761 6.09382L57.3686 5.66617C57.4746 5.43092 57.6778 4.98903 57.8203 4.68416C58.0753 4.13883 58.257 3.72083 58.257 3.67964C58.257 3.66811 55.5784 3.65869 52.3047 3.65869H46.3524L45.8193 4.81708ZM60.08 4.83366C59.4584 5.47993 58.6381 6.33384 58.257 6.73133C57.8759 7.12882 57.2273 7.80242 56.8158 8.22824C56.4042 8.654 56.0051 9.06835 55.9289 9.14894C55.8527 9.22954 55.266 9.84188 54.6253 10.5097C53.9845 11.1775 52.9408 12.2664 52.306 12.9295L51.1517 14.1351H53.0336H54.9156L55.8438 13.1646L56.7722 12.194L59.5517 12.2084L62.3311 12.2227L62.3463 13.1789L62.3615 14.1351H64.2448H66.1281L66.1292 13.5115C66.1305 12.732 65.8601 4.47635 65.8178 4.00513L65.7867 3.65869H63.4985H61.2103L60.08 4.83366ZM72.0875 3.7557C72.066 3.80902 71.9407 4.1645 71.8089 4.54558C71.677 4.92667 71.4151 5.56274 71.2267 5.95907C71.0384 6.3554 70.69 7.10371 70.4526 7.62199C70.2152 8.14027 69.9157 8.78881 69.7872 9.06319C69.4182 9.85075 68.87 11.0326 68.7332 11.3359C68.6644 11.4883 68.3494 12.1712 68.0333 12.8536C67.7171 13.5359 67.4585 14.1034 67.4585 14.1146C67.4585 14.1259 68.2387 14.1351 69.1924 14.1351H70.9263L70.9876 13.9827C71.0916 13.724 71.9059 11.9647 72.0844 11.613L72.2532 11.2804L72.5581 11.2958C76.3171 11.485 77.7091 11.4608 78.6278 11.1902C79.3437 10.9794 79.9617 10.6149 80.492 10.0905C81.1208 9.46878 81.4946 8.87977 82.123 7.52022C82.814 6.02531 82.9408 5.62554 82.9155 5.02151C82.8978 4.60046 82.8799 4.53594 82.7283 4.34869C82.4743 4.0349 82.0887 3.84799 81.4866 3.74666C81.0398 3.67144 80.3237 3.65869 76.5453 3.65869C72.3888 3.65869 72.1242 3.66446 72.0875 3.7557ZM62.5237 7.87143L62.5197 9.75607H60.7112H58.9028L59.0138 9.63136C59.123 9.50869 59.9285 8.62662 61.0764 7.37255C61.9779 6.38777 62.377 5.98678 62.4557 5.98678C62.5134 5.98678 62.5269 6.35978 62.5237 7.87143ZM78.6522 6.14886C79.1436 6.24592 79.15 6.46526 78.6906 7.47698C78.3326 8.26554 78.074 8.63438 77.7484 8.82096C77.5199 8.95189 77.512 8.95238 75.4266 8.96923C74.1844 8.97927 73.3341 8.96552 73.3341 8.93537C73.3341 8.90748 73.4555 8.62545 73.6039 8.30872C73.7522 7.99199 73.9613 7.54577 74.0686 7.31712C74.1759 7.08847 74.3177 6.77667 74.3838 6.62424C74.6315 6.05275 74.4031 6.10806 76.5333 6.10391C77.5633 6.10186 78.5168 6.12209 78.6522 6.14886Z" fill="#034253"/>
<path fill-rule="evenodd" clip-rule="evenodd" d="M16.4323 10.1523L15.8918 11.0995L16.0437 11.6622C16.1271 11.9716 16.3268 12.6987 16.4873 13.278C16.8455 14.5707 17.253 16.0513 17.6239 17.4076C17.9963 18.7689 18.0827 19.083 18.3102 19.9019C18.4162 20.283 18.6296 21.0563 18.7847 21.6203C19.5141 24.2739 19.6696 24.8412 19.7919 25.2926C19.8641 25.5594 19.9384 25.7776 19.9569 25.7776C19.9754 25.7776 20.3744 25.0978 20.8435 24.2671C21.3126 23.4364 21.7885 22.5989 21.901 22.406L22.1056 22.0555L21.8956 21.2697C21.7801 20.8376 21.4932 19.7855 21.258 18.9319C21.0228 18.0783 20.7952 17.2475 20.7525 17.0858C20.7096 16.924 20.5734 16.4252 20.4498 15.9772C20.3262 15.5292 20.0991 14.7011 19.9453 14.1371C19.7914 13.5731 19.5344 12.6377 19.3741 12.0585C19.2139 11.4792 19.0404 10.8418 18.9886 10.642C18.9048 10.3185 18.8721 10.267 18.6899 10.1711C18.5773 10.1119 18.3106 9.96226 18.0972 9.83849C17.8838 9.71476 17.5435 9.52164 17.341 9.40928L16.9729 9.20508L16.4323 10.1523ZM12.9215 16.1809C12.9634 16.238 13.1416 16.4937 13.3177 16.7491C13.4938 17.0046 13.7103 17.3133 13.7988 17.4353C13.8874 17.5572 14.2493 18.0686 14.6031 18.5716C14.957 19.0746 15.4067 19.7107 15.6024 19.9851C15.9497 20.4718 16.3424 21.0288 16.8923 21.8143C18.5862 24.234 19.3669 25.3209 19.321 25.1956C19.2986 25.1346 19.2092 24.8103 19.1221 24.475C19.0351 24.1396 18.8721 23.541 18.7601 23.1446C18.6479 22.7483 18.5441 22.3741 18.5293 22.3132C18.5145 22.2522 18.3688 21.7159 18.2054 21.1214C18.042 20.5269 17.7823 19.5791 17.6283 19.015C17.1461 17.2485 16.9066 16.3922 16.8919 16.3823C16.8722 16.3688 13.077 16.0737 12.9492 16.0756C12.8578 16.0771 12.8545 16.0895 12.9215 16.1809Z" fill="#E17900"/>
<path fill-rule="evenodd" clip-rule="evenodd" d="M16.0621 4.30985L11.7524 8.61976V9.74207V10.8644H12.8516H13.9508L19.337 5.46259C22.2994 2.49156 24.7232 0.0470593 24.7232 0.0303746C24.7232 0.0136345 23.7441 0 22.5475 0H20.3716L16.0621 4.30985ZM21.2641 4.09655L17.9994 7.36165L18.1825 7.74113C18.2832 7.94982 18.4337 8.27027 18.517 8.45319C18.6003 8.63611 18.8237 9.11005 19.0134 9.50638C19.2032 9.90271 19.4436 10.4122 19.5478 10.6386C19.654 10.8698 19.7571 11.0278 19.7827 10.9989C19.8077 10.9707 20.1594 10.2367 20.5642 9.3678C20.9689 8.49892 21.4816 7.40139 21.7036 6.92884C21.9255 6.4563 22.1815 5.90753 22.2723 5.70937C22.3631 5.5112 22.7369 4.713 23.103 3.93558C23.4691 3.15817 23.8061 2.4348 23.8519 2.32809C23.8977 2.22139 24.0742 1.84097 24.244 1.48277C24.4138 1.12458 24.5474 0.831461 24.5408 0.831461C24.5343 0.831461 23.0598 2.30076 21.2641 4.09655Z" fill="#2576AC"/>
<path fill-rule="evenodd" clip-rule="evenodd" d="M10.6981 7.65868C8.16257 7.88484 3.24081 8.31 2.0648 8.40445C1.38643 8.45888 0.831517 8.51697 0.831628 8.53344C0.831738 8.54995 1.14974 8.64768 1.53837 8.75067C3.4351 9.25332 4.38829 9.5078 5.4045 9.78285C6.01424 9.94786 6.98705 10.2093 7.5663 10.3638C8.14555 10.5182 8.85296 10.7087 9.13826 10.787C9.42362 10.8652 9.67588 10.9083 9.69883 10.8827C9.77544 10.7973 11.973 7.59017 11.973 7.56384C11.973 7.54959 11.9544 7.54123 11.9315 7.54516C11.9086 7.54915 11.3536 7.6002 10.6981 7.65868ZM0 8.79717C0 8.8372 0.238519 9.28741 0.331365 9.4226C0.383692 9.49882 0.501704 9.69837 0.593608 9.86605C0.685512 10.0337 0.97924 10.5451 1.24636 11.0024C1.51343 11.4597 1.8255 11.9956 1.9398 12.1934L2.14761 12.5531L2.66744 12.7007C2.95335 12.7819 3.76098 13.0007 4.46218 13.187C5.16337 13.3732 6.21102 13.6527 6.79027 13.8082C7.36952 13.9636 8.3548 14.2279 8.97978 14.3955C9.60476 14.5631 10.5651 14.8213 11.1139 14.9692C13.2029 15.5323 13.7929 15.6863 13.8625 15.6863C13.9708 15.6863 15.8046 14.6253 15.7861 14.5734C15.7773 14.5486 15.5335 14.1169 15.2445 13.6141L14.7189 12.6998L14.0805 12.5288C13.7293 12.4347 12.9805 12.2346 12.4165 12.0841C11.8525 11.9336 10.9296 11.6868 10.3656 11.5357C9.80154 11.3845 8.80379 11.1187 8.14832 10.945C5.86191 10.339 3.4193 9.6864 1.60749 9.19744C0.484465 8.89435 0 8.77373 0 8.79717Z" fill="#49982B"/>
<path fill-rule="evenodd" clip-rule="evenodd" d="M73.668 17.0047C73.668 17.0189 73.6448 17.0305 73.6164 17.0305C73.5785 17.0305 73.5648 17.0477 73.5648 17.095C73.5648 17.1305 73.556 17.1595 73.5453 17.1595C73.5258 17.1595 73.4791 17.2559 73.4516 17.353C73.4435 17.3813 73.447 17.4206 73.4592 17.4401C73.4775 17.4692 73.502 17.4645 73.5941 17.4143C73.656 17.3806 73.7106 17.3442 73.7153 17.3336C73.72 17.323 73.7351 17.3143 73.7487 17.3143C73.7821 17.3143 73.9002 17.1945 73.9002 17.1606C73.9002 17.1458 73.9118 17.1337 73.926 17.1337C73.9643 17.1337 73.9572 17.058 73.915 17.0158C73.8734 16.9741 73.668 16.965 73.668 17.0047ZM55.2126 17.0942C55.1877 17.1283 55.1674 17.1686 55.1674 17.1837C55.1674 17.1987 55.1558 17.2111 55.1416 17.2111C55.1274 17.2111 55.1158 17.2575 55.1158 17.3143C55.1158 17.407 55.1223 17.4175 55.1801 17.4175C55.2164 17.4175 55.2584 17.395 55.2766 17.3659C55.2943 17.3375 55.3283 17.3143 55.3521 17.3143C55.3759 17.3143 55.4021 17.2998 55.4104 17.282C55.4224 17.2562 55.4285 17.2562 55.4405 17.282C55.4488 17.2998 55.4778 17.3143 55.505 17.3143C55.5322 17.3143 55.5545 17.3259 55.5545 17.3401C55.5545 17.3543 55.5709 17.3659 55.591 17.3659C55.6111 17.3659 55.6314 17.3763 55.6362 17.3892C55.6445 17.4118 55.7726 17.4288 55.877 17.4212C55.9595 17.4151 56.0705 17.3039 56.0705 17.2274C56.0705 17.19 56.0821 17.1595 56.0963 17.1595C56.1338 17.1595 56.1279 17.11 56.0853 17.0673C56.029 17.0111 55.9541 17.0233 55.9157 17.095C55.8925 17.1384 55.8592 17.1595 55.8141 17.1595C55.7772 17.1595 55.7044 17.1305 55.6521 17.095C55.5773 17.0441 55.5255 17.0307 55.4075 17.0313C55.2795 17.032 55.2512 17.0411 55.2126 17.0942ZM24.1783 17.6238C24.1783 17.638 24.1435 17.6496 24.1009 17.6496C24.0584 17.6496 24.0235 17.6613 24.0235 17.6754C24.0235 17.6896 24.0086 17.7012 23.9904 17.7012C23.952 17.7012 23.8665 17.8337 23.8322 17.9463C23.7984 18.0573 23.7835 18.7853 23.8137 18.8484C23.8276 18.8773 23.8457 18.9324 23.8541 18.971C23.8703 19.0458 23.9886 19.1717 24.0426 19.1717C24.0605 19.1717 24.0751 19.1807 24.0751 19.1917C24.0751 19.2395 24.3741 19.2749 24.7785 19.2749C25.2398 19.2749 25.5334 19.243 25.6684 19.1781C25.7472 19.1403 25.7806 19.0943 25.7293 19.0943C25.7166 19.0943 25.6879 19.0508 25.6655 18.9976C25.584 18.8044 25.6067 18.8113 25.1047 18.8285C24.8571 18.837 24.5996 18.8357 24.5326 18.8257L24.4106 18.8074V18.4331C24.4106 18.143 24.4189 18.0504 24.4474 18.0219C24.477 17.9923 24.589 17.985 25.0117 17.985H25.5392L25.5689 17.8339C25.6184 17.5822 25.6653 17.598 24.8723 17.598C24.4268 17.598 24.1783 17.6073 24.1783 17.6238ZM26.0002 17.6389C25.9916 17.6613 25.9845 18.0256 25.9845 18.4483C25.9845 19.0853 25.9909 19.2223 26.0216 19.2478C26.0492 19.2707 26.2862 19.2765 26.9459 19.2703C27.7499 19.2628 27.8374 19.2578 27.8783 19.2169C27.9031 19.192 27.911 19.1717 27.8958 19.1717C27.8806 19.1717 27.8681 19.1427 27.8681 19.1072C27.8681 19.0718 27.8565 19.0428 27.8423 19.0428C27.8281 19.0428 27.8165 19.0249 27.8165 19.0032C27.8165 18.9814 27.7978 18.9349 27.7749 18.9L27.7332 18.8364H27.1706C26.8612 18.8364 26.5897 18.8293 26.5672 18.8207C26.5397 18.8101 26.5264 18.7724 26.5264 18.7046V18.6042H27.0037H27.4811V18.4107V18.2172L27.0618 18.2168C26.5345 18.2164 26.5264 18.2144 26.5264 18.0852V17.985H27.1715H27.8165V17.8323C27.8165 17.5758 27.9034 17.598 26.9005 17.598C26.1176 17.598 26.0141 17.6027 26.0002 17.6389ZM28.1874 17.6787C28.1963 17.723 28.2036 18.1003 28.2036 18.5171V19.2749H28.4459C28.6431 19.2749 28.6912 19.2673 28.704 19.2341C28.7126 19.2117 28.7196 18.9969 28.7196 18.7569C28.7196 18.3861 28.7255 18.3204 28.7583 18.3204C28.7796 18.3204 28.797 18.3311 28.797 18.3441C28.797 18.3571 28.8406 18.4132 28.8938 18.4688C28.947 18.5244 29.0136 18.6008 29.0418 18.6386C29.07 18.6764 29.1023 18.7074 29.1135 18.7074C29.137 18.7074 29.3647 18.9306 29.3647 18.9536C29.3647 18.9621 29.3813 18.9856 29.4016 19.0059C29.4218 19.0262 29.4453 19.0428 29.4538 19.0428C29.4623 19.0428 29.5215 19.095 29.5854 19.1588C29.701 19.2744 29.7022 19.2749 29.8831 19.2749C30.1883 19.2749 30.1646 19.3478 30.1646 18.4098V17.598H29.8807H29.5969V18.0366C29.5969 18.2778 29.59 18.4752 29.5816 18.4752C29.5732 18.4752 29.4573 18.3649 29.324 18.2301C29.1907 18.0953 29.0699 17.985 29.0555 17.985C29.041 17.985 29.0293 17.9702 29.0293 17.952C29.0293 17.9339 29.006 17.9023 28.9776 17.8818C28.9493 17.8614 28.926 17.8306 28.926 17.8134C28.926 17.7962 28.9034 17.7749 28.8758 17.7661C28.8481 17.7574 28.8183 17.7276 28.8095 17.6999C28.8007 17.6723 28.7711 17.6496 28.7437 17.6496C28.7163 17.6496 28.6938 17.638 28.6938 17.6238C28.6938 17.6083 28.5895 17.598 28.4326 17.598H28.1713L28.1874 17.6787ZM30.371 17.7915V17.985H30.7064H31.0419V18.5931C31.0419 19.0931 31.0486 19.208 31.0797 19.2391C31.1087 19.2681 31.1734 19.2752 31.3571 19.2695L31.5966 19.262L31.6035 18.6235L31.6104 17.985H31.9454H32.2804V17.7915V17.598H31.3257H30.371V17.7915ZM32.5384 18.4098C32.5384 19.3502 32.513 19.2749 32.8313 19.2749C33.1175 19.2749 33.1061 19.2874 33.1061 18.9755V18.7074H33.2222C33.2861 18.7074 33.3383 18.719 33.3383 18.7332C33.3383 18.7474 33.3731 18.759 33.4157 18.759C33.4583 18.759 33.4931 18.7698 33.4931 18.783C33.4931 18.7963 33.5135 18.8136 33.5384 18.8215C33.5632 18.8293 33.6707 18.9182 33.777 19.0189C33.8834 19.1196 34.0096 19.2184 34.0575 19.2385C34.11 19.2605 34.234 19.2749 34.37 19.2749H34.5956L34.6404 19.1325C34.665 19.0542 34.6787 18.9732 34.6708 18.9526C34.6628 18.9319 34.6034 18.9017 34.5388 18.8854C34.4741 18.8691 34.4149 18.8456 34.4072 18.8332C34.3995 18.8208 34.3674 18.8106 34.3359 18.8106C34.3044 18.8106 34.2619 18.7874 34.2414 18.759C34.2209 18.7306 34.1836 18.7074 34.1583 18.7074C34.1296 18.7074 34.1124 18.6881 34.1124 18.6558C34.1124 18.6261 34.1296 18.6042 34.1529 18.6042C34.1993 18.6042 34.2672 18.5439 34.2672 18.5028C34.2672 18.4876 34.2767 18.4752 34.2882 18.4752C34.2998 18.4752 34.3288 18.4342 34.3527 18.384C34.405 18.2743 34.412 17.944 34.364 17.8513C34.3134 17.7538 34.1973 17.6496 34.1394 17.6496C34.1103 17.6496 34.0866 17.638 34.0866 17.6238C34.0866 17.6072 33.8114 17.598 33.3125 17.598H32.5384V18.4098ZM35.2219 17.6238C35.2219 17.638 35.1871 17.6496 35.1445 17.6496C35.1019 17.6496 35.0671 17.6613 35.0671 17.6754C35.0671 17.6896 35.0539 17.7012 35.0377 17.7012C34.998 17.7012 34.9399 17.7809 34.9389 17.8367C34.9384 17.8615 34.9265 17.8818 34.9123 17.8818C34.8959 17.8818 34.8865 18.0796 34.8865 18.4236C34.8865 18.7676 34.8959 18.9654 34.9123 18.9654C34.9265 18.9654 34.9381 18.9828 34.9381 19.0041C34.9381 19.0253 34.9489 19.0428 34.9622 19.0428C34.9754 19.0428 34.9931 19.0643 35.0014 19.0907C35.0175 19.1413 35.1401 19.2033 35.3122 19.2479C35.4406 19.2812 36.3333 19.2836 36.4141 19.2509C36.4467 19.2377 36.5031 19.2206 36.5394 19.2129C36.6394 19.1919 36.7352 19.0956 36.7943 18.9568C36.8405 18.8485 36.8474 18.779 36.8471 18.4279C36.8467 18.0303 36.8316 17.9333 36.7459 17.7792C36.6936 17.6851 36.6513 17.6496 36.5913 17.6496C36.5619 17.6496 36.5378 17.638 36.5378 17.6238C36.5378 17.6073 36.3013 17.598 35.8799 17.598C35.4584 17.598 35.2219 17.6073 35.2219 17.6238ZM37.8269 17.6303C37.8191 17.869 37.8338 19.2086 37.8447 19.2368C37.8656 19.2914 39.1746 19.2925 39.3542 19.238C39.597 19.1643 39.7374 19.0609 39.7374 18.9559C39.7374 18.9185 39.749 18.888 39.7632 18.888C39.7795 18.888 39.789 18.7117 39.789 18.4107C39.789 18.1097 39.7795 17.9334 39.7632 17.9334C39.749 17.9334 39.7374 17.9102 39.7374 17.8818C39.7374 17.8535 39.7258 17.8302 39.7116 17.8302C39.6974 17.8302 39.6858 17.8178 39.6858 17.8026C39.6858 17.7669 39.6201 17.7012 39.5844 17.7012C39.5692 17.7012 39.5568 17.6896 39.5568 17.6754C39.5568 17.6613 39.5219 17.6496 39.4794 17.6496C39.4368 17.6496 39.402 17.638 39.402 17.6238C39.402 17.5826 37.8283 17.589 37.8269 17.6303ZM40.1244 18.4063V19.2146L40.1842 19.2466C40.26 19.2871 42.0163 19.2771 42.0574 19.2359C42.075 19.2183 42.0529 19.149 41.9894 19.0231L41.8953 18.8364H41.3345C41.0261 18.8364 40.7554 18.8293 40.7329 18.8207C40.7054 18.8101 40.6921 18.7724 40.6921 18.7046V18.6042H41.1533H41.6145L41.6271 18.5332C41.634 18.4942 41.6369 18.4275 41.6336 18.3849C41.6303 18.3423 41.6262 18.2872 41.6243 18.2624C41.6213 18.2213 41.5823 18.2172 41.1974 18.2172C40.9644 18.2172 40.7554 18.2102 40.7329 18.2015C40.7054 18.191 40.6921 18.1532 40.6921 18.0855V17.985H41.3243H41.9564V17.7915V17.598H41.0404H40.1244V18.4063ZM42.9111 18.4208C42.9111 19.1473 42.9159 19.2454 42.9519 19.2593C43.0194 19.2852 43.3753 19.2769 43.4289 19.2482C43.4766 19.2227 43.4788 19.1859 43.4788 18.4098V17.598H43.195H42.9111V18.4208ZM43.8658 17.6496C43.8658 17.678 43.8774 17.7012 43.8916 17.7012C43.9083 17.7012 43.9174 17.9807 43.9174 18.4881V19.2749H44.1617C44.3767 19.2749 44.4091 19.269 44.4326 19.225C44.4477 19.1968 44.4593 19.001 44.4593 18.7736C44.4593 18.5114 44.4687 18.372 44.4863 18.372C44.5144 18.372 44.6399 18.4876 44.6399 18.5136C44.6399 18.5329 44.8142 18.7074 44.8334 18.7074C44.8531 18.7074 45.0269 18.8821 45.0269 18.9018C45.0269 18.9104 45.0435 18.934 45.0638 18.9543C45.0841 18.9746 45.1077 18.9912 45.1163 18.9912C45.1406 18.9912 45.3108 19.1673 45.3108 19.1925C45.3108 19.2606 45.7308 19.3105 45.8212 19.2532C45.8467 19.237 45.8542 19.0615 45.8544 18.4732C45.8545 18.0557 45.8542 17.688 45.8536 17.6561C45.8527 17.5996 45.8452 17.598 45.5817 17.598H45.3108V18.0366C45.3108 18.2778 45.302 18.4752 45.2912 18.4752C45.2805 18.4752 45.2358 18.4374 45.1919 18.3913C45.148 18.3452 45.07 18.2727 45.0185 18.2301C44.967 18.1875 44.9246 18.1435 44.9243 18.1322C44.9237 18.1097 44.805 17.985 44.7842 17.985C44.7677 17.985 44.6399 17.8577 44.6399 17.8413C44.6399 17.8345 44.588 17.7769 44.5245 17.7135L44.409 17.598H44.1374C43.883 17.598 43.8658 17.6013 43.8658 17.6496ZM46.5751 17.6238C46.5751 17.638 46.5453 17.6496 46.5088 17.6496C46.4407 17.6496 46.3687 17.7018 46.3687 17.751C46.3687 17.7662 46.36 17.7787 46.3493 17.7788C46.3387 17.7789 46.3133 17.8109 46.293 17.8498C46.2666 17.9001 46.253 18.0439 46.2457 18.3485C46.2353 18.7846 46.2563 18.9525 46.3307 19.0269C46.3516 19.0478 46.3687 19.0805 46.3687 19.0995C46.3687 19.1378 46.4934 19.2085 46.6138 19.2385C46.7533 19.2732 47.6886 19.2806 47.8007 19.2478C47.9893 19.1928 48.0969 19.1347 48.0972 19.0879C48.0973 19.0631 48.1062 19.0428 48.117 19.0428C48.1277 19.0428 48.151 18.9965 48.1686 18.94C48.2081 18.8133 48.2135 17.9444 48.1749 17.9205C48.1607 17.9118 48.1491 17.8821 48.1491 17.8545C48.1491 17.827 48.1375 17.8044 48.1233 17.8044C48.1091 17.8044 48.0975 17.7812 48.0975 17.7528C48.0975 17.7242 48.0803 17.7012 48.0588 17.7012C48.0375 17.7012 48.0201 17.6896 48.0201 17.6754C48.0201 17.6613 47.9852 17.6496 47.9427 17.6496C47.9001 17.6496 47.8653 17.638 47.8653 17.6238C47.8653 17.6073 47.633 17.598 47.2202 17.598C46.8073 17.598 46.5751 17.6073 46.5751 17.6238ZM48.3179 17.6432C48.3286 17.668 48.3501 17.7261 48.3656 17.7722C48.3812 17.8183 48.4027 17.856 48.4134 17.856C48.4241 17.856 48.4329 17.8851 48.4329 17.9205C48.4329 17.956 48.4445 17.985 48.4587 17.985C48.4729 17.985 48.4845 18.0082 48.4845 18.0366C48.4845 18.065 48.4961 18.0882 48.5103 18.0882C48.5245 18.0882 48.5361 18.1041 48.5361 18.1235C48.5361 18.1429 48.5768 18.2381 48.6264 18.3351C48.6761 18.4321 48.7167 18.5323 48.7167 18.5578C48.7167 18.5833 48.7284 18.6042 48.7425 18.6042C48.7567 18.6042 48.7683 18.6274 48.7683 18.6558C48.7683 18.6842 48.78 18.7074 48.7941 18.7074C48.8083 18.7074 48.82 18.7364 48.82 18.7719C48.82 18.8073 48.8287 18.8365 48.8393 18.8366C48.8625 18.8368 48.9232 18.9617 48.9232 19.0092C48.9232 19.0277 48.9348 19.0428 48.949 19.0428C48.9632 19.0428 48.9748 19.0592 48.9748 19.0794C48.9748 19.0995 48.9951 19.1517 49.0199 19.1953L49.0651 19.2746L49.37 19.2748C49.6983 19.2749 49.7747 19.254 49.7747 19.1636C49.7747 19.1318 49.7979 19.089 49.8263 19.0686C49.8566 19.0467 49.8779 19.0018 49.8779 18.9597C49.8779 18.9202 49.8895 18.888 49.9037 18.888C49.9179 18.888 49.9295 18.877 49.9295 18.8635C49.9295 18.8265 50.1189 18.4378 50.1418 18.4279C50.1527 18.4232 50.1617 18.3912 50.1617 18.357C50.1617 18.3227 50.1733 18.2946 50.1875 18.2946C50.2017 18.2946 50.2133 18.2714 50.2133 18.243C50.2133 18.2146 50.2249 18.1914 50.2391 18.1914C50.2533 18.1914 50.2649 18.1743 50.2649 18.1534C50.2649 18.1324 50.3055 18.04 50.3552 17.9481C50.41 17.8467 50.4455 17.7448 50.4455 17.6894V17.598H50.1617C49.8951 17.598 49.8779 17.6012 49.8779 17.6496C49.8779 17.678 49.8663 17.7012 49.8521 17.7012C49.8379 17.7012 49.8263 17.7188 49.8263 17.7403C49.8263 17.7618 49.8161 17.7995 49.8036 17.8241C49.7911 17.8488 49.7476 17.9444 49.7068 18.0366C49.6661 18.1288 49.6259 18.2101 49.6176 18.2172C49.6093 18.2243 49.5864 18.2853 49.5668 18.3526C49.5472 18.42 49.5221 18.4752 49.511 18.4752C49.4999 18.4752 49.4908 18.5042 49.4908 18.5397C49.4908 18.5752 49.4792 18.6042 49.465 18.6042C49.4508 18.6042 49.4392 18.6383 49.4392 18.6801C49.4392 18.8423 49.3559 18.7982 49.3119 18.6127C49.2945 18.5394 49.2641 18.4581 49.2445 18.4321C49.2247 18.4062 49.2083 18.3588 49.2078 18.3268C49.2074 18.2949 49.1954 18.2688 49.1812 18.2688C49.167 18.2688 49.1554 18.2398 49.1554 18.2043C49.1554 18.1688 49.1438 18.1398 49.1296 18.1398C49.1154 18.1398 49.1038 18.1166 49.1038 18.0882C49.1038 18.0598 49.0922 18.0366 49.078 18.0366C49.0638 18.0366 49.0522 18.0193 49.0522 17.9982C49.0522 17.977 49.0158 17.8783 48.9713 17.7789L48.8904 17.598H48.5944C48.3222 17.598 48.2999 17.6017 48.3179 17.6432ZM50.968 17.6366C50.9503 17.6568 50.9358 17.6912 50.9358 17.7131C50.9358 17.7349 50.9242 17.7528 50.91 17.7528C50.8958 17.7528 50.8842 17.7751 50.8842 17.8023C50.8842 17.8295 50.8754 17.8556 50.8648 17.8603C50.8542 17.8651 50.799 17.9618 50.7423 18.0753C50.6855 18.1888 50.6303 18.2856 50.6197 18.2903C50.6091 18.295 50.6003 18.327 50.6003 18.3612C50.6003 18.3955 50.5887 18.4236 50.5745 18.4236C50.5603 18.4236 50.5487 18.441 50.5487 18.4623C50.5487 18.4836 50.5371 18.501 50.5229 18.501C50.5087 18.501 50.4971 18.5242 50.4971 18.5526C50.4971 18.581 50.4855 18.6042 50.4713 18.6042C50.4571 18.6042 50.4454 18.6245 50.4452 18.6493C50.445 18.6742 50.416 18.745 50.3807 18.8068C50.3454 18.8685 50.3165 18.9353 50.3165 18.9551C50.3165 18.9749 50.3049 18.9912 50.2907 18.9912C50.2765 18.9912 50.2649 19.0144 50.2649 19.0428C50.2649 19.0711 50.2533 19.0943 50.2391 19.0943C50.2249 19.0943 50.2133 19.1354 50.2133 19.1855V19.2767L50.4859 19.2694L50.7585 19.262L50.802 19.1846C50.8259 19.1421 50.8542 19.1034 50.8648 19.0987C50.8754 19.0939 50.8842 19.0728 50.8842 19.0517C50.8842 18.9535 50.9445 18.9396 51.3694 18.9396H51.781L51.8131 19.017C51.8307 19.0595 51.8553 19.0943 51.8678 19.0943C51.8803 19.0943 51.8905 19.1176 51.8905 19.1459C51.8905 19.1743 51.9021 19.1975 51.9163 19.1975C51.9305 19.1975 51.9421 19.2153 51.9421 19.2371C51.9421 19.2707 51.9842 19.2756 52.2195 19.2694L52.4968 19.262L52.5049 19.1782C52.5094 19.1321 52.5018 19.0943 52.4881 19.0943C52.4744 19.0943 52.4418 19.0422 52.4155 18.9784C52.3893 18.9146 52.3591 18.8623 52.3485 18.8623C52.3378 18.8622 52.3291 18.8389 52.3291 18.8106C52.3291 18.7822 52.3175 18.759 52.3033 18.759C52.2891 18.759 52.2775 18.7358 52.2775 18.7074C52.2775 18.679 52.2659 18.6558 52.2517 18.6558C52.2375 18.6558 52.2259 18.6326 52.2259 18.6042C52.2259 18.5758 52.2143 18.5526 52.2001 18.5526C52.1859 18.5526 52.1743 18.5236 52.1743 18.4881C52.1743 18.4526 52.1627 18.4236 52.1485 18.4236C52.1343 18.4236 52.1227 18.4071 52.1227 18.387C52.1227 18.341 52.039 18.1918 52.013 18.1916C52.0024 18.1915 51.9937 18.1682 51.9937 18.1398C51.9937 18.1114 51.9821 18.0882 51.9679 18.0882C51.9537 18.0882 51.9421 18.065 51.9421 18.0366C51.9421 18.0082 51.9305 17.985 51.9163 17.985C51.9021 17.985 51.8905 17.9618 51.8905 17.9334C51.8905 17.905 51.8789 17.8818 51.8647 17.8818C51.8505 17.8818 51.8389 17.8673 51.8389 17.8496C51.839 17.8319 51.8129 17.768 51.7809 17.7077L51.7228 17.598L51.3616 17.599C51.0828 17.5998 50.9929 17.6084 50.968 17.6366ZM52.9484 17.6238C52.9484 17.638 52.9252 17.6496 52.8968 17.6496C52.8684 17.6496 52.8452 17.6613 52.8452 17.6754C52.8452 17.6896 52.8327 17.7012 52.8175 17.7012C52.772 17.7012 52.7162 17.7713 52.7162 17.8284C52.7162 17.8578 52.7046 17.8818 52.6904 17.8818C52.674 17.8818 52.6646 18.0839 52.6646 18.4365C52.6646 18.7891 52.674 18.9912 52.6904 18.9912C52.7046 18.9912 52.7162 19.0094 52.7162 19.0317C52.7162 19.1636 53.0119 19.2749 53.3625 19.2749C53.4649 19.2749 53.5419 19.286 53.5419 19.3007C53.5419 19.3149 53.5321 19.3265 53.5202 19.3265C53.5025 19.3265 53.4386 19.436 53.4386 19.4662C53.4386 19.4708 53.4848 19.4807 53.5412 19.4883C53.6724 19.5059 53.7311 19.5578 53.6769 19.6084C53.6469 19.6364 53.6092 19.6383 53.4939 19.6173C53.4139 19.6029 53.334 19.5966 53.3162 19.6034C53.2779 19.6181 53.2722 19.7135 53.3096 19.7135C53.3238 19.7135 53.3354 19.735 53.3354 19.7612C53.3354 19.8125 53.4799 19.8891 53.5935 19.8979C53.6793 19.9046 53.8257 19.8676 53.8257 19.8393C53.8257 19.8269 53.8412 19.8167 53.8602 19.8167C53.9059 19.8167 53.9547 19.706 53.9547 19.6027C53.9546 19.5031 53.856 19.3781 53.7775 19.3781C53.7408 19.3781 53.7225 19.362 53.7225 19.3296C53.7225 19.2867 53.7501 19.2794 53.9611 19.266C54.4096 19.2377 54.5799 19.1873 54.5546 19.0903C54.5477 19.0642 54.5319 19.0428 54.5193 19.0428C54.5068 19.0428 54.4965 19.0224 54.4965 18.9976C54.4965 18.9728 54.4704 18.9225 54.4385 18.8859L54.3804 18.8193L53.8216 18.8214C53.5142 18.8225 53.2529 18.8138 53.241 18.802C53.2291 18.7902 53.2193 18.6211 53.2193 18.4261C53.2193 18.1287 53.2263 18.0647 53.2626 18.0284C53.3003 17.9907 53.3725 17.985 53.8128 17.985C54.3703 17.985 54.3933 17.9789 54.3933 17.8321C54.3933 17.7885 54.405 17.7528 54.4191 17.7528C54.4575 17.7528 54.4504 17.6772 54.4081 17.6349C54.3779 17.6048 54.242 17.598 53.6598 17.598C53.2027 17.598 52.9484 17.6073 52.9484 17.6238ZM55.3997 17.6496C55.3997 17.678 55.3904 17.7012 55.3791 17.7012C55.3679 17.7012 55.3371 17.7535 55.3107 17.8173C55.2844 17.8812 55.253 17.9334 55.2409 17.9334C55.2289 17.9334 55.219 17.9566 55.219 17.985C55.219 18.0134 55.2074 18.0366 55.1932 18.0366C55.179 18.0366 55.1674 18.0598 55.1674 18.0882C55.1674 18.1166 55.1558 18.1398 55.1416 18.1398C55.1274 18.1398 55.1158 18.1688 55.1158 18.2043C55.1158 18.2398 55.1042 18.2688 55.09 18.2688C55.0758 18.2688 55.0642 18.292 55.0642 18.3204C55.0642 18.3488 55.0526 18.372 55.0384 18.372C55.0242 18.372 55.0126 18.3879 55.0126 18.4074C55.0126 18.4498 54.8822 18.6908 54.8527 18.7031C54.8413 18.7078 54.832 18.7397 54.832 18.774C54.832 18.8083 54.8204 18.8364 54.8062 18.8364C54.792 18.8364 54.7804 18.8596 54.7804 18.888C54.7804 18.9163 54.7688 18.9396 54.7546 18.9396C54.7404 18.9396 54.7288 18.9628 54.7288 18.9912C54.7288 19.0195 54.7172 19.0428 54.703 19.0428C54.6888 19.0428 54.6772 19.066 54.6772 19.0943C54.6772 19.1227 54.6656 19.1459 54.6514 19.1459C54.6372 19.1459 54.6256 19.1757 54.6256 19.2122V19.2784L54.89 19.2726C55.0355 19.2694 55.1676 19.2621 55.1836 19.2564C55.1995 19.2507 55.2332 19.2004 55.2584 19.1444C55.2836 19.0885 55.3141 19.0428 55.3262 19.0428C55.3382 19.0428 55.348 19.0195 55.348 18.9912C55.348 18.9416 55.3653 18.9396 55.7819 18.9396H56.2158L56.2893 19.0932C56.3297 19.1777 56.3804 19.2536 56.4019 19.2619C56.4234 19.2701 56.555 19.2751 56.6944 19.2729C56.9227 19.2693 56.9478 19.2642 56.9478 19.221C56.9478 19.1673 56.8423 18.9314 56.8123 18.9181C56.8017 18.9133 56.793 18.8814 56.793 18.8471C56.793 18.8128 56.7814 18.7848 56.7672 18.7848C56.753 18.7848 56.7414 18.7567 56.7414 18.7224C56.7414 18.6881 56.7315 18.6562 56.7195 18.6515C56.6884 18.6392 56.5608 18.4034 56.5608 18.3582C56.5608 18.3374 56.5492 18.3204 56.535 18.3204C56.5208 18.3204 56.5092 18.2972 56.5092 18.2688C56.5092 18.2404 56.4976 18.2172 56.4834 18.2172C56.4692 18.2172 56.4576 18.195 56.4576 18.1678C56.4576 18.1406 56.4488 18.1145 56.4382 18.1097C56.4137 18.0988 56.2253 17.7354 56.2253 17.6989C56.2253 17.6145 56.1521 17.598 55.7756 17.598C55.4169 17.598 55.3997 17.6004 55.3997 17.6496ZM57.4123 17.6238C57.4123 17.638 57.3832 17.6496 57.3478 17.6496C57.3123 17.6496 57.2833 17.6605 57.2833 17.6737C57.2833 17.6869 57.26 17.7051 57.2316 17.7141C57.2033 17.7231 57.18 17.7471 57.18 17.7675C57.18 17.7878 57.1684 17.8044 57.1542 17.8044C57.14 17.8044 57.1284 17.8451 57.1284 17.8947C57.1284 17.9444 57.1168 17.985 57.1026 17.985C57.0865 17.985 57.0768 18.1479 57.0768 18.4221C57.0768 18.6856 57.0871 18.8654 57.1026 18.8751C57.1168 18.8838 57.1284 18.9207 57.1284 18.9569C57.1284 19.0463 57.2811 19.1825 57.4393 19.2342C57.5968 19.2857 58.4697 19.2905 58.6508 19.2408C58.842 19.1884 58.9604 19.1085 58.9604 19.0317C58.9604 19.0094 58.9708 18.9912 58.9834 18.9912C59.0432 18.9912 59.0857 18.2604 59.0389 18.0366C58.9897 17.8013 58.8886 17.6496 58.781 17.6496C58.7519 17.6496 58.7282 17.638 58.7282 17.6238C58.7282 17.6073 58.4917 17.598 58.0702 17.598C57.6488 17.598 57.4123 17.6073 57.4123 17.6238ZM59.8635 17.7915V17.985H60.1861H60.5086V18.5892C60.5086 18.9214 60.5156 19.2117 60.5243 19.2341C60.5461 19.2912 61.0246 19.2952 61.0246 19.2384C61.0246 19.2183 61.0392 19.196 61.0569 19.1888C61.0827 19.1784 61.0827 19.1754 61.0569 19.1738C61.0322 19.1722 61.0246 19.0507 61.0246 18.6579C61.0246 18.271 61.0326 18.1409 61.0569 18.1311C61.0827 18.1207 61.0827 18.1177 61.0569 18.1161C61.0138 18.1133 61.0161 18.0673 61.0615 18.0219C61.0895 17.9938 61.176 17.985 61.4228 17.985H61.7471V17.7915V17.598H60.8053H59.8635V17.7915ZM61.9793 18.3996C61.9793 19.06 61.9858 19.2077 62.0162 19.2381C62.0468 19.2686 62.1979 19.2745 62.9 19.2724C63.3657 19.2709 63.7758 19.2617 63.8112 19.2519C63.8883 19.2304 63.9064 19.1673 63.8513 19.1122C63.8293 19.0902 63.8113 19.0424 63.8113 19.0059C63.8113 18.9694 63.7997 18.9396 63.7855 18.9396C63.7714 18.9396 63.7597 18.9234 63.7597 18.9036C63.7597 18.8839 63.7414 18.8606 63.7189 18.852C63.6965 18.8434 63.4255 18.8364 63.1169 18.8364C62.8082 18.8364 62.5504 18.8312 62.544 18.8248C62.5377 18.8185 62.537 18.7662 62.5425 18.7087L62.5524 18.6042H63.0142H63.4759V18.4113V18.2184L63.0179 18.2113L62.5599 18.2043L62.552 18.0947L62.544 17.985H63.1408C63.8182 17.985 63.8113 17.987 63.8113 17.7915C63.8113 17.5903 63.8494 17.598 62.8585 17.598H61.9793V18.3996ZM64.4822 17.6238C64.4822 17.638 64.4474 17.6496 64.4048 17.6496C64.3622 17.6496 64.3274 17.6613 64.3274 17.6754C64.3274 17.6896 64.31 17.7012 64.2887 17.7012C64.2674 17.7012 64.25 17.7187 64.25 17.7399C64.25 17.7612 64.2384 17.7786 64.2242 17.7786C64.21 17.7786 64.1984 17.8019 64.1984 17.8302C64.1984 17.8586 64.1868 17.8818 64.1726 17.8818C64.1562 17.8818 64.1468 18.0839 64.1468 18.4365C64.1468 18.7891 64.1562 18.9912 64.1726 18.9912C64.1868 18.9912 64.1986 19.0115 64.1989 19.0363C64.1997 19.0982 64.3664 19.2091 64.513 19.2452C64.7831 19.3116 65.8155 19.2662 65.9852 19.1805C66.0659 19.1397 66.0726 19.1145 66.0175 19.0593C65.9962 19.0381 65.9788 19.0024 65.9788 18.9801C65.9788 18.9578 65.9672 18.9396 65.953 18.9396C65.9388 18.9396 65.9272 18.9163 65.9272 18.888C65.9272 18.8253 65.9795 18.8305 65.3037 18.8266C64.9963 18.8249 64.7351 18.8138 64.7232 18.802C64.7113 18.7901 64.7015 18.621 64.7015 18.426C64.7015 18.1286 64.7085 18.0647 64.7449 18.0283C64.7827 17.9905 64.8573 17.985 65.3319 17.985H65.8756V17.8689C65.8756 17.8051 65.8872 17.7528 65.9014 17.7528C65.9397 17.7528 65.9326 17.6772 65.8903 17.6349C65.8602 17.6048 65.7276 17.598 65.1678 17.598C64.728 17.598 64.4822 17.6073 64.4822 17.6238ZM66.3142 18.4098C66.3142 19.1859 66.3164 19.2227 66.3641 19.2482C66.4177 19.2769 66.7736 19.2852 66.841 19.2593C66.8762 19.2458 66.8819 19.1791 66.8819 18.782C66.8819 18.5281 66.8885 18.3204 66.8966 18.3204C66.9161 18.3204 66.9851 18.3899 66.9851 18.4095C66.9851 18.4291 67.2588 18.7178 67.4297 18.8785C67.4619 18.9089 67.5257 18.9727 67.5716 19.0204C67.8067 19.2654 67.7989 19.2611 68.0216 19.2712C68.2093 19.2798 68.2323 19.2754 68.2825 19.2215C68.3192 19.182 68.3272 19.159 68.3064 19.152C68.2607 19.1368 68.2616 17.7101 68.3072 17.6949C68.3305 17.6871 68.3275 17.6725 68.2962 17.6411C68.262 17.6069 68.2025 17.598 68.0066 17.598C67.7102 17.598 67.731 17.5592 67.7399 18.0947C67.7453 18.4188 67.7405 18.4751 67.7076 18.4744C67.6863 18.474 67.6398 18.4378 67.6043 18.3941C67.5689 18.3503 67.4886 18.2665 67.426 18.2078C67.3634 18.1491 67.2879 18.0738 67.2583 18.0405C67.2286 18.0071 67.1551 17.9273 67.0947 17.8629C67.0344 17.7987 66.9851 17.7413 66.9851 17.7354C66.9851 17.7295 66.9566 17.6962 66.9217 17.6614C66.8625 17.6021 66.8408 17.598 66.5863 17.598H66.3142V18.4098ZM68.9977 17.6238C68.9977 17.638 68.9733 17.6496 68.9435 17.6496C68.8582 17.6496 68.7139 17.8102 68.7139 17.905C68.7139 17.949 68.7022 17.985 68.6881 17.985C68.6719 17.985 68.6623 18.1484 68.6623 18.4236C68.6623 18.6988 68.6719 18.8622 68.6881 18.8622C68.7022 18.8622 68.7139 18.8983 68.7139 18.9425C68.7139 19.0516 68.8603 19.1839 69.0384 19.2357C69.2229 19.2893 70.0664 19.2907 70.2413 19.2376C70.4539 19.1731 70.5096 19.1333 70.5877 18.9899C70.6303 18.9116 70.6362 18.8416 70.6362 18.4107C70.6362 17.9637 70.6316 17.9137 70.5846 17.8431C70.5025 17.7198 70.4233 17.6496 70.3664 17.6496C70.3374 17.6496 70.3136 17.638 70.3136 17.6238C70.3136 17.6073 70.0771 17.598 69.6557 17.598C69.2342 17.598 68.9977 17.6073 68.9977 17.6238ZM71.0619 18.3321C71.0619 18.8292 71.0524 19.0871 71.0323 19.1311C71.0092 19.1818 71.0103 19.2051 71.0371 19.2374C71.0675 19.2741 71.1628 19.2778 71.8782 19.2704C72.4728 19.2642 72.6933 19.2537 72.7167 19.2303C72.7417 19.2052 72.7355 19.171 72.6866 19.0666C72.5749 18.8283 72.6013 18.8385 72.0786 18.8305L71.6167 18.8235L71.6026 18.2172C71.5948 17.8838 71.5861 17.6081 71.5832 17.6045C71.5803 17.6009 71.4618 17.598 71.3199 17.598H71.0619V18.3321ZM73.2293 17.6238C73.2293 17.638 73.1995 17.6496 73.163 17.6496C73.1265 17.6496 73.0828 17.6642 73.0659 17.6819C72.9988 17.7522 72.9455 17.8575 72.9455 17.9196C72.9455 17.9556 72.9339 17.985 72.9197 17.985C72.8863 17.985 72.8849 18.7946 72.9182 18.8561C72.9315 18.8807 72.9491 18.9329 72.9574 18.9721C72.9759 19.0596 73.1117 19.1938 73.2016 19.2132C73.2381 19.2211 73.3017 19.2383 73.3428 19.2513C73.5311 19.3108 74.5461 19.264 74.6356 19.1916C74.8515 19.0171 74.8549 19.0052 74.855 18.4184C74.855 17.9516 74.8514 17.9137 74.797 17.8109C74.765 17.7506 74.7243 17.7012 74.7066 17.7012C74.6888 17.7012 74.6743 17.6896 74.6743 17.6754C74.6743 17.6613 74.6511 17.6496 74.6227 17.6496C74.5943 17.6496 74.5711 17.638 74.5711 17.6238C74.5711 17.6073 74.3303 17.598 73.9002 17.598C73.4702 17.598 73.2293 17.6073 73.2293 17.6238ZM75.5774 17.6238C75.5774 17.638 75.5426 17.6496 75.5 17.6496C75.4574 17.6496 75.4226 17.6613 75.4226 17.6754C75.4226 17.6896 75.4101 17.7012 75.3949 17.7012C75.3494 17.7012 75.2936 17.7713 75.2936 17.8284C75.2936 17.8578 75.282 17.8818 75.2678 17.8818C75.2514 17.8818 75.242 18.0796 75.242 18.4236C75.242 18.7676 75.2514 18.9654 75.2678 18.9654C75.282 18.9654 75.2936 18.9901 75.2936 19.0204C75.2936 19.1113 75.3701 19.1624 75.6308 19.2455C75.7538 19.2848 76.8873 19.2805 77.0582 19.2402L77.1844 19.2104L77.1792 18.7763C77.1763 18.5375 77.1676 18.3256 77.1599 18.3055C77.1484 18.2756 77.0559 18.2688 76.6583 18.2688H76.1708L76.1712 18.4558C76.1715 18.5587 76.1829 18.6603 76.1967 18.6816C76.2133 18.7074 76.2218 18.7095 76.2221 18.688C76.2224 18.6649 76.2815 18.6558 76.4305 18.6558H76.6386L76.6305 18.7396L76.6224 18.8235H76.231C76.0158 18.8235 75.83 18.8138 75.8182 18.8019C75.8064 18.7901 75.7967 18.6209 75.7967 18.426C75.7967 18.1286 75.8037 18.0646 75.84 18.0283C75.8781 17.9903 75.9558 17.985 76.4786 17.985H77.0739V17.8962C77.0739 17.8474 77.0856 17.8003 77.0997 17.7915C77.1376 17.7681 77.1312 17.6774 77.0887 17.6349C77.0585 17.6047 76.9191 17.598 76.3146 17.598C75.8403 17.598 75.5774 17.6073 75.5774 17.6238ZM77.5642 18.4055C77.5642 18.9992 77.5724 19.2212 77.5952 19.244C77.6413 19.2901 78.0478 19.2853 78.095 19.2381C78.1253 19.2078 78.1319 19.0649 78.1319 18.4365C78.1319 17.8081 78.1253 17.6652 78.095 17.6349C78.0682 17.6081 77.9908 17.598 77.8112 17.598H77.5642V18.4055ZM78.8027 17.6238C78.8027 17.638 78.7852 17.6496 78.7638 17.6496C78.7135 17.6496 78.5705 17.7768 78.5705 17.8216C78.5705 17.8405 78.5589 17.856 78.5447 17.856C78.5305 17.856 78.5189 17.9076 78.5189 17.9706C78.5189 18.0336 78.5073 18.0923 78.4931 18.1011C78.4781 18.1104 78.4673 18.2514 78.4673 18.4365C78.4673 18.6216 78.4781 18.7626 78.4931 18.7719C78.5073 18.7806 78.5189 18.8336 78.5189 18.8895C78.5189 18.9454 78.5305 18.9912 78.5447 18.9912C78.5589 18.9912 78.5705 19.0101 78.5705 19.0333C78.5705 19.0875 78.6935 19.1947 78.7769 19.2133C78.8124 19.2211 78.8751 19.2383 78.9162 19.2513C79.0204 19.2842 79.8457 19.2809 80.073 19.2467C80.261 19.2183 80.4283 19.1568 80.4283 19.1161C80.4283 19.1041 80.4167 19.0943 80.4025 19.0943C80.3883 19.0943 80.3767 19.0711 80.3767 19.0428C80.3767 19.0144 80.3659 18.9912 80.3526 18.9912C80.3394 18.9912 80.3204 18.9656 80.3105 18.9343C80.2752 18.823 80.2577 18.8199 79.6783 18.8217C79.1904 18.8233 79.1165 18.8181 79.0784 18.7802C79.0429 18.7448 79.035 18.6847 79.035 18.4509C79.035 18.1747 79.0502 18.1054 79.1299 18.0183C79.1527 17.9933 79.2885 17.985 79.6782 17.985C80.1789 17.985 80.1961 17.9833 80.1961 17.9334C80.1961 17.905 80.2062 17.8818 80.2186 17.8818C80.2476 17.8818 80.2782 17.6921 80.2578 17.6388C80.2441 17.603 80.1545 17.598 79.5224 17.598C79.0598 17.598 78.8027 17.6073 78.8027 17.6238ZM81.254 17.6496C81.254 17.678 81.2424 17.7012 81.2282 17.7012C81.214 17.7012 81.2024 17.7245 81.2024 17.7528C81.2024 17.7812 81.1908 17.8044 81.1766 17.8044C81.1624 17.8044 81.1508 17.8218 81.1508 17.8431C81.1508 17.8644 81.1392 17.8818 81.125 17.8818C81.1108 17.8818 81.099 17.9021 81.0989 17.927C81.0987 17.9518 81.0697 18.0226 81.0344 18.0844C80.9991 18.1462 80.9702 18.2129 80.9702 18.2327C80.9702 18.2526 80.9585 18.2688 80.9444 18.2688C80.9302 18.2688 80.9186 18.292 80.9186 18.3204C80.9186 18.3488 80.9069 18.372 80.8928 18.372C80.8786 18.372 80.8669 18.3952 80.8669 18.4236C80.8669 18.452 80.8553 18.4752 80.8411 18.4752C80.827 18.4752 80.8153 18.4961 80.8153 18.5216C80.8153 18.5472 80.8053 18.5791 80.7931 18.5926C80.7512 18.6387 80.5831 18.9701 80.5831 19.0064C80.5831 19.0264 80.5715 19.0428 80.5573 19.0428C80.5431 19.0428 80.5315 19.066 80.5315 19.0943C80.5315 19.1227 80.5199 19.1459 80.5057 19.1459C80.4636 19.1459 80.4764 19.2423 80.5207 19.2593C80.5886 19.2853 80.9958 19.2768 81.0493 19.2482C81.0767 19.2335 81.0992 19.2009 81.0992 19.1757C81.0992 19.1505 81.1224 19.105 81.1508 19.0745C81.1792 19.044 81.2024 19.0012 81.2024 18.9793C81.2024 18.9451 81.2619 18.9396 81.63 18.9396C82.0708 18.9396 82.1313 18.953 82.1313 19.0506C82.1313 19.0712 82.1487 19.1025 82.17 19.1201C82.1913 19.1378 82.2087 19.1728 82.2087 19.1979C82.2087 19.2624 82.259 19.2749 82.5183 19.2749C82.6437 19.2749 82.7647 19.2679 82.7871 19.2593C82.8417 19.2384 82.8388 19.1663 82.7807 19.0993C82.7547 19.0693 82.7116 18.9921 82.6851 18.9277C82.6585 18.8633 82.6275 18.8106 82.6162 18.8106C82.605 18.8106 82.5957 18.7874 82.5957 18.759C82.5957 18.7306 82.5841 18.7074 82.5699 18.7074C82.5557 18.7074 82.5442 18.6929 82.5443 18.6751C82.5445 18.6346 82.3059 18.1558 82.2796 18.1441C82.269 18.1394 82.2603 18.1017 82.2603 18.0603C82.2603 18.0189 82.2487 17.985 82.2345 17.985C82.2203 17.985 82.2087 17.9676 82.2087 17.9463C82.2087 17.925 82.1971 17.9076 82.1829 17.9076C82.1687 17.9076 82.1571 17.8844 82.1571 17.856C82.1571 17.8277 82.1455 17.8044 82.1313 17.8044C82.1171 17.8044 82.1055 17.783 82.1055 17.7568C82.1055 17.7306 82.0838 17.6841 82.0573 17.6536C82.0121 17.6015 81.9859 17.598 81.6316 17.598C81.2712 17.598 81.254 17.6004 81.254 17.6496ZM33.8286 18.1269C33.8286 18.2516 33.8223 18.2688 33.777 18.2688C33.7486 18.2688 33.7254 18.2804 33.7254 18.2946C33.7254 18.3104 33.6049 18.3204 33.4157 18.3204H33.1061V18.1527V17.985H33.4673H33.8286V18.1269ZM36.2429 18.0219C36.2715 18.0504 36.2798 18.143 36.2798 18.4331V18.8074L36.1641 18.8248C35.9609 18.8552 35.4809 18.8279 35.4533 18.7843C35.44 18.7633 35.429 18.6004 35.4287 18.4224C35.4282 17.9741 35.4165 17.9858 35.8624 17.9854C36.1262 17.9851 36.2147 17.9936 36.2429 18.0219ZM39.1845 18.0219C39.2129 18.0503 39.2213 18.1416 39.2213 18.4224V18.7861L39.1552 18.8112C39.1187 18.825 38.933 18.8364 38.7423 18.8364H38.3956V18.4107V17.985H38.7716C39.0631 17.985 39.1559 17.9933 39.1845 18.0219ZM47.589 18.0381C47.6385 18.0842 47.6471 18.1232 47.655 18.3371C47.6599 18.4724 47.6565 18.633 47.6474 18.6939C47.6326 18.7924 47.6216 18.8066 47.548 18.8228C47.3818 18.8595 47.0269 18.8606 46.9225 18.8248L46.8202 18.7896L46.8131 18.4131C46.8069 18.0896 46.8115 18.0366 46.8453 18.0366C46.867 18.0366 46.8847 18.025 46.8847 18.0108C46.8847 17.995 47.0098 17.985 47.2084 17.985C47.4992 17.985 47.5377 17.9904 47.589 18.0381ZM51.4347 18.1208C51.4725 18.1955 51.5034 18.271 51.5034 18.2885C51.5034 18.3061 51.515 18.3204 51.5292 18.3204C51.5434 18.3204 51.555 18.3436 51.555 18.372C51.555 18.4004 51.5667 18.4236 51.5808 18.4236C51.595 18.4236 51.6066 18.4526 51.6066 18.4881C51.6066 18.5524 51.6058 18.5526 51.3615 18.5526C51.0834 18.5526 51.068 18.5371 51.168 18.3591C51.1964 18.3086 51.2196 18.2444 51.2196 18.2164C51.2196 18.1885 51.2289 18.1656 51.2402 18.1656C51.2516 18.1656 51.2755 18.125 51.2935 18.0753C51.3115 18.0257 51.3351 17.985 51.3461 17.985C51.357 17.985 51.3969 18.0461 51.4347 18.1208ZM55.8383 18.0366C55.8383 18.065 55.8499 18.0882 55.8641 18.0882C55.8783 18.0882 55.8899 18.1172 55.8899 18.1527C55.8899 18.1882 55.9015 18.2172 55.9157 18.2172C55.9299 18.2172 55.9415 18.2404 55.9415 18.2688C55.9415 18.2972 55.9531 18.3204 55.9673 18.3204C55.9815 18.3204 55.9931 18.341 55.9931 18.3662C55.9931 18.3915 56.0101 18.4364 56.0309 18.4661C56.0517 18.4957 56.0614 18.5273 56.0524 18.5363C56.0435 18.5453 55.9332 18.5526 55.8074 18.5526C55.5571 18.5526 55.5197 18.53 55.5871 18.4192C55.6073 18.3862 55.639 18.3098 55.6577 18.2495C55.6764 18.1891 55.7015 18.1398 55.7134 18.1398C55.7253 18.1398 55.7351 18.105 55.7351 18.0624C55.7351 18.0022 55.7465 17.985 55.7867 17.985C55.8211 17.985 55.8383 18.0022 55.8383 18.0366ZM58.3928 18.0108C58.3928 18.025 58.4102 18.0366 58.4315 18.0366C58.4528 18.0366 58.4702 18.0575 58.4702 18.0831C58.4702 18.1086 58.4795 18.1405 58.4908 18.154C58.524 18.1934 58.4878 18.7517 58.4495 18.7901C58.4065 18.8332 57.8385 18.861 57.7477 18.8243C57.6254 18.7749 57.6187 18.7541 57.6187 18.4239C57.6187 17.9787 57.6106 17.9869 58.0509 17.9858C58.2622 17.9853 58.3928 17.9949 58.3928 18.0108ZM70.0187 18.0219C70.039 18.0421 70.0556 18.077 70.0556 18.0993C70.0556 18.1216 70.0672 18.1398 70.0814 18.1398C70.097 18.1398 70.1072 18.2516 70.1072 18.4236C70.1072 18.5956 70.097 18.7074 70.0814 18.7074C70.0672 18.7074 70.0556 18.7297 70.0556 18.7569C70.0556 18.8221 69.9589 18.8425 69.6325 18.8463C69.4318 18.8486 69.3614 18.8397 69.3035 18.8045L69.2299 18.7597V18.41C69.2299 18.1669 69.2397 18.0491 69.2622 18.0236C69.309 17.9704 69.9658 17.9689 70.0187 18.0219ZM74.2568 18.0284C74.2932 18.0647 74.3002 18.1288 74.3002 18.4261C74.3002 18.621 74.2939 18.7867 74.2863 18.7943C74.2542 18.8265 73.9744 18.8496 73.7693 18.837C73.4629 18.8183 73.4616 18.8164 73.4616 18.4199C73.4616 17.9884 73.4612 17.9887 73.8956 17.9866C74.1604 17.9853 74.2208 17.9923 74.2568 18.0284ZM81.7161 18.1025C81.7352 18.1672 81.7667 18.236 81.7862 18.2555C81.8057 18.275 81.8217 18.3092 81.8217 18.3315C81.8217 18.3538 81.8333 18.372 81.8475 18.372C81.8616 18.372 81.8733 18.401 81.8733 18.4365C81.8733 18.472 81.8878 18.5012 81.9055 18.5014C81.927 18.5017 81.9249 18.5101 81.8991 18.5268C81.8495 18.5588 81.4166 18.5604 81.397 18.5286C81.3888 18.5154 81.394 18.4973 81.4084 18.4883C81.4228 18.4794 81.4346 18.4496 81.4346 18.4221C81.4346 18.3945 81.4462 18.372 81.4604 18.372C81.4746 18.372 81.4862 18.3488 81.4862 18.3204C81.4862 18.292 81.4978 18.2688 81.512 18.2688C81.5262 18.2688 81.5378 18.2398 81.5378 18.2043C81.5378 18.1688 81.5494 18.1398 81.5636 18.1398C81.5778 18.1398 81.5894 18.1219 81.5894 18.1C81.5894 18.0615 81.6398 17.988 81.6677 17.986C81.6752 17.9855 81.697 18.0379 81.7161 18.1025ZM47.5895 20.5391C47.5794 20.5603 47.5701 20.6444 47.5687 20.7259C47.5662 20.872 47.5673 20.8743 47.6463 20.8891C47.6904 20.8974 47.8331 20.9004 47.9634 20.8957C48.1962 20.8875 48.2007 20.8884 48.2225 20.9518C48.2348 20.9873 48.2429 21.2427 48.2406 21.5194C48.2382 21.7961 48.2414 22.0544 48.2475 22.0934L48.2587 22.1643H48.5393H48.82V21.5323V20.9002L49.0973 20.8999C49.4534 20.8994 49.4908 20.8893 49.4908 20.794C49.4908 20.7531 49.4792 20.7196 49.465 20.7196C49.4282 20.7196 49.433 20.6228 49.4704 20.6104C49.4916 20.6033 49.4854 20.5828 49.451 20.546C49.4015 20.4931 49.3829 20.4922 48.5042 20.4962C47.7355 20.4998 47.6052 20.5059 47.5895 20.5391ZM49.974 20.6673C49.9211 20.7654 49.8779 20.8638 49.8779 20.8859C49.8779 20.908 49.8663 20.926 49.8521 20.926C49.8379 20.926 49.8263 20.9483 49.8263 20.9755C49.8263 21.0027 49.8175 21.0288 49.8069 21.0335C49.7806 21.0452 49.5934 21.421 49.5938 21.4613C49.5939 21.4791 49.5824 21.4936 49.5682 21.4936C49.554 21.4936 49.5424 21.5168 49.5424 21.5452C49.5424 21.5736 49.5308 21.5968 49.5166 21.5968C49.5024 21.5968 49.4908 21.619 49.4908 21.6462C49.4908 21.6734 49.4821 21.6996 49.4715 21.7043C49.442 21.7176 49.2586 22.0797 49.2586 22.1248C49.2586 22.1581 49.3071 22.1643 49.5682 22.1643H49.8779V22.0999C49.8779 22.0644 49.8869 22.0354 49.898 22.0354C49.9091 22.0354 49.9313 22.0005 49.9474 21.958L49.9766 21.8806H50.4304C50.867 21.8806 50.8842 21.8825 50.8842 21.9322C50.8842 21.9605 50.8958 21.9838 50.91 21.9838C50.9242 21.9838 50.9358 22.007 50.9358 22.0354C50.9358 22.0637 50.9474 22.087 50.9616 22.087C50.9758 22.087 50.9874 22.1044 50.9874 22.1256C50.9874 22.1579 51.039 22.1643 51.297 22.1643C51.5894 22.1643 51.6066 22.1615 51.6066 22.1128C51.6066 22.0844 51.595 22.0612 51.5808 22.0612C51.5667 22.0612 51.555 22.0437 51.555 22.0225C51.555 22.0012 51.5434 21.9838 51.5292 21.9838C51.515 21.9838 51.5034 21.9605 51.5034 21.9322C51.5034 21.9038 51.4935 21.8806 51.4813 21.8806C51.4692 21.8806 51.4256 21.8051 51.3846 21.7129C51.3435 21.6208 51.3012 21.5453 51.2906 21.5452C51.2799 21.5452 51.2712 21.522 51.2712 21.4936C51.2712 21.4652 51.2596 21.442 51.2454 21.442C51.2312 21.442 51.2196 21.413 51.2196 21.3775C51.2196 21.342 51.208 21.313 51.1938 21.313C51.1796 21.313 51.168 21.2898 51.168 21.2614C51.168 21.233 51.1564 21.2098 51.1422 21.2098C51.128 21.2098 51.1164 21.1866 51.1164 21.1582C51.1164 21.1298 51.1061 21.1066 51.0935 21.1066C51.0809 21.1066 51.0385 21.0312 50.9993 20.9389C50.9601 20.8467 50.9182 20.7712 50.9061 20.7712C50.894 20.7712 50.8842 20.7422 50.8842 20.7067C50.8842 20.6713 50.8726 20.6422 50.8584 20.6422C50.8442 20.6422 50.8326 20.619 50.8326 20.5907C50.8326 20.5416 50.8154 20.5391 50.4765 20.5391C50.2798 20.5391 50.1092 20.5278 50.0953 20.5139C50.079 20.4976 50.0364 20.5515 49.974 20.6673ZM52.4436 20.5305C52.4295 20.5528 52.4224 20.9019 52.4266 21.3665L52.4338 22.1643H52.7169H53V21.9477V21.731L53.5115 21.7347C54.0432 21.7386 54.0211 21.7423 54.1409 21.6303C54.1997 21.5752 54.225 21.5341 54.2579 21.4402C54.2966 21.3295 54.3019 20.8228 54.2643 20.8228C54.2501 20.8228 54.2385 20.8012 54.2385 20.7747C54.2385 20.7131 54.1429 20.5907 54.0947 20.5907C54.0745 20.5907 54.0579 20.5806 54.0579 20.5683C54.0579 20.5303 53.7096 20.5056 53.0758 20.4988C52.5617 20.4933 52.464 20.4982 52.4436 20.5305ZM64.0087 20.5417C63.9761 20.5726 63.9666 20.6197 63.9711 20.7272C63.9784 20.9012 63.9743 20.8994 64.3597 20.8999L64.637 20.9002V21.5323V22.1643H64.9209H65.2047V21.5323V20.9002H65.4993C65.6613 20.9002 65.8123 20.8932 65.8347 20.8846C65.8668 20.8723 65.8756 20.8284 65.8756 20.6789V20.4889L64.9639 20.4946C64.1675 20.4996 64.0468 20.5055 64.0087 20.5417ZM41.5142 20.5679C41.4878 20.5908 41.4662 20.6344 41.4662 20.6646C41.4662 20.6949 41.4546 20.7196 41.4404 20.7196C41.4262 20.7196 41.4146 20.7429 41.4146 20.7712C41.4146 20.7996 41.4047 20.8228 41.3927 20.8228C41.3806 20.8228 41.3492 20.8751 41.3229 20.9389C41.2965 21.0028 41.2657 21.055 41.2545 21.055C41.2432 21.055 41.2339 21.0782 41.2339 21.1066C41.2339 21.135 41.2223 21.1582 41.2081 21.1582C41.194 21.1582 41.1823 21.1872 41.1823 21.2227C41.1823 21.2582 41.1707 21.2872 41.1565 21.2872C41.1423 21.2872 41.1307 21.3104 41.1307 21.3388C41.1307 21.3672 41.1191 21.3904 41.1049 21.3904C41.0907 21.3904 41.0791 21.4136 41.0791 21.442C41.0791 21.4704 41.0704 21.4937 41.0598 21.494C41.0491 21.4942 41.0064 21.5696 40.9649 21.6616C40.9233 21.7537 40.8798 21.829 40.8681 21.829C40.8565 21.829 40.8469 21.858 40.8469 21.8935C40.8469 21.9289 40.8353 21.958 40.8211 21.958C40.8069 21.958 40.7953 21.9812 40.7953 22.0096C40.7953 22.0379 40.7837 22.0612 40.7695 22.0612C40.7553 22.0612 40.7437 22.0844 40.7437 22.1128C40.7437 22.1613 40.7609 22.1643 41.0355 22.1643H41.3272L41.3756 22.0547C41.4537 21.8775 41.4442 21.8806 41.912 21.8806H42.3356L42.3842 21.9902C42.461 22.1634 42.4633 22.1643 42.7932 22.1643C42.9574 22.1643 43.0917 22.1583 43.0917 22.1509C43.0917 22.1436 43.0627 22.0915 43.0272 22.0354C42.9918 21.9792 42.9627 21.9214 42.9627 21.9069C42.9627 21.8924 42.9511 21.8806 42.9369 21.8806C42.9227 21.8806 42.9111 21.8457 42.9111 21.8032C42.9111 21.7606 42.8995 21.7258 42.8853 21.7258C42.8711 21.7258 42.8595 21.7084 42.8595 21.6871C42.8595 21.6658 42.8479 21.6484 42.8337 21.6484C42.8195 21.6484 42.8079 21.6301 42.8079 21.6079C42.8079 21.5621 42.5733 21.0984 42.5434 21.0851C42.5328 21.0804 42.5241 21.0543 42.5241 21.0271C42.5241 20.9999 42.5125 20.9776 42.4983 20.9776C42.4841 20.9776 42.4725 20.9544 42.4725 20.926C42.4725 20.8977 42.4609 20.8744 42.4467 20.8744C42.4325 20.8744 42.4209 20.8512 42.4209 20.8228C42.4209 20.7945 42.4093 20.7712 42.3951 20.7712C42.3809 20.7712 42.3693 20.7435 42.3693 20.7096C42.3693 20.6757 42.349 20.624 42.3241 20.5947C42.2831 20.5463 42.2458 20.5407 41.9206 20.5338C41.6201 20.5274 41.5545 20.5329 41.5142 20.5679ZM58.1863 21.0489C58.1863 21.3938 58.1762 21.5913 58.1565 21.6294C58.1401 21.6611 58.1186 21.7045 58.1086 21.7258C58.0941 21.7567 58.0226 21.7659 57.7514 21.7717C57.4288 21.7785 57.4123 21.7764 57.4123 21.728C57.4123 21.7001 57.3997 21.6695 57.3844 21.66C57.3658 21.6485 57.3581 21.4753 57.3611 21.1361C57.3635 20.8574 57.3645 20.609 57.3631 20.5842C57.3609 20.5441 57.329 20.5391 57.0768 20.5391H56.793V21.2098C56.793 21.6398 56.8023 21.8806 56.8188 21.8806C56.833 21.8806 56.8446 21.9038 56.8446 21.9322C56.8446 21.9605 56.8562 21.9838 56.8704 21.9838C56.8846 21.9838 56.8962 21.9962 56.8962 22.0114C56.8962 22.0471 56.9618 22.1128 56.9976 22.1128C57.0128 22.1128 57.0252 22.1244 57.0252 22.1386C57.0252 22.1527 57.0601 22.1643 57.1026 22.1643C57.1452 22.1643 57.18 22.176 57.18 22.1901C57.18 22.2066 57.3908 22.2159 57.7606 22.2159C58.1304 22.2159 58.3412 22.2066 58.3412 22.1901C58.3412 22.176 58.376 22.1643 58.4186 22.1643C58.4611 22.1643 58.496 22.1527 58.496 22.1386C58.496 22.1244 58.5134 22.1128 58.5347 22.1128C58.556 22.1128 58.5734 22.0953 58.5734 22.0741C58.5734 22.0528 58.5822 22.0354 58.5929 22.0354C58.6036 22.0354 58.6297 21.9976 58.651 21.9515C58.682 21.884 58.6895 21.7377 58.6895 21.2004V20.5331L58.4379 20.5296L58.1863 20.5262L58.1863 21.0489ZM59.3539 20.5325L59.1152 20.541L59.115 21.2172C59.1149 21.5891 59.1075 21.9544 59.0985 22.0289L59.0822 22.1643H59.9373C60.7437 22.1643 60.7924 22.1617 60.7924 22.1179C60.7924 22.0603 60.7348 21.9326 60.7086 21.9324C60.6979 21.9323 60.6892 21.9139 60.6892 21.8916C60.6892 21.7891 60.6339 21.7774 60.1492 21.7774H59.6829V21.1822C59.6829 20.7007 59.6759 20.5799 59.646 20.5501C59.6258 20.5298 59.6054 20.5157 59.6009 20.5186C59.5963 20.5216 59.4852 20.5278 59.3539 20.5325ZM38.6795 21.3517V22.1643H39.4923C40.0169 22.1643 40.305 22.1552 40.305 22.1386C40.305 22.1244 40.3283 22.1128 40.3567 22.1128C40.385 22.1128 40.4083 22.1011 40.4083 22.087C40.4083 22.0728 40.4293 22.0612 40.4551 22.0612C40.4832 22.0612 40.5272 22.0172 40.5648 21.9515C40.6235 21.8489 40.6281 21.8129 40.6362 21.3934C40.6473 20.8182 40.6232 20.743 40.3769 20.5842C40.314 20.5436 40.2242 20.5391 39.4932 20.5391H38.6795V21.3517ZM44.4528 20.6187C44.428 20.6623 44.4077 20.7145 44.4077 20.7346C44.4077 20.7548 44.3961 20.7712 44.3819 20.7712C44.3677 20.7712 44.3561 20.7945 44.3561 20.8228C44.3561 20.8512 44.3445 20.8744 44.3303 20.8744C44.3161 20.8744 44.3045 20.8977 44.3045 20.926C44.3045 20.9544 44.2929 20.9776 44.2787 20.9776C44.2645 20.9776 44.2529 20.9939 44.2529 21.0138C44.2529 21.0338 44.2122 21.1219 44.1626 21.2098C44.1129 21.2977 44.0723 21.3859 44.0723 21.4058C44.0723 21.4257 44.0606 21.442 44.0464 21.442C44.0323 21.442 44.0206 21.4652 44.0206 21.4936C44.0206 21.522 44.009 21.5452 43.9948 21.5452C43.9806 21.5452 43.969 21.5684 43.969 21.5968C43.969 21.6252 43.9574 21.6484 43.9432 21.6484C43.929 21.6484 43.9174 21.6774 43.9174 21.7129C43.9174 21.7484 43.9087 21.7774 43.8981 21.7774C43.8765 21.7775 43.7503 22.0162 43.7243 22.1063C43.7076 22.1641 43.7087 22.1643 44.006 22.1643C44.1793 22.1643 44.3045 22.154 44.3045 22.1396C44.3045 22.126 44.3363 22.0621 44.3753 21.9977L44.446 21.8806H44.8673C45.3153 21.8806 45.3624 21.8926 45.3624 22.0077C45.3624 22.0371 45.374 22.0612 45.3882 22.0612C45.4024 22.0612 45.414 22.0844 45.414 22.1128C45.414 22.1615 45.4312 22.1643 45.7236 22.1643C46.016 22.1643 46.0333 22.1615 46.0333 22.1128C46.0333 22.0844 46.0216 22.0612 46.0075 22.0612C45.9933 22.0612 45.9817 22.0379 45.9817 22.0096C45.9817 21.9812 45.97 21.958 45.9558 21.958C45.9417 21.958 45.93 21.9289 45.93 21.8935C45.93 21.858 45.9208 21.829 45.9096 21.829C45.8984 21.829 45.8447 21.7303 45.7904 21.6097C45.7361 21.4891 45.6814 21.3904 45.6689 21.3904C45.6564 21.3904 45.6462 21.3614 45.6462 21.3259C45.6462 21.2904 45.6346 21.2614 45.6204 21.2614C45.6062 21.2614 45.5946 21.2382 45.5946 21.2098C45.5946 21.1814 45.583 21.1582 45.5688 21.1582C45.5546 21.1582 45.543 21.135 45.543 21.1066C45.543 21.0782 45.5343 21.0549 45.5237 21.0548C45.513 21.0546 45.4814 21.0024 45.4534 20.9387C45.4253 20.875 45.3934 20.8228 45.3824 20.8228C45.3714 20.8228 45.3624 20.7996 45.3624 20.7712C45.3624 20.7429 45.3508 20.7196 45.3366 20.7196C45.3224 20.7196 45.3108 20.6956 45.3108 20.6662C45.3108 20.5535 45.2604 20.5391 44.8675 20.5392L44.498 20.5394L44.4528 20.6187ZM46.3117 21.3066C46.3072 21.7287 46.2937 22.0944 46.2817 22.1192C46.2612 22.1617 46.3102 22.1643 47.1271 22.1643C48.0998 22.1643 48.0415 22.1786 47.9298 21.9684C47.8943 21.9017 47.8653 21.8314 47.8653 21.8122C47.8653 21.7842 47.7675 21.7774 47.3621 21.7774H46.8589V21.1582V20.5391H46.5894H46.3199L46.3117 21.3066ZM55.0642 20.5778C55.0642 20.599 55.0526 20.6165 55.0384 20.6165C55.0242 20.6165 55.0126 20.6347 55.0126 20.657C55.0126 20.6793 54.9952 20.7149 54.9739 20.7362C54.9526 20.7575 54.9352 20.7973 54.9352 20.8247C54.9352 20.852 54.9258 20.8744 54.9142 20.8744C54.9027 20.8744 54.8773 20.9151 54.8578 20.9647C54.8383 21.0144 54.8129 21.055 54.8014 21.055C54.7898 21.055 54.7804 21.0782 54.7804 21.1066C54.7804 21.135 54.7688 21.1582 54.7546 21.1582C54.7404 21.1582 54.7288 21.1872 54.7288 21.2227C54.7288 21.2582 54.7172 21.2872 54.703 21.2872C54.6888 21.2872 54.6772 21.3104 54.6772 21.3388C54.6772 21.3672 54.667 21.3904 54.6545 21.3904C54.642 21.3904 54.5873 21.4891 54.533 21.6097C54.4787 21.7303 54.425 21.829 54.4138 21.829C54.4026 21.829 54.3933 21.858 54.3933 21.8935C54.3933 21.9289 54.3817 21.958 54.3675 21.958C54.3533 21.958 54.3417 21.9812 54.3417 22.0096C54.3417 22.0379 54.3301 22.0612 54.3159 22.0612C54.3017 22.0612 54.2901 22.0844 54.2901 22.1128C54.2901 22.1613 54.3073 22.1643 54.5814 22.1643H54.8727L54.9469 22.0225L55.0212 21.8806H55.4513H55.8813L55.9556 22.0225L56.0298 22.1643H56.3211C56.4813 22.1643 56.6124 22.1538 56.6124 22.141C56.6124 22.1076 56.5 21.8951 56.4769 21.8849C56.4663 21.8801 56.4576 21.854 56.4576 21.8268C56.4576 21.7996 56.446 21.7774 56.4318 21.7774C56.4176 21.7774 56.406 21.7484 56.406 21.7129C56.406 21.6774 56.3943 21.6484 56.3802 21.6484C56.366 21.6484 56.3544 21.6252 56.3544 21.5968C56.3544 21.5684 56.3427 21.5452 56.3285 21.5452C56.3144 21.5452 56.3027 21.5228 56.3027 21.4954C56.3027 21.4681 56.2853 21.4283 56.264 21.407C56.2428 21.3857 56.2253 21.3442 56.2253 21.3148C56.2253 21.2855 56.2137 21.2614 56.1995 21.2614C56.1853 21.2614 56.1737 21.2382 56.1737 21.2098C56.1737 21.1814 56.1621 21.1582 56.1479 21.1582C56.1337 21.1582 56.1221 21.135 56.1221 21.1066C56.1221 21.0782 56.1105 21.055 56.0963 21.055C56.0821 21.055 56.0705 21.0328 56.0705 21.0056C56.0705 20.9784 56.0618 20.9523 56.0512 20.9475C56.0405 20.9428 55.9871 20.849 55.9325 20.739L55.8332 20.5391H55.4487C55.1241 20.5391 55.0642 20.5451 55.0642 20.5778ZM60.973 21.3517V22.1643H61.2569H61.5407V21.3517V20.5391H61.2569H60.973V21.3517ZM62.089 20.5703C62.0571 20.5859 62.031 20.6142 62.031 20.6333C62.031 20.6524 62.0215 20.668 62.0099 20.668C61.9312 20.668 61.8744 21.0143 61.9177 21.2305C61.9418 21.3511 62.0854 21.4936 62.1828 21.4936C62.227 21.4936 62.2632 21.5052 62.2632 21.5194C62.2632 21.5356 62.4315 21.5452 62.7166 21.5452C63.0751 21.5452 63.1777 21.5529 63.2068 21.5821C63.2523 21.6275 63.2525 21.6733 63.2078 21.7322C63.1772 21.7724 63.1197 21.7774 62.6796 21.7774C62.3676 21.7774 62.1858 21.7679 62.1858 21.7516C62.1858 21.7133 62.1101 21.7204 62.0678 21.7626C62.0475 21.7829 62.031 21.8177 62.031 21.84C62.031 21.8623 62.0222 21.8806 62.0114 21.8806C61.99 21.8806 61.9277 22.0627 61.9277 22.1252C61.9277 22.1594 62.0329 22.1643 62.7534 22.1643C63.2867 22.1643 63.5791 22.1552 63.5791 22.1386C63.5791 22.1244 63.5944 22.1128 63.6132 22.1128C63.6709 22.1128 63.7597 21.9875 63.7597 21.9062C63.7597 21.8637 63.7714 21.829 63.7855 21.829C63.8005 21.829 63.8113 21.7473 63.8113 21.6355C63.8113 21.5237 63.8005 21.442 63.7855 21.442C63.7714 21.442 63.7597 21.4131 63.7597 21.3778C63.7597 21.2997 63.6876 21.2098 63.625 21.2098C63.5998 21.2098 63.5791 21.1982 63.5791 21.184C63.5791 21.1698 63.5269 21.1582 63.463 21.1582C63.3991 21.1582 63.3469 21.1466 63.3469 21.1324C63.3469 21.0927 62.9156 21.099 62.8995 21.1389C62.8891 21.1647 62.8861 21.1647 62.8845 21.1389C62.883 21.1159 62.8229 21.1066 62.676 21.1066H62.4696V21.0334C62.4696 20.917 62.5283 20.9073 63.1147 20.9264C63.4418 20.937 63.6559 20.9341 63.6759 20.9187C63.6936 20.9051 63.7081 20.857 63.7081 20.8119C63.7081 20.7669 63.7207 20.7174 63.7361 20.702C63.7515 20.6866 63.7602 20.6465 63.7555 20.613L63.7468 20.552L62.9469 20.5471C62.4114 20.5438 62.1279 20.5515 62.089 20.5703ZM66.411 20.6187C66.3861 20.6623 66.3658 20.7145 66.3658 20.7346C66.3658 20.7548 66.3542 20.7712 66.34 20.7712C66.3258 20.7712 66.3142 20.7945 66.3142 20.8228C66.3142 20.8512 66.3026 20.8744 66.2884 20.8744C66.2742 20.8744 66.2626 20.8977 66.2626 20.926C66.2626 20.9544 66.2538 20.9776 66.2431 20.9776C66.2324 20.9776 66.2072 21.0154 66.1871 21.0615C66.1671 21.1076 66.1439 21.1511 66.1357 21.1582C66.1092 21.181 66.0304 21.3651 66.0304 21.4042C66.0304 21.425 66.0188 21.442 66.0046 21.442C65.9904 21.442 65.9788 21.4652 65.9788 21.4936C65.9788 21.522 65.9672 21.5452 65.953 21.5452C65.9388 21.5452 65.9272 21.5684 65.9272 21.5968C65.9272 21.6252 65.9156 21.6484 65.9014 21.6484C65.8872 21.6484 65.8756 21.6765 65.8756 21.7107C65.8756 21.745 65.8663 21.7769 65.8549 21.7817C65.8339 21.7904 65.6433 22.1215 65.6433 22.1492C65.6433 22.1575 65.7798 22.164 65.9465 22.1636L66.2497 22.1629L66.3179 22.0282L66.386 21.8935L66.8158 21.8864C67.2749 21.8788 67.3205 21.8898 67.3205 22.0077C67.3205 22.0371 67.3321 22.0612 67.3463 22.0612C67.3605 22.0612 67.3721 22.0844 67.3721 22.1128C67.3721 22.1615 67.3893 22.1643 67.6818 22.1643C67.9742 22.1643 67.9914 22.1615 67.9914 22.1128C67.9914 22.0844 67.9798 22.0612 67.9656 22.0612C67.9514 22.0612 67.9398 22.0491 67.9398 22.0345C67.9398 21.9931 67.7029 21.5076 67.678 21.4979C67.6659 21.4932 67.6559 21.467 67.6559 21.4399C67.6559 21.4126 67.6443 21.3904 67.6301 21.3904C67.616 21.3904 67.6043 21.3614 67.6043 21.3259C67.6043 21.2904 67.5927 21.2614 67.5785 21.2614C67.5644 21.2614 67.5527 21.2382 67.5527 21.2098C67.5527 21.1814 67.5411 21.1582 67.5269 21.1582C67.5127 21.1582 67.5011 21.135 67.5011 21.1066C67.5011 21.0782 67.4924 21.0549 67.4818 21.0548C67.4711 21.0546 67.4395 21.0024 67.4115 20.9387C67.3835 20.875 67.3516 20.8228 67.3405 20.8228C67.3295 20.8228 67.3205 20.7996 67.3205 20.7712C67.3205 20.7429 67.3089 20.7196 67.2947 20.7196C67.2805 20.7196 67.2689 20.6956 67.2689 20.6662C67.2689 20.5535 67.2185 20.5391 66.8256 20.5392L66.4561 20.5394L66.411 20.6187ZM40.0155 20.9662C40.0697 21.0042 40.0728 21.0245 40.0728 21.34C40.0728 21.7952 40.0914 21.7774 39.6155 21.7774H39.2471V21.3517V20.926H39.6026C39.8826 20.926 39.9703 20.9346 40.0155 20.9662ZM41.9156 20.9417C41.9381 20.9503 41.9564 20.9793 41.9564 21.0062C41.9564 21.033 41.968 21.055 41.9822 21.055C41.9964 21.055 42.008 21.0768 42.008 21.1035C42.008 21.1301 42.0254 21.1663 42.0467 21.184C42.068 21.2017 42.0854 21.2379 42.0854 21.2646C42.0854 21.2912 42.097 21.313 42.1112 21.313C42.1254 21.313 42.137 21.342 42.137 21.3775C42.137 21.413 42.1487 21.442 42.1628 21.442C42.177 21.442 42.1887 21.4536 42.1887 21.4678C42.1887 21.4834 42.0811 21.4936 41.9177 21.4936C41.7687 21.4936 41.6468 21.4872 41.6468 21.4795C41.6468 21.4717 41.67 21.4173 41.6984 21.3585C41.7268 21.2998 41.75 21.2307 41.75 21.205C41.75 21.1792 41.7616 21.1582 41.7758 21.1582C41.79 21.1582 41.8016 21.135 41.8016 21.1066C41.8016 21.0782 41.8132 21.055 41.8274 21.055C41.8416 21.055 41.8532 21.026 41.8532 20.9905C41.8532 20.9203 41.8554 20.9186 41.9156 20.9417ZM44.9237 20.9776C44.9237 21.006 44.9353 21.0292 44.9495 21.0292C44.9637 21.0292 44.9753 21.0582 44.9753 21.0937C44.9753 21.1292 44.987 21.1582 45.0011 21.1582C45.0153 21.1582 45.0269 21.1814 45.0269 21.2098C45.0269 21.2382 45.0386 21.2614 45.0528 21.2614C45.0669 21.2614 45.0786 21.2839 45.0786 21.3115C45.0786 21.339 45.0902 21.3687 45.1044 21.3775C45.1185 21.3863 45.1302 21.416 45.1302 21.4435C45.1302 21.4896 45.1105 21.4936 44.885 21.4936H44.6399V21.4033C44.6399 21.3536 44.6487 21.313 44.6594 21.313C44.6701 21.313 44.694 21.2753 44.7125 21.2292C44.7703 21.0846 44.8319 20.9655 44.859 20.9458C44.9031 20.9136 44.9237 20.9238 44.9237 20.9776ZM50.4971 21.059C50.4971 21.0852 50.5087 21.1066 50.5229 21.1066C50.5371 21.1066 50.5487 21.1298 50.5487 21.1582C50.5487 21.1866 50.5603 21.2098 50.5745 21.2098C50.5887 21.2098 50.6003 21.2388 50.6003 21.2743C50.6003 21.3098 50.6119 21.3388 50.6261 21.3388C50.6403 21.3388 50.6519 21.3736 50.6519 21.4162V21.4936H50.4068C50.1789 21.4936 50.1617 21.49 50.1617 21.442C50.1617 21.4136 50.1733 21.3904 50.1875 21.3904C50.2017 21.3904 50.2133 21.3614 50.2133 21.3259C50.2133 21.2904 50.2249 21.2614 50.2391 21.2614C50.2533 21.2614 50.2649 21.2382 50.2649 21.2098C50.2649 21.1814 50.2736 21.1581 50.2843 21.158C50.2949 21.1578 50.3264 21.106 50.3542 21.0428C50.4017 20.9347 50.4075 20.9303 50.4509 20.9696C50.4763 20.9926 50.4971 21.0328 50.4971 21.059ZM53.6817 20.9417C53.7133 20.9538 53.7225 20.9966 53.7225 21.1326C53.7225 21.3061 53.7216 21.3083 53.6412 21.3363C53.5965 21.3519 53.434 21.3646 53.28 21.3646H53V21.1453V20.926H53.3204C53.4966 20.926 53.6592 20.9331 53.6817 20.9417ZM55.5029 20.9905C55.5029 21.026 55.5145 21.055 55.5287 21.055C55.5429 21.055 55.5545 21.0782 55.5545 21.1066C55.5545 21.135 55.5661 21.1582 55.5803 21.1582C55.5945 21.1582 55.6061 21.1792 55.6061 21.2049C55.6061 21.2306 55.6231 21.2741 55.644 21.3016C55.6648 21.3292 55.6822 21.3836 55.6827 21.4226L55.6835 21.4936H55.4384C55.1626 21.4936 55.147 21.4795 55.2449 21.3188C55.2733 21.2724 55.2964 21.2172 55.2964 21.1963C55.2964 21.1753 55.3081 21.1582 55.3222 21.1582C55.3364 21.1582 55.348 21.135 55.348 21.1066C55.348 21.0782 55.3597 21.055 55.3738 21.055C55.388 21.055 55.3997 21.026 55.3997 20.9905C55.3997 20.9432 55.4134 20.926 55.4513 20.926C55.4891 20.926 55.5029 20.9432 55.5029 20.9905ZM66.8819 20.9905C66.8819 21.026 66.8935 21.055 66.9077 21.055C66.9219 21.055 66.9335 21.0782 66.9335 21.1066C66.9335 21.135 66.9451 21.1582 66.9593 21.1582C66.9735 21.1582 66.9851 21.1814 66.9851 21.2098C66.9851 21.2382 66.9967 21.2614 67.0109 21.2614C67.0251 21.2614 67.0367 21.2839 67.0367 21.3115C67.0367 21.339 67.0483 21.3687 67.0625 21.3775C67.0767 21.3863 67.0883 21.416 67.0883 21.4435C67.0883 21.4896 67.0686 21.4936 66.8432 21.4936H66.598V21.4162C66.598 21.3736 66.6097 21.3388 66.6238 21.3388C66.638 21.3388 66.6496 21.3212 66.6496 21.2997C66.6496 21.2783 66.6596 21.2405 66.6717 21.2159C66.6838 21.1913 66.7156 21.1247 66.7424 21.0679C66.8145 20.9149 66.8819 20.8776 66.8819 20.9905Z" fill="#034253"/>
</svg>
