<svg width="42" height="38" viewBox="0 0 42 38" fill="none" xmlns="http://www.w3.org/2000/svg">
<path d="M18.1876 33.8975V34.1225H14.3042C14.4003 35.0837 15.0636 35.7364 16.0142 35.7364C16.7265 35.7364 17.558 35.4009 18.1876 34.9885V36.1641C17.4741 36.6432 16.6362 36.9035 15.7768 36.9129C14.1254 36.9129 12.8931 35.7364 12.8931 33.8466C12.8931 32.1164 13.9505 30.8562 15.6605 30.8562C17.0716 30.8562 18.1876 31.9328 18.1876 33.8975ZM16.8418 33.3208C16.8063 32.4691 16.367 31.9568 15.6182 31.9568C14.8694 31.9568 14.3359 32.5335 14.3004 33.3208H16.8418Z" fill="#083D5F" stroke="#083D5F" stroke-width="0.295713"/>
<path d="M24.8269 33.3234V36.9136H23.46V33.4753C23.46 32.4102 23.016 32.093 22.4556 32.093C21.9874 32.093 21.5558 32.3814 21.206 32.9581V36.9165H19.842V30.8886H21.1041C21.1319 30.8886 21.1585 30.8996 21.1782 30.9193C21.1978 30.9389 21.2088 30.9656 21.2088 30.9934V31.7854C21.7231 31.1645 22.3623 30.8848 22.9496 30.8848C24.2079 30.8886 24.8269 31.8393 24.8269 33.3234Z" fill="#083D5F" stroke="#083D5F" stroke-width="0.295713"/>
<path d="M32.7938 29.7617V30.8882H34.8124V32.0667H32.7938V34.5659C32.7938 35.1619 32.913 35.6434 33.581 35.6434C34.0222 35.6434 34.4644 35.4512 34.822 35.2253V36.4932C34.3393 36.7594 33.7987 36.903 33.2475 36.9113C32.0181 36.9113 31.3981 36.2384 31.3981 34.7053V32.0696H30.7041C30.6838 32.0703 30.6637 32.0649 30.6464 32.0543C30.629 32.0437 30.6152 32.0282 30.6066 32.0097C30.598 31.9913 30.595 31.9708 30.598 31.9506C30.601 31.9305 30.6098 31.9117 30.6233 31.8966L32.6054 29.6925C32.62 29.6767 32.6389 29.6656 32.6598 29.6605C32.6806 29.6555 32.7026 29.6567 32.7227 29.6641C32.7429 29.6715 32.7604 29.6848 32.7731 29.7021C32.7857 29.7195 32.7929 29.7402 32.7938 29.7617Z" fill="#083D5F" stroke="#083D5F" stroke-width="0.295713"/>
<path d="M27.7956 29.7634V30.8899H29.8142V32.0684H27.7956V34.5676C27.7956 35.1636 27.9148 35.6451 28.5829 35.6451C29.025 35.6451 29.4662 35.4529 29.8248 35.227V36.4949C29.3414 36.761 28.8001 36.9045 28.2484 36.913C27.019 36.913 26.398 36.2401 26.398 34.707V32.0713H25.7059C25.6856 32.072 25.6655 32.0666 25.6482 32.056C25.6309 32.0454 25.617 32.0299 25.6084 32.0114C25.5998 31.993 25.5968 31.9725 25.5998 31.9523C25.6028 31.9322 25.6116 31.9134 25.6252 31.8983L27.6082 29.6942C27.6228 29.6787 27.6417 29.6679 27.6624 29.663C27.6831 29.6582 27.7048 29.6595 27.7248 29.6669C27.7447 29.6743 27.7621 29.6873 27.7747 29.7045C27.7873 29.7216 27.7946 29.7421 27.7956 29.7634Z" fill="#083D5F" stroke="#083D5F" stroke-width="0.295713"/>
<path d="M41.622 33.8841C41.622 35.8863 40.1513 36.9129 38.5855 36.9129C36.6044 36.9129 35.5845 35.424 35.5845 33.9091C35.5845 32.1702 36.7121 30.8562 38.6095 30.8562C40.4128 30.8562 41.622 32.0952 41.622 33.8841ZM37.0196 33.8841C37.0196 35.0231 37.6839 35.6989 38.6095 35.6989C39.5582 35.6989 40.1744 34.9606 40.1744 33.8841C40.1744 32.6585 39.4391 32.0702 38.5615 32.0702C37.6839 32.0702 37.0196 32.7585 37.0196 33.8841Z" fill="#083D5F" stroke="#083D5F" stroke-width="0.295713"/>
<path d="M10.004 27.8923H8.78229L5.84093 32.6639L2.89862 27.8923H1.6769L0.1745 36.9154H1.86145L2.8246 30.752L5.64004 35.0458L5.67272 35.0948H6.00819L8.85631 30.752L9.81945 36.9154H11.5064L10.004 27.8923Z" fill="#083D5F" stroke="#083D5F" stroke-width="0.295713"/>
<path d="M38.1775 12.705C38.1775 12.705 38.1775 12.6934 38.1775 12.6868C38.1444 12.5408 38.0731 12.4062 37.9709 12.2968L26.8003 0.323109C26.7556 0.277781 26.7043 0.239354 26.6483 0.209089H26.6367H26.6235L26.5971 0.194218H26.5855L26.5524 0.182651L26.5161 0.171083H26.4979C26.4441 0.156132 26.3885 0.148353 26.3327 0.147949H2.11758C2.00555 0.148033 1.89558 0.178007 1.799 0.234776C1.70243 0.291546 1.62275 0.373057 1.56819 0.470897C1.51362 0.568738 1.48616 0.679364 1.48862 0.791363C1.49108 0.903362 1.52338 1.01268 1.58218 1.10803L5.54808 7.5526C5.56715 7.57791 5.58755 7.60218 5.60922 7.62531V7.63687C5.61748 7.64844 5.6274 7.6567 5.63566 7.66662C5.64295 7.67474 5.65067 7.68246 5.65879 7.68975C5.66794 7.69889 5.67789 7.70719 5.68854 7.71454L5.70837 7.72941L5.75133 7.7542C5.7662 7.76246 5.77942 7.77568 5.79595 7.78394L16.3105 13.0173L11.1268 18.862C11.0462 18.9527 10.9935 19.0648 10.9752 19.1848C10.9568 19.3048 10.9735 19.4275 11.0233 19.5382C11.073 19.6489 11.1537 19.7429 11.2556 19.8088C11.3576 19.8747 11.4764 19.9097 11.5977 19.9097H19.2849L21.2547 25.0124C21.3169 25.1719 21.4257 25.3091 21.5668 25.406C21.708 25.5029 21.875 25.5552 22.0462 25.5561H31.9229C32.0621 25.5553 32.1989 25.5201 32.3212 25.4536H32.3344C32.4924 25.3662 32.6186 25.2308 32.6946 25.067L38.1213 13.2354C38.1966 13.0692 38.2163 12.8832 38.1775 12.705ZM26.8598 9.60495L26.8334 1.56575L36.5911 12.0555L26.8598 9.60495ZM26.0336 9.46118L7.80203 7.17253L26.0121 1.11959L26.0336 9.46118ZM36.3812 12.8405L20.6383 18.6654L26.6202 10.3849L36.3812 12.8405ZM23.9316 0.94278L6.12313 6.86683L2.46625 0.93617L23.9316 0.94278ZM8.27463 8.05825L24.5117 10.0957L17.0095 12.4191C16.9809 12.3968 16.9505 12.3769 16.9186 12.3596L8.27463 8.05825ZM17.1054 13.3461C17.1374 13.3094 17.1657 13.2696 17.1896 13.2271L25.3924 10.6857L19.3196 19.0933H12.0158L17.1054 13.3461ZM22.0131 24.7216L20.321 20.336L30.2523 24.7365L22.0131 24.7216ZM31.9791 24.6043L20.6052 19.5577L37.1149 13.4436L31.9791 24.6043Z" fill="#083D5F" stroke="#083D5F" stroke-width="0.295713"/>
</svg>
