<svg width="55" height="37" viewBox="0 0 55 37" fill="none" xmlns="http://www.w3.org/2000/svg">
<path d="M25.6875 5.598V11.1882L23.3829 11.1909L21.0783 11.1936L21.7515 11.4238C23.9719 12.1831 25.3378 13.8938 25.6375 16.2906C25.7162 16.9205 25.5512 18.1331 25.2963 18.797C24.8344 20.0004 23.7081 21.2268 22.5404 21.7978C21.3508 22.3795 21.6008 22.366 12.041 22.3673L3.21094 22.3686V16.7784V11.1882L5.56735 11.1808L7.92377 11.1735L7.30002 10.9948C4.47387 10.1858 2.70257 7.19721 3.37055 4.36485C3.84536 2.35145 5.24263 0.852758 7.25051 0.203262C7.77814 0.0325539 8.47926 0.0185772 16.7538 0.0134011L25.6875 0.0078125V5.598Z" fill="black"/>
<path fill-rule="evenodd" clip-rule="evenodd" d="M2.52193 26.2613C4.04205 26.779 4.54244 28.7985 3.4385 29.9611C2.89699 30.5313 2.5095 30.6503 1.1953 30.6503H0V28.4419C0 27.2271 0.0310744 26.2023 0.0690877 26.1644C0.210783 26.0228 2.03284 26.0947 2.52193 26.2613ZM1.24294 28.4419C1.24294 27.7965 1.27174 27.2398 1.30695 27.2046C1.41126 27.1003 1.99969 27.241 2.27863 27.4369C2.42105 27.5369 2.60272 27.7899 2.68248 27.9992C2.98306 28.7887 2.4198 29.6137 1.57957 29.6147L1.24294 29.6151V28.4419Z" fill="black"/>
<path fill-rule="evenodd" clip-rule="evenodd" d="M7.2331 27.7061C7.60982 27.9285 7.84453 28.3201 7.93319 28.874L8.00207 29.3045H6.84945C6.21555 29.3045 5.69683 29.3473 5.69683 29.3996C5.69683 29.8524 6.20726 30.1257 6.5876 29.8767C6.85939 29.6986 7.87198 29.6586 7.87198 29.8257C7.87198 30.0368 7.52488 30.4567 7.22026 30.6142C6.80128 30.8307 5.81698 30.8205 5.34072 30.5946C4.62986 30.2574 4.32803 29.0914 4.73893 28.2693C5.00399 27.739 5.68937 27.4109 6.39267 27.4777C6.68994 27.5059 7.0681 27.6087 7.2331 27.7061ZM5.8004 28.5454C5.8004 28.4694 5.83148 28.3762 5.86949 28.3383C5.98529 28.2225 6.57973 28.2614 6.7119 28.3935C6.93511 28.6166 6.84448 28.6834 6.3183 28.6834C5.95577 28.6834 5.8004 28.642 5.8004 28.5454Z" fill="black"/>
<path d="M10.8019 27.6365C10.8712 27.7057 10.8616 27.8466 10.7728 28.0607C10.6464 28.3658 10.6188 28.378 10.2004 28.3154C9.67269 28.2363 9.47807 28.4201 9.91186 28.5878C10.7026 28.8936 10.9179 29.0501 11.0022 29.3799C11.12 29.8404 10.879 30.3828 10.4604 30.5991C10.047 30.8127 9.15822 30.8179 8.65928 30.6095L8.27842 30.4505L8.48868 30.0385C8.69512 29.634 8.70423 29.6293 8.98462 29.7754C9.14175 29.8573 9.40183 29.9246 9.56269 29.925C10.04 29.9261 9.8611 29.6194 9.2705 29.4241C8.61598 29.2075 8.40862 28.8571 8.58553 28.2669C8.69968 27.8862 8.97302 27.6254 9.37822 27.5107C9.67487 27.4267 10.681 27.5157 10.8019 27.6365Z" fill="black"/>
<path fill-rule="evenodd" clip-rule="evenodd" d="M14.0644 27.6884C14.4309 27.8778 14.8419 28.6489 14.7931 29.0557L14.76 29.3325L13.6465 29.3127C12.9796 29.3009 12.533 29.3334 12.533 29.3939C12.533 29.8619 13.012 30.1082 13.4659 29.8736C13.8414 29.6795 14.7082 29.6636 14.7082 29.8508C14.7082 30.0739 14.4016 30.4358 14.0656 30.6095C13.6132 30.8433 12.6244 30.8262 12.1981 30.5774C11.0915 29.9314 11.1253 28.1652 12.2543 27.6363C12.7556 27.4014 13.5536 27.4244 14.0644 27.6884ZM13.1545 28.6834C12.5895 28.6834 12.4462 28.4903 12.8696 28.2994C13.1076 28.1922 13.3122 28.2232 13.5429 28.4016C13.7917 28.5939 13.6684 28.6834 13.1545 28.6834Z" fill="black"/>
<path d="M16.469 27.7058C16.469 27.8517 16.4909 27.8517 16.6993 27.7058C16.9613 27.5223 17.8292 27.4893 18.132 27.6513C18.5239 27.8609 18.6442 28.2965 18.6442 29.5064V30.6503H18.0745H17.5048V29.6875C17.5048 28.6378 17.4334 28.4763 16.9698 28.4763C16.5677 28.4763 16.469 28.73 16.469 29.7635V30.6503H15.8993H15.3296V29.0975V27.5446H15.8993C16.3458 27.5446 16.469 27.5794 16.469 27.7058Z" fill="black"/>
<path d="M20.4263 28.2693C20.6024 28.6679 20.7793 28.994 20.8193 28.994C20.8593 28.994 21.0362 28.6679 21.2123 28.2693L21.5325 27.5446H22.1599C22.5049 27.5446 22.7873 27.5681 22.7873 27.5969C22.7873 27.6257 22.4337 28.3245 22.0015 29.1498L21.2155 30.6503L20.7844 30.6442L20.3532 30.638L19.6343 29.2132C19.2389 28.4296 18.8971 27.7336 18.8747 27.6665C18.8464 27.5818 19.0282 27.5446 19.4701 27.5446H20.1061L20.4263 28.2693Z" fill="black"/>
<path fill-rule="evenodd" clip-rule="evenodd" d="M25.3088 27.5528C25.5279 27.6136 25.8749 27.817 26.08 28.0048C26.4202 28.3165 26.4564 28.4041 26.4936 29.0066C26.5283 29.569 26.4984 29.7191 26.2922 30.0202C25.9476 30.523 25.3773 30.7882 24.6554 30.7814C23.9779 30.7751 23.5495 30.5886 23.1663 30.1333C22.6315 29.4981 22.7037 28.5916 23.338 27.9771C23.8616 27.4699 24.5085 27.3307 25.3088 27.5528ZM24.0302 29.1452C24.0302 29.005 24.1235 28.7973 24.2374 28.6834C24.3513 28.5695 24.5611 28.4763 24.7035 28.4763C25.0166 28.4763 25.3768 28.8111 25.3768 29.1021C25.3768 29.3665 24.9332 29.8221 24.676 29.8221C24.3951 29.8221 24.0302 29.4396 24.0302 29.1452Z" fill="black"/>
<path d="M28.277 28.1658V30.6503H27.6814L27.0858 30.6502L27.1079 28.3987C27.1201 27.1603 27.1317 26.0422 27.1338 25.9142C27.1373 25.7013 27.1867 25.6813 27.7073 25.6813H28.277V28.1658Z" fill="black"/>
<path d="M30.1724 28.2652C30.3548 28.6614 30.532 28.9875 30.5663 28.9898C30.6005 28.9921 30.779 28.6679 30.9628 28.2693L31.297 27.5446H31.9103C32.2477 27.5446 32.523 27.5795 32.5221 27.6223C32.5212 27.665 32.1777 28.3521 31.7588 29.1492L30.9969 30.5985L30.5811 30.6298L30.1651 30.6611L29.3765 29.1551C28.9427 28.327 28.5877 27.6257 28.5877 27.5969C28.5877 27.5681 28.8696 27.5446 29.2143 27.5446H29.8408L30.1724 28.2652Z" fill="black"/>
<path d="M33.9738 29.0975V30.6503H33.4041H32.8344V29.0975V27.5446H33.4041H33.9738V29.0975Z" fill="black"/>
<path d="M33.7252 25.864C33.9588 26.0198 34.0794 26.3869 33.9818 26.6438C33.7448 27.2668 32.7309 27.0739 32.7309 26.4059C32.7309 26.1059 33.0427 25.7847 33.3323 25.7863C33.4857 25.7873 33.6625 25.8221 33.7252 25.864Z" fill="black"/>
<path d="M35.7601 27.6728C35.7941 27.7748 35.8606 27.7748 36.0843 27.6728C36.5008 27.4832 37.0874 27.5176 37.4761 27.7545L37.8192 27.9636L38.0856 27.7541C38.2678 27.6109 38.5032 27.5457 38.8301 27.548C39.7116 27.554 39.8778 27.8561 39.8778 29.453V30.6503H39.3081H38.7384V29.7271C38.7384 28.5954 38.6977 28.4763 38.3104 28.4763C37.9131 28.4763 37.8062 28.763 37.8062 29.8289V30.6503H37.2365H36.6668V29.6187C36.6668 28.6931 36.6456 28.5757 36.4597 28.4763C35.9624 28.2104 35.7381 28.6836 35.7358 30.0033L35.7346 30.6503H35.165H34.5953V29.1665C34.5953 28.3504 34.6263 27.6516 34.6644 27.6137C34.7899 27.4881 35.7152 27.5381 35.7601 27.6728Z" fill="black"/>
<path fill-rule="evenodd" clip-rule="evenodd" d="M43.1775 27.7411C43.554 28.0092 43.7648 28.3688 43.8683 28.9199L43.9404 29.3045H42.7895C41.7327 29.3045 41.6386 29.3204 41.6386 29.4989C41.6386 29.8768 42.114 30.0751 42.518 29.8657C42.7747 29.7326 43.8138 29.6523 43.8138 29.7655C43.8138 29.9739 43.5093 30.3829 43.2223 30.5602C42.7714 30.8388 41.842 30.86 41.3022 30.604C40.3039 30.1305 40.1301 28.6876 40.9753 27.8908C41.3777 27.5116 41.5841 27.449 42.3214 27.483C42.6731 27.4991 42.9583 27.5851 43.1775 27.7411ZM42.2083 28.6834C41.633 28.6834 41.5361 28.6202 41.7629 28.3935C41.9156 28.2409 42.3088 28.2327 42.5777 28.3764C42.9328 28.5664 42.7921 28.6834 42.2083 28.6834Z" fill="black"/>
<path d="M45.5746 27.7058C45.5746 27.8517 45.5965 27.8517 45.8049 27.7058C46.0698 27.5203 46.7983 27.4932 47.1549 27.6555C47.5967 27.8568 47.6891 28.1416 47.7315 29.4339L47.7716 30.6503H47.1909H46.6104V29.7635C46.6104 28.73 46.5117 28.4763 46.1096 28.4763C45.646 28.4763 45.5746 28.6378 45.5746 29.6875V30.6503H45.0049H44.4352V29.0975V27.5446H45.0049C45.4515 27.5446 45.5746 27.5794 45.5746 27.7058Z" fill="black"/>
<path d="M49.6142 27.0788C49.6142 27.5274 49.6257 27.5446 49.9249 27.5446C50.2287 27.5446 50.2356 27.5561 50.2356 28.0623C50.2356 28.5684 50.2287 28.5799 49.9249 28.5799H49.6142V29.6151V30.6503H49.0445H48.4748V29.6151C48.4748 28.7639 48.4472 28.5799 48.3194 28.5799C48.2021 28.5799 48.1641 28.4534 48.1641 28.0623C48.1641 27.6712 48.2021 27.5446 48.3194 27.5446C48.4345 27.5446 48.4748 27.4238 48.4748 27.0788V26.613H49.0445H49.6142V27.0788Z" fill="black"/>
<path fill-rule="evenodd" clip-rule="evenodd" d="M53.4041 27.7162C54.1069 28.0789 54.4434 28.9507 54.1647 29.686C53.9022 30.3785 53.2687 30.7733 52.4071 30.7814C51.2737 30.792 50.5464 30.154 50.5464 29.1492C50.5464 28.466 50.8427 27.9953 51.4794 27.6673C52.042 27.3775 52.7845 27.3964 53.4041 27.7162ZM51.94 29.568C51.6318 29.26 51.6158 28.9603 51.8929 28.6834C52.1413 28.4351 52.4881 28.4176 52.802 28.6375C53.1285 28.866 53.1079 29.3336 52.7593 29.6075C52.4057 29.8856 52.2501 29.878 51.94 29.568Z" fill="black"/>
<path d="M13.3616 32.2549V32.8243H12.6884H12.0151V33.1299C12.0151 33.4325 12.0215 33.4359 12.6625 33.4663L13.3099 33.4972V34.0148V34.5324L12.6625 34.5632C12.0215 34.5937 12.0151 34.5971 12.0151 34.8997V35.2053H12.6884H13.3616V35.7746V36.344H12.0669H10.7722V34.0148V31.6855H12.0669H13.3616V32.2549Z" fill="black"/>
<path d="M16.3395 33.265C16.4108 33.3212 16.469 33.5422 16.469 33.756V34.1446L16.015 34.0934C15.6478 34.0521 15.5191 34.0842 15.3418 34.2615C15.0792 34.5239 15.061 34.8645 15.292 35.1941C15.4401 35.4053 15.5253 35.4298 15.9653 35.3876L16.469 35.3392L16.4674 35.7122C16.4654 36.195 16.3883 36.2969 15.963 36.3797C15.4621 36.4772 14.8543 36.2823 14.4207 35.8852C14.0776 35.5709 14.0433 35.4873 14.0091 34.8821C13.9676 34.1465 14.1564 33.7116 14.6603 33.3815C15.1336 33.0717 16.0173 33.0103 16.3395 33.265Z" fill="black"/>
<path fill-rule="evenodd" clip-rule="evenodd" d="M19.315 33.1467C19.5417 33.2097 19.8986 33.4325 20.1082 33.642C21.0291 34.5624 20.5627 36.033 19.2502 36.3477C17.9568 36.6578 16.884 35.9287 16.884 34.7394C16.884 33.5213 18.0089 32.7844 19.315 33.1467ZM18.0227 34.7394C18.0227 34.6693 18.1193 34.4893 18.2374 34.3393C18.364 34.1784 18.5552 34.0665 18.7035 34.0665C19.0293 34.0665 19.3692 34.4101 19.3692 34.7394C19.3692 35.0687 19.0293 35.4123 18.7035 35.4123C18.4511 35.4123 18.0227 34.9888 18.0227 34.7394Z" fill="black"/>
<path d="M22.2694 33.302C22.2694 33.456 22.2897 33.456 22.5247 33.302C22.8192 33.1092 23.5257 33.0817 23.8558 33.2505C24.3731 33.5149 24.4398 33.7231 24.4423 35.0813L24.4446 36.3549L23.9008 36.3235L23.357 36.2923L23.3269 35.3144C23.3104 34.7766 23.2465 34.2757 23.1847 34.2015C23.0118 33.9932 22.501 34.0344 22.3766 34.2667C22.3177 34.3769 22.2694 34.8918 22.2694 35.411V36.3549L21.7256 36.3235L21.1818 36.2923L21.1528 34.8479C21.137 34.0536 21.1471 33.3431 21.1755 33.2692C21.2083 33.1837 21.4165 33.1348 21.7483 33.1348C22.159 33.1348 22.2694 33.1702 22.2694 33.302Z" fill="black"/>
<path fill-rule="evenodd" clip-rule="evenodd" d="M27.8546 33.3166C28.9833 33.8706 28.9877 35.5224 27.8623 36.1831C27.3777 36.4676 26.2628 36.4723 25.8297 36.1916C25.3986 35.9123 25.1833 35.6374 25.0517 35.1983C24.7107 34.0607 25.7613 32.9359 27.0274 33.0828C27.28 33.1122 27.6523 33.2173 27.8546 33.3166ZM26.8528 35.4108C26.2988 35.4145 26.0121 34.6738 26.4126 34.2736C26.9341 33.7523 27.7818 34.3691 27.4386 35.0202C27.2812 35.3189 27.1464 35.4087 26.8528 35.4108Z" fill="black"/>
<path d="M27.5608 31.7114C27.8944 31.9533 28.1687 32.1857 28.1704 32.2279C28.1747 32.3383 27.8324 32.7207 27.7291 32.7207C27.6811 32.7207 27.4889 32.6043 27.3022 32.4619C26.8818 32.1414 26.875 32.1416 26.3867 32.4798L25.9871 32.7567L25.72 32.4898L25.453 32.2228L26.0995 31.7471C26.4551 31.4855 26.7929 31.2714 26.8502 31.2714C26.9074 31.2714 27.2272 31.4695 27.5608 31.7114Z" fill="black"/>
<path d="M30.4137 33.2875C30.4654 33.4222 30.5073 33.4222 30.7678 33.2875C31.2066 33.0608 31.7167 33.0989 32.1467 33.3905C32.354 33.5311 32.5237 33.6022 32.5237 33.5485C32.5237 33.3843 33.1132 33.1348 33.501 33.1348C33.756 33.1348 33.9611 33.2212 34.1773 33.4195L34.4878 33.7042L34.5018 34.9982L34.516 36.2923H33.96H33.4041L33.3781 35.4123C33.3431 34.2241 33.2989 34.0665 33.0005 34.0665C32.5867 34.0665 32.4858 34.313 32.4785 35.3425L32.4719 36.2923H31.9022H31.3325L31.303 35.2329C31.2775 34.3173 31.247 34.1593 31.0775 34.0686C30.8183 33.93 30.5661 34.0364 30.5031 34.3108C30.4751 34.4327 30.4406 34.9283 30.4263 35.4123L30.4003 36.2923H29.8322H29.264L29.2531 34.7912C29.2472 33.9656 29.2609 33.2552 29.2837 33.2125C29.3645 33.0606 30.3518 33.1261 30.4137 33.2875Z" fill="black"/>
<path d="M36.3043 34.7394V36.2923L35.7605 36.3235L35.2167 36.3549V34.7394V33.124L35.7605 33.1553L36.3043 33.1866V34.7394Z" fill="black"/>
<path d="M36.1259 31.5361C36.2833 31.6463 36.3561 31.8034 36.3561 32.033C36.3561 32.4502 36.1971 32.6172 35.7998 32.6172C35.1829 32.6172 34.8987 32.0034 35.3203 31.582C35.5692 31.3332 35.816 31.3193 36.1259 31.5361Z" fill="black"/>
<path d="M39.3395 33.674L39.3708 34.1588L38.9972 34.0982C38.2569 33.9781 37.7875 34.5864 38.17 35.1699C38.3276 35.4103 38.3948 35.4319 38.8523 35.3879L39.3599 35.3392V35.7838C39.3599 36.0283 39.3072 36.2609 39.2427 36.3006C39.1782 36.3405 38.8851 36.3765 38.5912 36.3808C37.5866 36.3953 36.8737 35.718 36.8744 34.75C36.8752 33.634 37.7553 32.9467 38.9456 33.1326C39.2944 33.187 39.3092 33.2075 39.3395 33.674Z" fill="black"/>
<path fill-rule="evenodd" clip-rule="evenodd" d="M42.664 33.3241C43.1891 33.5963 43.4264 33.9718 43.4797 34.6147C43.5378 35.3157 43.3397 35.726 42.7567 36.1115C42.1706 36.4992 41.1623 36.5181 40.5737 36.1524C39.8677 35.7138 39.5819 34.7618 39.9335 34.0211C40.3532 33.1372 41.6604 32.8035 42.664 33.3241ZM41.3538 35.3056C40.9608 35.0868 40.8968 34.4732 41.2417 34.2316C41.3714 34.1409 41.5501 34.0665 41.6386 34.0665C41.7272 34.0665 41.9058 34.1409 42.0355 34.2316C42.3804 34.4732 42.3164 35.0868 41.9235 35.3056C41.6676 35.4479 41.6096 35.4479 41.3538 35.3056Z" fill="black"/>
<path d="M46.3296 0.161322C48.378 0.595079 50.073 2.20236 50.5952 4.20582C50.8268 5.09435 50.8268 11.6939 50.5952 12.5824C50.2108 14.0573 49.1124 15.4213 47.7619 16.1007C46.556 16.7073 46.0351 16.7756 42.5932 16.7776L39.5598 16.7794L34.0756 19.5227C31.0593 21.0315 28.5665 22.266 28.5359 22.266C28.5054 22.266 28.4929 17.688 28.5083 12.0926L28.5361 1.91912L28.8899 1.36818C29.2615 0.789496 29.7639 0.392588 30.4216 0.158111C31.0183 -0.0546269 45.3234 -0.0518295 46.3296 0.161322Z" fill="#EC1D23"/>
</svg>
